<?xml version="1.0" encoding="UTF-8"?>
<svg id="Layer_2" data-name="Layer 2" xmlns="http://www.w3.org/2000/svg" viewBox="0 0 346.59 55.41">
  <defs>
    <style>
      .cls-1 {
        fill: #fff;
      }

      .cls-2 {
        fill: none;
        stroke: #231f20;
        stroke-miterlimit: 10;
        stroke-width: 4px;
      }
    </style>
  </defs>
  <g>
    <path class="cls-1" d="m33.34,6.63h-12.21v-3.97h-2.74v3.97H6.17v2.74h12.08c-.64,3.44-3.67,6.06-7.3,6.06h-4.79v2.74h4.79c3.75,0,7.03-2.05,8.8-5.08,1.76,3.03,5.04,5.08,8.79,5.08h4.79v-2.74h-4.79c-3.63,0-6.65-2.61-7.3-6.06h12.08v-2.74Z"/>
    <rect class="cls-1" x="6.17" y="27.65" width="11.51" height="2.74"/>
    <path class="cls-1" d="m21.12,21.59v-1.85h-2.74v1.85c0,3.12,1.64,5.87,4.1,7.43-2.46,1.56-4.1,4.31-4.1,7.43v2.56h-3.37c-3.34,0-6.07-2.72-6.07-6.07h-2.74c0,4.85,3.95,8.8,8.8,8.8h3.37v4.69c0,2.11.9,4.13,2.47,5.54,1.37,1.22,3.14,1.89,4.97,1.89.27,0,.55-.01.82-.05,3.41-.38,6.17-3.13,6.54-6.54.23-2.11-.44-4.23-1.85-5.8-1.41-1.57-3.43-2.47-5.54-2.47h-4.69v-2.56c0-3.34,2.72-6.07,6.07-6.07h6.15v-2.74h-6.15c-3.34,0-6.07-2.72-6.07-6.07Zm4.69,20.16c1.33,0,2.61.57,3.5,1.56.9,1.01,1.32,2.31,1.17,3.67-.24,2.15-1.97,3.89-4.12,4.12-1.36.15-2.66-.26-3.67-1.17-.99-.89-1.56-2.17-1.56-3.5v-4.69h4.69Z"/>
    <path class="cls-1" d="m6.17,45.23v8.63h8.37v-8.63H6.17Zm.96,2.1c0-.62.5-1.12,1.12-1.12h5.24v.41h-5.24c-.39,0-.71.32-.71.71v.68c0,.39.32.71.71.71h5.24v.41h-5.24c-.62,0-1.12-.5-1.12-1.12v-.68Zm6.38,4.43c0,.62-.5,1.12-1.12,1.12h-5.16s0-1.57,0-1.57h.41v1.16h4.75c.39,0,.71-.32.71-.71v-.68c0-.39-.32-.71-.71-.71h-5.16v-.41h5.16c.62,0,1.12.5,1.12,1.12v.68Z"/>
  </g>
  <path class="cls-1" d="m153.68,12.28c-8.89-8.88-23.34-8.88-32.23,0-4.3,4.31-6.67,10.03-6.67,16.11s2.37,11.81,6.67,16.11c4.3,4.3,10.02,6.66,16.11,6.66s11.82-2.37,16.11-6.66c4.3-4.3,6.68-10.03,6.68-16.11s-2.37-11.81-6.68-16.11Zm-5.97,26.26c-2.7,2.71-6.31,4.2-10.14,4.2s-7.44-1.49-10.14-4.2c-2.71-2.71-4.2-6.31-4.2-10.14s1.49-7.43,4.2-10.14c2.7-2.7,6.31-4.19,10.14-4.19s7.44,1.49,10.14,4.19c2.71,2.71,4.2,6.31,4.2,10.14s-1.49,7.43-4.2,10.14Z"/>
  <path class="cls-1" d="m40.48,20.61v15.51c0,8.28,6.74,15.02,15.02,15.02h15.06v-8.44h-15.06c-3.63,0-6.58-2.95-6.58-6.58v-15.51c0-3.63,2.95-6.58,6.58-6.58h15.06V5.59h-15.06c-8.28,0-15.02,6.74-15.02,15.02Z"/>
  <polygon class="cls-1" points="100.19 24.72 84.76 24.72 84.76 5.59 76.32 5.59 76.32 51.18 84.76 51.18 84.76 33.16 100.19 33.16 100.19 51.18 108.63 51.18 108.63 5.59 100.19 5.59 100.19 24.72"/>
  <path class="cls-1" d="m319.7,3.68c-8.05,0-14.61,6.55-14.61,14.61v20.03c0,8.05,6.55,14.61,14.61,14.61h23.26v-28.14h-11.51v16.63h-11.75c-1.71,0-3.1-1.39-3.1-3.1v-20.03c0-1.71,1.39-3.1,3.1-3.1h23.27V3.68h-23.27Z"/>
  <path class="cls-1" d="m214.41,37.46v-18.59c0-8.46-6.88-15.34-15.34-15.34h-24.76v49.27h24.76c8.46,0,15.34-6.88,15.34-15.34Zm-28.6-22.42h13.26c2.12,0,3.84,1.72,3.84,3.84v18.59c0,2.12-1.72,3.84-3.84,3.84h-13.26V15.04Z"/>
  <path class="cls-1" d="m242.47,3.54h-10.64c-8.05,0-14.61,6.55-14.61,14.61v34.74h11.51v-14.68h16.85v14.68h11.51V18.15c0-8.05-6.55-14.61-14.61-14.61Zm-13.75,23.16v-8.56c0-1.71,1.39-3.1,3.1-3.1h10.64c1.71,0,3.1,1.39,3.1,3.1v8.56h-16.85Z"/>
  <polygon class="cls-1" points="290.44 32.02 272.52 3.54 260 3.54 260 52.89 271.51 52.89 271.51 22.75 289.49 52.89 301.94 52.89 301.94 3.54 290.44 3.54 290.44 32.02"/>
  <rect class="cls-2" x="-3.78" y="-581.63" width="1965.47" height="2058.67"/>
</svg>