<?xml version="1.0" encoding="utf-8"?>
<!-- Generator: Adobe Illustrator 26.5.0, SVG Export Plug-In . SVG Version: 6.00 Build 0)  -->
<svg version="1.1" id="Layer_1" xmlns="http://www.w3.org/2000/svg" xmlns:xlink="http://www.w3.org/1999/xlink" x="0px" y="0px"
	 viewBox="0 0 1588 138" style="enable-background:new 0 0 1588 138;" xml:space="preserve">
<style type="text/css">
	.st0{fill:#B7A067;}
</style>
<g>
	<rect x="55.1" y="67.3" class="st0" width="680.28" height="3.41"/>
	<rect x="852.61" y="67.3" class="st0" width="680.28" height="3.41"/>
	<g>
		<rect x="750.32" y="66.61" class="st0" width="87.36" height="4.77"/>
		<path class="st0" d="M794,130c-33.64,0-61-27.36-61-61c0-33.64,27.36-61,61-61s61,27.36,61,61C855,102.64,827.64,130,794,130z
			 M794,12.77c-31,0-56.23,25.22-56.23,56.23c0,31,25.22,56.23,56.23,56.23c31,0,56.23-25.22,56.23-56.23
			C850.23,38,825,12.77,794,12.77z"/>
		<rect x="791.61" y="25.4" class="st0" width="4.77" height="87.21"/>
		<g>
			<path class="st0" d="M840.69,61.16H804.3v-4.77h30.26c-4.13-13.21-14.66-23.74-27.87-27.87v18.43h10.42
				c-1.97-2-4.16-3.77-6.54-5.28l2.56-4.03c4.3,2.73,8.03,6.18,11.08,10.27l2.86,3.82h-25.15V22.39l2.93,0.68
				c8.54,1.99,16.35,6.34,22.58,12.58c6.23,6.23,10.58,14.04,12.58,22.58L840.69,61.16z"/>
		</g>
		<g>
			<path class="st0" d="M783.7,61.16h-36.39l0.68-2.93c1.99-8.54,6.34-16.35,12.58-22.58c6.23-6.23,14.04-10.58,22.58-12.58
				l2.93-0.68v29.33h-25.15l2.86-3.82c3.06-4.08,6.78-7.54,11.08-10.27l2.56,4.03c-2.39,1.52-4.57,3.28-6.54,5.28h10.42V28.52
				c-13.21,4.13-23.74,14.66-27.87,27.87h30.26V61.16z"/>
		</g>
		<g>
			<path class="st0" d="M801.92,115.61V86.28h25.15l-2.86,3.82c-3.05,4.08-6.78,7.53-11.08,10.27l-2.56-4.03
				c2.39-1.52,4.57-3.28,6.54-5.28h-10.42v18.43c13.21-4.13,23.74-14.66,27.87-27.87H804.3v-4.77h36.39L840,79.77
				c-1.99,8.54-6.34,16.35-12.58,22.58c-6.23,6.23-14.04,10.58-22.58,12.58L801.92,115.61z"/>
		</g>
		<g>
			<path class="st0" d="M786.08,115.61l-2.93-0.68c-8.54-1.99-16.35-6.34-22.58-12.58c-6.23-6.23-10.58-14.04-12.58-22.58
				l-0.68-2.93h36.39v4.77h-30.26c4.13,13.21,14.66,23.74,27.87,27.87V91.05h-10.42c1.97,2,4.16,3.77,6.54,5.28l-2.56,4.03
				c-4.3-2.73-8.03-6.18-11.08-10.27l-2.86-3.82h25.15V115.61z"/>
		</g>
	</g>
	<g>
		<path class="st0" d="M33.48,91.98C20.81,91.98,10.5,81.67,10.5,69s10.31-22.98,22.98-22.98S56.47,56.33,56.47,69
			S46.16,91.98,33.48,91.98z M33.48,48.74c-11.17,0-20.26,9.09-20.26,20.26s9.09,20.26,20.26,20.26S53.74,80.17,53.74,69
			S44.65,48.74,33.48,48.74z"/>
		<g>
			<polygon class="st0" points="19.2,85.21 17.27,83.28 31.55,69 17.23,54.68 19.16,52.75 35.41,69 			"/>
			<polygon class="st0" points="15.7,80.74 13.77,78.81 23.58,69 13.77,59.19 15.7,57.26 27.44,69 			"/>
			<polygon class="st0" points="13.41,75.04 11.48,73.11 15.59,69 11.48,64.89 13.41,62.96 19.45,69 			"/>
		</g>
		<g>
			<polygon class="st0" points="47.81,85.25 31.55,69 47.81,52.75 49.73,54.68 35.41,69 49.73,83.32 			"/>
			<polygon class="st0" points="51.27,80.74 39.53,69 51.27,57.26 53.2,59.19 43.39,69 53.2,78.81 			"/>
			<polygon class="st0" points="53.55,75.04 47.51,69 53.55,62.96 55.48,64.89 51.37,69 55.48,73.11 			"/>
		</g>
		<g>
			<polygon class="st0" points="33.48,62.95 21.74,51.22 23.67,49.29 33.48,59.1 43.29,49.29 45.22,51.22 			"/>
			<polygon class="st0" points="33.48,54.97 27.44,48.93 29.37,47 33.48,51.11 37.59,47 39.52,48.93 			"/>
		</g>
		<g>
			<polygon class="st0" points="47.81,85.25 33.48,70.93 19.2,85.21 17.27,83.28 33.48,67.07 49.73,83.32 			"/>
			<polygon class="st0" points="43.29,88.71 33.48,78.9 23.67,88.71 21.74,86.78 33.48,75.05 45.22,86.78 			"/>
			<polygon class="st0" points="37.59,91 33.48,86.89 29.37,91 27.44,89.07 33.48,83.03 39.52,89.07 			"/>
		</g>
	</g>
	<g>
		<path class="st0" d="M1554.52,91.98c-12.67,0-22.98-10.31-22.98-22.98s10.31-22.98,22.98-22.98c12.67,0,22.98,10.31,22.98,22.98
			S1567.19,91.98,1554.52,91.98z M1554.52,48.74c-11.17,0-20.26,9.09-20.26,20.26s9.09,20.26,20.26,20.26
			c11.17,0,20.26-9.09,20.26-20.26S1565.69,48.74,1554.52,48.74z"/>
		<g>
			<polygon class="st0" points="1540.24,85.21 1538.31,83.28 1552.59,69 1538.27,54.68 1540.19,52.75 1556.45,69 			"/>
			<polygon class="st0" points="1536.73,80.74 1534.81,78.81 1544.61,69 1534.81,59.19 1536.73,57.26 1548.47,69 			"/>
			<polygon class="st0" points="1534.45,75.04 1532.52,73.11 1536.63,69 1532.52,64.89 1534.45,62.96 1540.49,69 			"/>
		</g>
		<g>
			<polygon class="st0" points="1568.84,85.25 1552.59,69 1568.84,52.75 1570.77,54.68 1556.45,69 1570.77,83.32 			"/>
			<polygon class="st0" points="1572.3,80.74 1560.56,69 1572.3,57.26 1574.23,59.19 1564.42,69 1574.23,78.81 			"/>
			<polygon class="st0" points="1574.59,75.04 1568.55,69 1574.59,62.96 1576.52,64.89 1572.41,69 1576.52,73.11 			"/>
		</g>
		<g>
			<polygon class="st0" points="1554.52,62.95 1542.78,51.22 1544.71,49.29 1554.52,59.1 1564.33,49.29 1566.26,51.22 			"/>
			<polygon class="st0" points="1554.52,54.97 1548.48,48.93 1550.41,47 1554.52,51.11 1558.63,47 1560.56,48.93 			"/>
		</g>
		<g>
			<polygon class="st0" points="1568.84,85.25 1554.52,70.93 1540.24,85.21 1538.31,83.28 1554.52,67.07 1570.77,83.32 			"/>
			<polygon class="st0" points="1564.33,88.71 1554.52,78.9 1544.71,88.71 1542.78,86.78 1554.52,75.05 1566.26,86.78 			"/>
			<polygon class="st0" points="1558.63,91 1554.52,86.89 1550.41,91 1548.48,89.07 1554.52,83.03 1560.56,89.07 			"/>
		</g>
	</g>
</g>
</svg>
