<?xml version="1.0" encoding="utf-8"?>
<!-- Generator: Adobe Illustrator 26.5.0, SVG Export Plug-In . SVG Version: 6.00 Build 0)  -->
<svg version="1.1" xmlns="http://www.w3.org/2000/svg" xmlns:xlink="http://www.w3.org/1999/xlink" x="0px" y="0px"
	 viewBox="0 0 306.35 326.37" style="enable-background:new 0 0 306.35 326.37;" xml:space="preserve">
<g>
	<path d="M306.35,326.37l-43.08-22.05v-33.43c0-3.66,1.13-7.04,2.03-9.76c5.3-15.93,22.49-27.06,41.79-27.06
		c18.59,0,34.98,10.4,40.78,25.88c1.38,3.68,1.57,7.38,1.57,10.84v33.59L306.35,326.37z M273.27,298.2l33.08,16.94l33.08-16.89
		v-27.47c0-2.91-0.16-5.27-0.93-7.33c-4.34-11.59-16.97-19.38-31.41-19.38c-15.06,0-28.34,8.31-32.3,20.22
		c-0.71,2.14-1.52,4.57-1.52,6.61V298.2z"/>
	<path d="M266.43,305.54l-42.05-21.11v-25.85c0-5.42,1.09-11.34,3.34-18.09c10.01-30.08,42.69-51.09,79.45-51.09
		c35.7,0,67.04,19.65,78,48.89c2.16,5.76,3.16,12.14,3.16,20.09v26.1l-41.38,21.05l-4.54-8.91l35.91-18.27v-19.96
		c0-6.71-0.8-11.98-2.53-16.58c-9.5-25.36-37.08-42.4-68.63-42.4c-32.52,0-61.29,18.2-69.96,44.25c-1.9,5.71-2.83,10.59-2.83,14.93
		v19.68l36.54,18.34L266.43,305.54z"/>
	<rect x="284.06" y="293.21" transform="matrix(0.011 -0.9999 0.9999 0.011 5.0206 601.5056)" width="45.08" height="10"/>
	<path d="M422.98,266.77l-4.58-8.89l36.8-18.95c-0.74-9.79-2.55-18.42-5.5-26.29c-19.77-52.76-76.95-88.21-142.3-88.21
		c-66.72,0-125.92,37.87-143.97,92.1c-2.56,7.7-4.2,15.19-4.88,22.33l34.88,17.51l-4.49,8.94l-40.8-20.49l0.18-3.27
		c0.5-8.97,2.39-18.45,5.62-28.17c9.33-28.04,29.48-53.27,56.73-71.04c27.98-18.25,61.43-27.9,96.73-27.9
		c69.49,0,130.44,38.06,151.66,94.7c3.63,9.7,5.7,20.33,6.32,32.5l0.16,3.22L422.98,266.77z"/>
	<path d="M227.62,286.13L186.3,264.6v-12.96c0-8.72,1.48-17.59,4.4-26.36c14.7-44.15,62.56-74.98,116.4-74.98
		c52.54,0,98.65,28.84,114.73,71.76c3.13,8.35,4.59,17.65,4.59,29.27v13.31l-37.65,19.98l-4.69-8.83l32.34-17.16v-7.29
		c0-10.38-1.25-18.57-3.95-25.76c-14.63-39.04-56.97-65.27-105.37-65.27c-49.59,0-93.55,28.02-106.91,68.14
		c-2.58,7.75-3.89,15.55-3.89,23.2v6.89l35.94,18.73L227.62,286.13z"/>
</g>
<g>
	<path d="M0,326.37l-43.08-22.05v-33.43c0-3.66,1.13-7.05,2.03-9.76c5.3-15.93,22.49-27.06,41.79-27.06
		c18.59,0,34.98,10.4,40.78,25.88c1.38,3.68,1.57,7.38,1.57,10.84v33.59L0,326.37z M-33.08,298.2L0,315.14l33.08-16.89v-27.47
		c0-2.91-0.16-5.27-0.93-7.33c-4.34-11.59-16.97-19.38-31.41-19.38c-15.06,0-28.34,8.31-32.3,20.22c-0.71,2.14-1.52,4.56-1.52,6.61
		V298.2z"/>
	<path d="M-39.92,305.54l-42.05-21.11v-25.85c0-5.43,1.09-11.34,3.34-18.09c10.01-30.08,42.69-51.09,79.45-51.09
		c35.7,0,67.04,19.65,78,48.89c2.16,5.76,3.16,12.14,3.16,20.09v26.1L40.6,305.53l-4.54-8.91l35.91-18.27v-19.96
		c0-6.71-0.8-11.98-2.53-16.58c-9.5-25.36-37.08-42.4-68.63-42.4c-32.52,0-61.29,18.2-69.96,44.25c-1.9,5.71-2.82,10.59-2.82,14.93
		v19.68l36.54,18.34L-39.92,305.54z"/>
	<rect x="-22.29" y="293.21" transform="matrix(0.011 -0.9999 0.9999 0.011 -297.95 295.1714)" width="45.08" height="10"/>
	<path d="M116.63,266.77l-4.58-8.89l36.8-18.95c-0.74-9.79-2.55-18.42-5.5-26.29c-19.77-52.76-76.95-88.21-142.3-88.21
		c-66.72,0-125.92,37.87-143.97,92.1c-2.56,7.7-4.2,15.19-4.88,22.33l34.88,17.51l-4.49,8.94l-40.8-20.49l0.18-3.27
		c0.5-8.98,2.39-18.46,5.62-28.17c9.33-28.04,29.48-53.27,56.73-71.04c27.98-18.25,61.43-27.9,96.73-27.9
		c69.49,0,130.44,38.06,151.66,94.7c3.63,9.7,5.7,20.33,6.32,32.5l0.16,3.22L116.63,266.77z"/>
	<path d="M-78.74,286.13l-41.32-21.54v-12.96c0-8.72,1.48-17.59,4.4-26.36c14.7-44.15,62.56-74.98,116.4-74.98
		c52.54,0,98.65,28.84,114.73,71.76c3.13,8.35,4.59,17.65,4.59,29.27v13.31L82.4,284.62l-4.69-8.83l32.34-17.16v-7.29
		c0-10.38-1.25-18.57-3.95-25.76C91.48,186.53,49.13,160.3,0.74,160.3c-49.59,0-93.55,28.02-106.91,68.14
		c-2.58,7.74-3.89,15.55-3.89,23.2v6.89l35.94,18.73L-78.74,286.13z"/>
</g>
<g>
	<path d="M196.99,161.25h-10c0-2.62-1.28-10.08-2.11-12.29c-4.34-11.56-16.97-19.33-31.41-19.33c-15.06,0-28.34,8.29-32.3,20.15
		c-0.64,1.92-1.52,8.92-1.52,11.41h-10c0-3.2,0.95-11.33,2.03-14.57c5.3-15.89,22.49-26.99,41.79-26.99
		c18.59,0,34.97,10.37,40.78,25.81C195.61,149.07,196.99,157.69,196.99,161.25z"/>
	<path d="M224.41,137.4c-0.38-3.75-1.1-7.03-2.22-10.02c-9.5-25.36-37.08-42.4-68.63-42.4c-32.52,0-61.29,18.2-69.96,44.25
		c-0.91,2.74-1.58,5.2-2.04,7.54l-9.81-1.95c0.55-2.75,1.32-5.61,2.36-8.75c10.01-30.08,42.69-51.09,79.45-51.09
		c35.7,0,67.04,19.65,78,48.89c1.43,3.81,2.35,7.91,2.81,12.53L224.41,137.4z"/>
	<rect x="123.37" y="185.86" transform="matrix(8.399704e-03 -1 1 8.399704e-03 -39.1546 342.2378)" width="59.23" height="10"/>
	<path d="M5.45,120.15l-9.9-1.44c0.93-6.39,2.54-13.04,4.78-19.77C9.66,70.9,29.8,45.67,57.05,27.9C85.03,9.65,118.48,0,153.79,0
		c69.49,0,130.44,38.06,151.66,94.7c2.75,7.35,4.65,15.49,5.65,24.21l-9.94,1.13c-0.91-8.02-2.57-15.16-5.08-21.83
		C276.31,45.45,219.13,10,153.79,10C87.07,10,27.86,47.87,9.81,102.1C7.76,108.27,6.29,114.34,5.45,120.15z"/>
	<path d="M262.06,124.52c-0.64-4.92-1.69-9.29-3.22-13.37c-14.63-39.04-56.97-65.27-105.36-65.27c-49.59,0-93.55,28.02-106.91,68.14
		c-1.15,3.46-2.06,6.99-2.7,10.48l-9.83-1.81c0.73-3.95,1.75-7.93,3.05-11.83c14.7-44.15,62.56-74.98,116.4-74.98
		c52.54,0,98.65,28.84,114.73,71.76c1.8,4.81,3.04,9.91,3.77,15.59L262.06,124.52z"/>
</g>
<g>
	<path d="M611.98,326.37l-43.08-22.05v-33.43c0-3.66,1.13-7.05,2.03-9.76c5.3-15.93,22.49-27.06,41.79-27.06
		c18.59,0,34.98,10.4,40.78,25.88c1.38,3.68,1.57,7.38,1.57,10.84v33.59L611.98,326.37z M578.9,298.2l33.08,16.94l33.08-16.89
		v-27.47c0-2.91-0.16-5.27-0.93-7.33c-4.34-11.59-16.97-19.38-31.41-19.38c-15.06,0-28.34,8.31-32.3,20.22
		c-0.71,2.14-1.52,4.56-1.52,6.61V298.2z"/>
	<path d="M572.06,305.54l-42.05-21.11v-25.85c0-5.43,1.09-11.34,3.34-18.09c10.01-30.08,42.69-51.09,79.45-51.09
		c35.7,0,67.04,19.65,78,48.89c2.16,5.76,3.16,12.14,3.16,20.09v26.1l-41.38,21.05l-4.54-8.91l35.91-18.27v-19.96
		c0-6.71-0.8-11.98-2.53-16.58c-9.5-25.36-37.08-42.4-68.63-42.4c-32.52,0-61.29,18.2-69.96,44.25c-1.9,5.71-2.82,10.59-2.82,14.93
		v19.68l36.54,18.34L572.06,305.54z"/>
	<rect x="589.69" y="293.21" transform="matrix(0.011 -0.9999 0.9999 0.011 307.2718 907.1124)" width="45.08" height="10"/>
	<path d="M728.6,266.77l-4.58-8.89l36.8-18.95c-0.74-9.79-2.55-18.42-5.5-26.29c-19.77-52.76-76.95-88.21-142.3-88.21
		c-66.72,0-125.92,37.87-143.97,92.1c-2.56,7.7-4.2,15.19-4.88,22.33l34.88,17.51l-4.49,8.94l-40.8-20.49l0.18-3.27
		c0.5-8.98,2.39-18.46,5.62-28.17c9.33-28.04,29.48-53.27,56.73-71.04c27.98-18.25,61.43-27.9,96.73-27.9
		c69.49,0,130.44,38.06,151.66,94.7c3.63,9.7,5.7,20.33,6.32,32.5l0.16,3.22L728.6,266.77z"/>
	<path d="M533.24,286.13l-41.32-21.54v-12.96c0-8.72,1.48-17.59,4.4-26.36c14.7-44.15,62.56-74.98,116.4-74.98
		c52.54,0,98.65,28.84,114.73,71.76c3.13,8.35,4.59,17.65,4.59,29.27v13.31l-37.65,19.98l-4.69-8.83l32.34-17.16v-7.29
		c0-10.39-1.25-18.57-3.95-25.76c-14.63-39.04-56.97-65.27-105.36-65.27c-49.59,0-93.55,28.02-106.91,68.14
		c-2.58,7.75-3.89,15.55-3.89,23.2v6.89l35.94,18.73L533.24,286.13z"/>
</g>
<g>
	<path d="M502.62,161.25h-10c0-2.62-1.28-10.08-2.11-12.29c-4.34-11.56-16.97-19.33-31.41-19.33c-15.06,0-28.34,8.29-32.3,20.15
		c-0.64,1.92-1.52,8.92-1.52,11.41h-10c0-3.2,0.95-11.33,2.03-14.57c5.3-15.89,22.49-26.99,41.79-26.99
		c18.59,0,34.97,10.37,40.78,25.81C501.24,149.07,502.62,157.69,502.62,161.25z"/>
	<path d="M530.03,137.4c-0.38-3.75-1.1-7.03-2.23-10.02c-9.5-25.36-37.08-42.4-68.63-42.4c-32.52,0-61.29,18.2-69.96,44.25
		c-0.91,2.73-1.58,5.2-2.04,7.54l-9.81-1.95c0.55-2.75,1.32-5.62,2.36-8.75c10.01-30.08,42.69-51.09,79.45-51.09
		c35.7,0,67.04,19.65,78,48.89c1.43,3.81,2.35,7.91,2.81,12.53L530.03,137.4z"/>
	<rect x="428.99" y="185.86" transform="matrix(8.399704e-03 -1 1 8.399704e-03 263.9035 647.8523)" width="59.23" height="10"/>
	<path d="M311.07,120.15l-9.9-1.44c0.93-6.39,2.53-13.04,4.77-19.77c9.33-28.04,29.48-53.27,56.73-71.04
		C390.66,9.65,424.11,0,459.41,0c69.49,0,130.44,38.06,151.66,94.7c2.79,7.45,4.64,15.37,5.65,24.21l-9.94,1.13
		c-0.91-8.02-2.57-15.16-5.08-21.83C581.94,45.45,524.75,10,459.41,10c-66.72,0-125.92,37.87-143.97,92.1
		C313.38,108.27,311.92,114.34,311.07,120.15z"/>
	<path d="M567.69,124.52c-0.64-4.92-1.69-9.29-3.22-13.37C549.84,72.11,507.5,45.88,459.1,45.88c-49.59,0-93.55,28.02-106.91,68.14
		c-1.15,3.46-2.06,6.99-2.7,10.48l-9.83-1.81c0.73-3.95,1.75-7.93,3.05-11.83c14.7-44.15,62.56-74.98,116.4-74.98
		c52.54,0,98.65,28.84,114.73,71.76c1.8,4.81,3.03,9.91,3.77,15.59L567.69,124.52z"/>
</g>
<g>
	<path d="M917.6,326.37l-43.08-22.05v-33.43c0-3.66,1.13-7.05,2.03-9.76c5.3-15.93,22.49-27.06,41.79-27.06
		c18.59,0,34.98,10.4,40.78,25.88c1.38,3.68,1.57,7.38,1.57,10.84v33.59L917.6,326.37z M884.52,298.2l33.08,16.94l33.08-16.89
		v-27.47c0-2.91-0.16-5.27-0.93-7.33c-4.34-11.59-16.97-19.38-31.41-19.38c-15.06,0-28.34,8.31-32.3,20.22
		c-0.71,2.14-1.52,4.56-1.52,6.61V298.2z"/>
	<path d="M877.68,305.54l-42.05-21.11v-25.85c0-5.42,1.09-11.34,3.34-18.09c10.01-30.08,42.69-51.09,79.45-51.09
		c35.7,0,67.04,19.65,78,48.89c2.16,5.76,3.16,12.14,3.16,20.09v26.1l-41.38,21.05l-4.54-8.91l35.91-18.27v-19.96
		c0-6.71-0.8-11.98-2.53-16.58c-9.5-25.36-37.08-42.4-68.63-42.4c-32.52,0-61.29,18.2-69.96,44.25c-1.9,5.71-2.83,10.59-2.83,14.93
		v19.68l36.54,18.34L877.68,305.54z"/>
	<rect x="895.31" y="293.21" transform="matrix(0.011 -0.9999 0.9999 0.011 609.5226 1212.7188)" width="45.08" height="10"/>
	<path d="M1034.23,266.77l-4.58-8.89l36.8-18.95c-0.74-9.79-2.55-18.42-5.5-26.29c-19.77-52.76-76.95-88.21-142.3-88.21
		c-66.72,0-125.92,37.87-143.97,92.1c-2.56,7.7-4.2,15.19-4.88,22.33l34.88,17.51l-4.49,8.94l-40.8-20.49l0.18-3.27
		c0.5-8.97,2.39-18.45,5.62-28.17c9.33-28.04,29.48-53.27,56.73-71.04c27.98-18.25,61.43-27.9,96.73-27.9
		c69.49,0,130.44,38.06,151.66,94.7c3.63,9.7,5.7,20.33,6.32,32.5l0.16,3.22L1034.23,266.77z"/>
	<path d="M838.87,286.13l-41.32-21.54v-12.96c0-8.72,1.48-17.59,4.4-26.36c14.7-44.15,62.56-74.98,116.4-74.98
		c52.54,0,98.65,28.84,114.73,71.76c3.13,8.35,4.59,17.65,4.59,29.27v13.31l-37.65,19.98l-4.69-8.83l32.34-17.16v-7.29
		c0-10.38-1.26-18.57-3.95-25.76c-14.63-39.04-56.97-65.27-105.37-65.27c-49.59,0-93.55,28.02-106.91,68.14
		c-2.58,7.74-3.89,15.55-3.89,23.2v6.89l35.94,18.73L838.87,286.13z"/>
</g>
<g>
	<path d="M808.25,161.25h-10c0-2.62-1.28-10.08-2.11-12.29c-4.34-11.56-16.97-19.33-31.41-19.33c-15.06,0-28.34,8.29-32.3,20.15
		c-0.64,1.92-1.52,8.92-1.52,11.41h-10c0-2.83,0.88-11.12,2.03-14.57c5.3-15.89,22.49-26.99,41.79-26.99
		c18.59,0,34.97,10.37,40.77,25.81C806.86,149.07,808.25,157.69,808.25,161.25z"/>
	<path d="M835.66,137.4c-0.38-3.75-1.1-7.03-2.22-10.02c-9.5-25.36-37.08-42.4-68.63-42.4c-32.52,0-61.29,18.2-69.96,44.25
		c-0.91,2.74-1.58,5.2-2.04,7.54l-9.81-1.95c0.55-2.75,1.32-5.61,2.36-8.75c10.01-30.08,42.69-51.09,79.45-51.09
		c35.7,0,67.04,19.65,78,48.89c1.43,3.81,2.35,7.91,2.81,12.53L835.66,137.4z"/>
	<rect x="734.62" y="185.86" transform="matrix(8.399704e-03 -1 1 8.399704e-03 566.9619 953.467)" width="59.23" height="10"/>
	<path d="M616.7,120.15l-9.9-1.44c0.93-6.39,2.53-13.04,4.78-19.77c9.33-28.04,29.48-53.27,56.73-71.04
		C696.28,9.65,729.73,0,765.04,0c69.49,0,130.44,38.06,151.66,94.7c2.75,7.35,4.65,15.49,5.65,24.21l-9.94,1.13
		c-0.91-8.02-2.57-15.16-5.07-21.83C887.56,45.45,830.38,10,765.04,10c-66.72,0-125.92,37.87-143.97,92.1
		C619.01,108.27,617.54,114.34,616.7,120.15z"/>
	<path d="M873.31,124.52c-0.64-4.92-1.69-9.29-3.22-13.37c-14.63-39.04-56.97-65.27-105.36-65.27c-49.59,0-93.55,28.02-106.91,68.14
		c-1.15,3.46-2.06,6.98-2.7,10.48l-9.83-1.81c0.73-3.95,1.75-7.93,3.05-11.83c14.69-44.15,62.56-74.98,116.4-74.98
		c52.54,0,98.65,28.84,114.73,71.76c1.8,4.81,3.04,9.91,3.77,15.59L873.31,124.52z"/>
</g>
<g>
	<path d="M1223.23,326.37l-43.08-22.05v-33.43c0-3.66,1.13-7.04,2.03-9.76c5.3-15.93,22.49-27.06,41.79-27.06
		c18.59,0,34.98,10.4,40.78,25.88c1.38,3.68,1.57,7.38,1.57,10.84v33.59L1223.23,326.37z M1190.15,298.2l33.08,16.94l33.08-16.89
		v-27.47c0-2.91-0.16-5.27-0.93-7.33c-4.34-11.59-16.97-19.38-31.41-19.38c-15.06,0-28.34,8.31-32.3,20.22
		c-0.71,2.14-1.52,4.57-1.52,6.61V298.2z"/>
	<path d="M1183.31,305.54l-42.05-21.11v-25.85c0-5.42,1.09-11.34,3.34-18.09c10.01-30.08,42.68-51.09,79.45-51.09
		c35.7,0,67.04,19.65,78,48.89c2.16,5.76,3.16,12.14,3.16,20.09v26.1l-41.38,21.05l-4.54-8.91l35.91-18.27v-19.96
		c0-6.71-0.8-11.98-2.53-16.58c-9.5-25.36-37.08-42.4-68.63-42.4c-32.52,0-61.29,18.2-69.96,44.25c-1.9,5.71-2.83,10.59-2.83,14.93
		v19.68l36.54,18.34L1183.31,305.54z"/>
	<rect x="1200.94" y="293.21" transform="matrix(0.011 -0.9999 0.9999 0.011 911.7738 1518.3256)" width="45.08" height="10"/>
	<path d="M1339.85,266.77l-4.58-8.89l36.8-18.95c-0.74-9.79-2.55-18.42-5.5-26.29c-19.77-52.76-76.95-88.21-142.3-88.21
		c-66.72,0-125.92,37.87-143.97,92.1c-2.56,7.7-4.2,15.19-4.88,22.33l34.88,17.51l-4.49,8.94l-40.8-20.49l0.18-3.27
		c0.5-8.97,2.39-18.45,5.62-28.17c9.33-28.04,29.48-53.27,56.73-71.04c27.98-18.25,61.43-27.9,96.73-27.9
		c69.49,0,130.44,38.06,151.66,94.7c3.63,9.7,5.7,20.33,6.32,32.5l0.16,3.22L1339.85,266.77z"/>
	<path d="M1144.49,286.13l-41.32-21.54v-12.96c0-8.72,1.48-17.59,4.4-26.36c14.7-44.15,62.56-74.98,116.4-74.98
		c52.54,0,98.65,28.84,114.73,71.76c3.13,8.35,4.59,17.65,4.59,29.27v13.31l-37.65,19.98l-4.69-8.83l32.34-17.16v-7.29
		c0-10.38-1.25-18.57-3.95-25.76c-14.63-39.04-56.97-65.27-105.37-65.27c-49.59,0-93.55,28.02-106.91,68.14
		c-2.58,7.75-3.89,15.55-3.89,23.2v6.89l35.94,18.73L1144.49,286.13z"/>
</g>
<g>
	<path d="M1113.87,161.25h-10c0-2.62-1.28-10.08-2.11-12.29c-4.34-11.56-16.97-19.33-31.41-19.33c-15.06,0-28.34,8.29-32.3,20.15
		c-0.64,1.92-1.52,8.92-1.52,11.41h-10c0-3.2,0.95-11.33,2.03-14.57c5.3-15.89,22.49-26.99,41.79-26.99
		c18.59,0,34.97,10.37,40.78,25.81C1112.49,149.07,1113.87,157.69,1113.87,161.25z"/>
	<path d="M1141.28,137.4c-0.38-3.75-1.1-7.03-2.23-10.02c-9.5-25.36-37.08-42.4-68.63-42.4c-32.52,0-61.29,18.2-69.96,44.25
		c-0.91,2.73-1.58,5.2-2.04,7.54l-9.81-1.95c0.55-2.75,1.32-5.62,2.36-8.75c10.01-30.08,42.69-51.09,79.45-51.09
		c35.7,0,67.04,19.65,78,48.89c1.43,3.81,2.35,7.91,2.81,12.53L1141.28,137.4z"/>
	<rect x="1040.24" y="185.86" transform="matrix(8.399704e-03 -1 1 8.399704e-03 870.0197 1259.0812)" width="59.23" height="10"/>
	<path d="M922.32,120.15l-9.9-1.44c0.93-6.39,2.53-13.04,4.77-19.77c9.33-28.04,29.48-53.27,56.73-71.04
		C1001.91,9.65,1035.36,0,1070.66,0c69.49,0,130.44,38.06,151.66,94.7c2.79,7.45,4.64,15.37,5.65,24.21l-9.94,1.13
		c-0.91-8.02-2.57-15.16-5.08-21.83C1193.19,45.45,1136,10,1070.66,10c-66.72,0-125.92,37.87-143.97,92.1
		C924.64,108.27,923.17,114.34,922.32,120.15z"/>
	<path d="M1178.94,124.52c-0.64-4.92-1.69-9.29-3.22-13.37c-14.63-39.04-56.97-65.27-105.37-65.27
		c-49.59,0-93.55,28.02-106.91,68.14c-1.15,3.46-2.06,6.99-2.7,10.48l-9.83-1.81c0.73-3.95,1.75-7.93,3.05-11.83
		c14.7-44.15,62.56-74.98,116.4-74.98c52.54,0,98.65,28.84,114.73,71.76c1.8,4.8,3.03,9.9,3.77,15.59L1178.94,124.52z"/>
</g>
<g>
	<path d="M1528.85,326.37l-43.08-22.05v-33.43c0-3.66,1.13-7.05,2.03-9.76c5.3-15.93,22.49-27.06,41.79-27.06
		c18.59,0,34.98,10.4,40.78,25.88c1.38,3.68,1.57,7.38,1.57,10.84v33.59L1528.85,326.37z M1495.77,298.2l33.08,16.94l33.08-16.89
		v-27.47c0-2.91-0.16-5.27-0.93-7.33c-4.34-11.59-16.97-19.38-31.41-19.38c-15.06,0-28.34,8.31-32.3,20.22
		c-0.71,2.14-1.52,4.56-1.52,6.61V298.2z"/>
	<path d="M1488.93,305.54l-42.05-21.11v-25.85c0-5.43,1.09-11.34,3.34-18.09c10.01-30.08,42.68-51.09,79.45-51.09
		c35.7,0,67.04,19.65,78,48.89c2.16,5.76,3.16,12.14,3.16,20.09v26.1l-41.38,21.05l-4.54-8.91l35.91-18.27v-19.96
		c0-6.71-0.8-11.98-2.53-16.58c-9.5-25.36-37.08-42.4-68.63-42.4c-32.52,0-61.29,18.2-69.96,44.25c-1.9,5.71-2.82,10.59-2.82,14.93
		v19.68l36.54,18.34L1488.93,305.54z"/>
	<rect x="1506.56" y="293.21" transform="matrix(0.011 -0.9999 0.9999 0.011 1214.0248 1823.9323)" width="45.08" height="10"/>
	<path d="M1645.48,266.77l-4.58-8.89l36.8-18.95c-0.74-9.79-2.55-18.42-5.5-26.29c-19.77-52.76-76.95-88.21-142.3-88.21
		c-66.72,0-125.92,37.87-143.97,92.1c-2.56,7.7-4.2,15.19-4.88,22.33l34.88,17.51l-4.49,8.94l-40.8-20.49l0.18-3.27
		c0.5-8.98,2.39-18.46,5.62-28.17c9.33-28.04,29.48-53.27,56.73-71.04c27.98-18.25,61.43-27.9,96.73-27.9
		c69.49,0,130.44,38.06,151.66,94.7c3.63,9.7,5.7,20.33,6.32,32.5l0.16,3.22L1645.48,266.77z"/>
	<path d="M1450.12,286.13l-41.32-21.54v-12.96c0-8.72,1.48-17.59,4.4-26.36c14.7-44.15,62.56-74.98,116.4-74.98
		c52.54,0,98.65,28.84,114.73,71.76c3.13,8.35,4.59,17.65,4.59,29.27v13.31l-37.65,19.98l-4.69-8.83l32.34-17.16v-7.29
		c0-10.38-1.25-18.57-3.95-25.76c-14.63-39.04-56.97-65.27-105.36-65.27c-49.59,0-93.55,28.02-106.91,68.14
		c-2.58,7.74-3.89,15.55-3.89,23.2v6.89l35.94,18.73L1450.12,286.13z"/>
</g>
<g>
	<path d="M1419.5,161.25h-10c0-2.62-1.28-10.08-2.11-12.29c-4.34-11.56-16.97-19.33-31.41-19.33c-15.06,0-28.34,8.29-32.3,20.15
		c-0.64,1.92-1.52,8.92-1.52,11.41h-10c0-3.2,0.95-11.33,2.03-14.57c5.3-15.89,22.49-26.99,41.79-26.99
		c18.59,0,34.98,10.37,40.77,25.81C1418.11,149.07,1419.5,157.69,1419.5,161.25z"/>
	<path d="M1446.91,137.4c-0.38-3.75-1.1-7.03-2.23-10.02c-9.5-25.36-37.08-42.4-68.63-42.4c-32.52,0-61.29,18.2-69.96,44.25
		c-0.91,2.73-1.58,5.2-2.05,7.54l-9.81-1.95c0.55-2.75,1.32-5.62,2.36-8.75c10.01-30.08,42.68-51.09,79.45-51.09
		c35.7,0,67.04,19.65,78,48.89c1.43,3.81,2.35,7.91,2.81,12.53L1446.91,137.4z"/>
	<rect x="1345.87" y="185.86" transform="matrix(8.399704e-03 -1 1 8.399704e-03 1173.078 1564.6959)" width="59.23" height="10"/>
	<path d="M1227.95,120.15l-9.9-1.44c0.93-6.39,2.53-13.04,4.78-19.77c9.33-28.04,29.48-53.27,56.73-71.04
		C1307.53,9.65,1340.98,0,1376.29,0c69.49,0,130.44,38.06,151.66,94.7c2.75,7.35,4.65,15.49,5.65,24.21l-9.94,1.13
		c-0.91-8.02-2.57-15.16-5.07-21.83C1498.81,45.45,1441.63,10,1376.29,10c-66.72,0-125.92,37.87-143.97,92.1
		C1230.26,108.27,1228.79,114.34,1227.95,120.15z"/>
	<path d="M1484.56,124.52c-0.64-4.92-1.69-9.29-3.22-13.37c-14.63-39.04-56.97-65.27-105.37-65.27
		c-49.59,0-93.55,28.02-106.91,68.14c-1.15,3.46-2.06,6.99-2.7,10.48l-9.83-1.81c0.73-3.95,1.75-7.93,3.05-11.83
		c14.7-44.15,62.56-74.98,116.4-74.98c52.54,0,98.65,28.84,114.73,71.76c1.8,4.81,3.04,9.91,3.77,15.59L1484.56,124.52z"/>
</g>
<g>
	<path d="M1834.48,326.37l-43.08-22.05v-33.43c0-3.66,1.13-7.04,2.03-9.76c5.3-15.93,22.49-27.06,41.79-27.06
		c18.59,0,34.98,10.4,40.78,25.88c1.38,3.68,1.57,7.38,1.57,10.84v33.59L1834.48,326.37z M1801.4,298.2l33.08,16.94l33.08-16.89
		v-27.47c0-2.91-0.16-5.27-0.93-7.33c-4.34-11.59-16.97-19.38-31.41-19.38c-15.06,0-28.34,8.31-32.3,20.22
		c-0.71,2.14-1.52,4.57-1.52,6.61V298.2z"/>
	<path d="M1794.56,305.54l-42.05-21.11v-25.85c0-5.42,1.09-11.34,3.34-18.09c10.01-30.08,42.68-51.09,79.45-51.09
		c35.7,0,67.04,19.65,78,48.89c2.16,5.76,3.16,12.14,3.16,20.09v26.1l-41.38,21.05l-4.54-8.91l35.91-18.27v-19.96
		c0-6.71-0.8-11.98-2.53-16.58c-9.5-25.36-37.08-42.4-68.63-42.4c-32.52,0-61.29,18.2-69.96,44.25c-1.9,5.71-2.83,10.59-2.83,14.93
		v19.68l36.54,18.34L1794.56,305.54z"/>
	<rect x="1812.19" y="293.21" transform="matrix(0.011 -0.9999 0.9999 0.011 1516.2759 2129.5388)" width="45.08" height="10"/>
	<path d="M1951.11,266.77l-4.58-8.89l36.8-18.95c-0.74-9.79-2.55-18.42-5.5-26.29c-19.77-52.76-76.95-88.21-142.3-88.21
		c-66.72,0-125.92,37.87-143.97,92.1c-2.56,7.7-4.2,15.19-4.88,22.33l34.88,17.51l-4.49,8.94l-40.8-20.49l0.18-3.27
		c0.5-8.97,2.39-18.45,5.62-28.17c9.33-28.04,29.48-53.27,56.73-71.04c27.98-18.25,61.43-27.9,96.73-27.9
		c69.49,0,130.44,38.06,151.66,94.7c3.63,9.7,5.7,20.33,6.32,32.5l0.16,3.22L1951.11,266.77z"/>
	<path d="M1755.74,286.13l-41.32-21.54v-12.96c0-8.72,1.48-17.59,4.4-26.36c14.7-44.15,62.56-74.98,116.4-74.98
		c52.54,0,98.65,28.84,114.73,71.76c3.13,8.35,4.59,17.65,4.59,29.27v13.31l-37.65,19.98l-4.69-8.83l32.34-17.16v-7.29
		c0-10.38-1.25-18.57-3.95-25.76c-14.63-39.04-56.97-65.27-105.37-65.27c-49.59,0-93.55,28.02-106.91,68.14
		c-2.58,7.75-3.89,15.55-3.89,23.2v6.89l35.94,18.73L1755.74,286.13z"/>
</g>
<g>
	<path d="M1725.12,161.25h-10c0-2.62-1.28-10.08-2.11-12.29c-4.34-11.56-16.97-19.33-31.41-19.33c-15.06,0-28.34,8.29-32.3,20.15
		c-0.64,1.92-1.52,8.92-1.52,11.41h-10c0-3.2,0.95-11.33,2.03-14.57c5.3-15.89,22.49-26.99,41.79-26.99
		c18.59,0,34.97,10.37,40.78,25.81C1723.74,149.07,1725.12,157.69,1725.12,161.25z"/>
	<path d="M1752.53,137.4c-0.38-3.75-1.1-7.03-2.22-10.02c-9.5-25.36-37.08-42.4-68.63-42.4c-32.52,0-61.29,18.2-69.96,44.25
		c-0.91,2.74-1.58,5.2-2.04,7.54l-9.81-1.95c0.55-2.75,1.32-5.61,2.36-8.75c10.01-30.08,42.68-51.09,79.45-51.09
		c35.7,0,67.04,19.65,78,48.89c1.43,3.81,2.35,7.91,2.81,12.53L1752.53,137.4z"/>
	<rect x="1651.5" y="185.86" transform="matrix(8.399704e-03 -1 1 8.399704e-03 1476.1359 1870.3102)" width="59.23" height="10"/>
	<path d="M1533.57,120.15l-9.9-1.44c0.93-6.39,2.54-13.04,4.78-19.77c9.33-28.04,29.48-53.27,56.73-71.04
		C1613.16,9.65,1646.61,0,1681.91,0c69.49,0,130.44,38.06,151.66,94.7c2.75,7.35,4.65,15.49,5.65,24.21l-9.94,1.13
		c-0.91-8.02-2.57-15.16-5.08-21.83C1804.44,45.45,1747.25,10,1681.91,10c-66.72,0-125.92,37.87-143.97,92.1
		C1535.89,108.27,1534.42,114.34,1533.57,120.15z"/>
	<path d="M1790.19,124.52c-0.64-4.92-1.69-9.29-3.22-13.37c-14.63-39.04-56.97-65.27-105.37-65.27
		c-49.59,0-93.55,28.02-106.91,68.14c-1.15,3.46-2.06,6.99-2.7,10.48l-9.83-1.81c0.73-3.95,1.75-7.93,3.05-11.83
		c14.7-44.15,62.56-74.98,116.4-74.98c52.54,0,98.65,28.84,114.73,71.76c1.8,4.81,3.04,9.91,3.77,15.59L1790.19,124.52z"/>
</g>
<g>
	<path d="M2140.1,326.37l-43.08-22.05v-33.43c0-3.66,1.13-7.05,2.03-9.76c5.3-15.93,22.49-27.06,41.79-27.06
		c18.59,0,34.98,10.4,40.78,25.88c1.38,3.68,1.57,7.38,1.57,10.84v33.59L2140.1,326.37z M2107.02,298.2l33.08,16.94l33.08-16.89
		v-27.47c0-2.91-0.16-5.27-0.93-7.34c-4.34-11.59-16.97-19.38-31.41-19.38c-15.06,0-28.34,8.31-32.3,20.22
		c-0.71,2.14-1.52,4.56-1.52,6.61V298.2z"/>
	<path d="M2100.19,305.54l-42.05-21.11v-25.85c0-5.43,1.09-11.34,3.34-18.09c10.01-30.08,42.69-51.09,79.45-51.09
		c35.7,0,67.04,19.65,78,48.89c2.16,5.76,3.16,12.14,3.16,20.09v26.1l-41.38,21.05l-4.54-8.91l35.91-18.27v-19.96
		c0-6.71-0.8-11.98-2.53-16.58c-9.5-25.36-37.08-42.4-68.63-42.4c-32.52,0-61.29,18.2-69.96,44.25c-1.9,5.71-2.82,10.59-2.82,14.93
		v19.68l36.54,18.34L2100.19,305.54z"/>
	<rect x="2117.81" y="293.21" transform="matrix(0.011 -0.9999 0.9999 0.011 1818.5283 2435.146)" width="45.08" height="10"/>
	<path d="M2256.73,266.77l-4.58-8.89l36.79-18.95c-0.74-9.79-2.55-18.42-5.5-26.29c-19.77-52.76-76.95-88.21-142.3-88.21
		c-66.72,0-125.92,37.87-143.97,92.1c-2.56,7.7-4.2,15.19-4.88,22.33l34.88,17.51l-4.49,8.94l-40.8-20.49l0.18-3.27
		c0.5-8.98,2.39-18.46,5.62-28.17c9.33-28.04,29.48-53.27,56.73-71.04c27.98-18.25,61.43-27.9,96.73-27.9
		c69.49,0,130.44,38.06,151.66,94.7c3.63,9.7,5.7,20.33,6.32,32.5l0.17,3.22L2256.73,266.77z"/>
	<path d="M2061.37,286.13l-41.32-21.54v-12.96c0-8.72,1.48-17.59,4.4-26.36c14.7-44.15,62.56-74.98,116.4-74.98
		c52.54,0,98.65,28.84,114.73,71.76c3.13,8.35,4.59,17.65,4.59,29.27v13.31l-37.65,19.98l-4.69-8.83l32.34-17.16v-7.29
		c0-10.38-1.25-18.57-3.95-25.76c-14.63-39.04-56.97-65.27-105.36-65.27c-49.59,0-93.55,28.02-106.91,68.14
		c-2.58,7.74-3.89,15.55-3.89,23.2v6.89l35.94,18.73L2061.37,286.13z"/>
</g>
<g>
	<path d="M2030.75,161.25h-10c0-2.62-1.28-10.08-2.11-12.29c-4.34-11.56-16.97-19.33-31.41-19.33c-15.06,0-28.34,8.29-32.3,20.15
		c-0.64,1.92-1.52,8.92-1.52,11.41h-10c0-3.2,0.95-11.33,2.03-14.57c5.3-15.89,22.49-26.99,41.79-26.99
		c18.59,0,34.97,10.37,40.78,25.81C2029.36,149.07,2030.75,157.69,2030.75,161.25z"/>
	<path d="M2058.16,137.4c-0.38-3.75-1.1-7.03-2.23-10.02c-9.5-25.36-37.08-42.4-68.63-42.4c-32.52,0-61.29,18.2-69.96,44.25
		c-0.91,2.73-1.58,5.2-2.04,7.54l-9.81-1.95c0.55-2.75,1.32-5.62,2.36-8.75c10.01-30.08,42.68-51.09,79.45-51.09
		c35.7,0,67.04,19.65,78,48.89c1.43,3.81,2.35,7.91,2.81,12.53L2058.16,137.4z"/>
	<rect x="1957.12" y="185.86" transform="matrix(8.399704e-03 -1 1 8.399704e-03 1779.1941 2175.9248)" width="59.23" height="10"/>
	<path d="M1839.2,120.15l-9.9-1.44c0.93-6.39,2.53-13.04,4.77-19.77c9.33-28.04,29.48-53.27,56.73-71.04
		C1918.78,9.65,1952.23,0,1987.54,0c69.49,0,130.44,38.06,151.66,94.7c2.79,7.45,4.64,15.37,5.65,24.21l-9.94,1.13
		c-0.91-8.02-2.57-15.16-5.08-21.83C2110.06,45.45,2052.88,10,1987.54,10c-66.72,0-125.92,37.87-143.97,92.1
		C1841.51,108.27,1840.04,114.34,1839.2,120.15z"/>
	<path d="M2095.81,124.52c-0.64-4.92-1.69-9.29-3.22-13.37c-14.63-39.04-56.97-65.27-105.37-65.27
		c-49.59,0-93.55,28.02-106.91,68.14c-1.15,3.46-2.06,6.99-2.7,10.48l-9.83-1.81c0.73-3.95,1.75-7.93,3.05-11.83
		c14.7-44.15,62.56-74.98,116.4-74.98c52.54,0,98.65,28.84,114.73,71.76c1.8,4.81,3.03,9.91,3.77,15.59L2095.81,124.52z"/>
</g>
<g>
	<path d="M2445.73,326.37l-43.08-22.05v-33.43c0-3.66,1.13-7.05,2.03-9.76c5.3-15.93,22.49-27.06,41.79-27.06
		c18.59,0,34.98,10.4,40.78,25.88c1.38,3.68,1.57,7.38,1.57,10.84v33.59L2445.73,326.37z M2412.65,298.2l33.08,16.94l33.08-16.89
		v-27.47c0-2.91-0.16-5.27-0.93-7.33c-4.34-11.59-16.97-19.38-31.41-19.38c-15.06,0-28.34,8.31-32.3,20.22
		c-0.71,2.14-1.52,4.56-1.52,6.61V298.2z"/>
	<path d="M2405.81,305.54l-42.05-21.11v-25.85c0-5.42,1.09-11.34,3.34-18.09c10.01-30.08,42.69-51.09,79.45-51.09
		c35.7,0,67.04,19.65,78,48.89c2.16,5.76,3.16,12.14,3.16,20.09v26.1l-41.38,21.05l-4.54-8.91l35.91-18.27v-19.96
		c0-6.71-0.8-11.98-2.53-16.58c-9.5-25.36-37.08-42.4-68.63-42.4c-32.52,0-61.29,18.2-69.96,44.25c-1.9,5.71-2.82,10.59-2.82,14.93
		v19.68l36.54,18.34L2405.81,305.54z"/>
	<rect x="2423.44" y="293.21" transform="matrix(0.011 -0.9999 0.9999 0.011 2120.7808 2740.7527)" width="45.08" height="10"/>
	<path d="M2562.36,266.77l-4.58-8.89l36.79-18.95c-0.74-9.79-2.55-18.42-5.5-26.29c-19.77-52.76-76.95-88.21-142.3-88.21
		c-66.72,0-125.92,37.87-143.97,92.1c-2.56,7.7-4.2,15.19-4.88,22.33l34.88,17.51l-4.49,8.94l-40.8-20.49l0.18-3.27
		c0.5-8.98,2.39-18.46,5.62-28.17c9.33-28.04,29.48-53.27,56.73-71.04c27.98-18.25,61.43-27.9,96.73-27.9
		c69.49,0,130.44,38.06,151.66,94.7c3.63,9.7,5.7,20.33,6.32,32.5l0.17,3.22L2562.36,266.77z"/>
	<path d="M2366.99,286.13l-41.32-21.54v-12.96c0-8.72,1.48-17.59,4.4-26.36c14.7-44.15,62.56-74.98,116.4-74.98
		c52.54,0,98.65,28.84,114.73,71.76c3.13,8.35,4.59,17.65,4.59,29.27v13.31l-37.65,19.98l-4.69-8.83l32.34-17.16v-7.29
		c0-10.39-1.25-18.57-3.95-25.76c-14.63-39.04-56.97-65.27-105.37-65.27c-49.59,0-93.55,28.02-106.91,68.14
		c-2.58,7.75-3.89,15.55-3.89,23.2v6.89l35.94,18.73L2366.99,286.13z"/>
</g>
<g>
	<path d="M2336.37,161.25h-10c0-2.62-1.28-10.09-2.11-12.29c-4.34-11.56-16.97-19.33-31.41-19.33c-15.06,0-28.34,8.29-32.3,20.15
		c-0.64,1.92-1.52,8.92-1.52,11.41h-10c0-2.83,0.88-11.12,2.03-14.57c5.3-15.89,22.49-26.99,41.79-26.99
		c18.59,0,34.98,10.37,40.78,25.81C2334.99,149.07,2336.37,157.69,2336.37,161.25z"/>
	<path d="M2363.78,137.4c-0.37-3.75-1.1-7.03-2.22-10.02c-9.5-25.36-37.08-42.4-68.63-42.4c-32.52,0-61.29,18.2-69.96,44.25
		c-0.91,2.73-1.58,5.2-2.04,7.54l-9.81-1.95c0.55-2.76,1.32-5.62,2.36-8.75c10.01-30.08,42.68-51.09,79.45-51.09
		c35.7,0,67.04,19.65,78,48.89c1.43,3.81,2.35,7.91,2.81,12.53L2363.78,137.4z"/>
	<rect x="2262.75" y="185.86" transform="matrix(8.399704e-03 -1 1 8.399704e-03 2082.2522 2481.5393)" width="59.23" height="10"/>
	<path d="M2144.82,120.15l-9.9-1.44c0.93-6.38,2.53-13.03,4.77-19.77c9.33-28.04,29.48-53.27,56.73-71.04
		C2224.41,9.65,2257.86,0,2293.16,0c69.49,0,130.44,38.06,151.66,94.7c2.79,7.45,4.64,15.37,5.65,24.21l-9.94,1.13
		c-0.92-8.02-2.58-15.16-5.08-21.83C2415.69,45.45,2358.51,10,2293.16,10c-66.72,0-125.92,37.87-143.97,92.1
		C2147.14,108.27,2145.67,114.35,2144.82,120.15z"/>
	<path d="M2401.44,124.52c-0.64-4.92-1.69-9.3-3.22-13.37c-14.63-39.04-56.97-65.27-105.37-65.27c-49.59,0-93.55,28.02-106.91,68.14
		c-1.15,3.46-2.06,6.98-2.71,10.48l-9.83-1.81c0.73-3.95,1.75-7.93,3.05-11.83c14.7-44.15,62.56-74.98,116.4-74.98
		c52.54,0,98.65,28.84,114.73,71.76c1.8,4.8,3.03,9.9,3.77,15.59L2401.44,124.52z"/>
</g>
<g>
	<path d="M2751.35,326.37l-43.08-22.05v-33.43c0-3.66,1.13-7.05,2.03-9.76c5.3-15.93,22.49-27.06,41.79-27.06
		c18.59,0,34.98,10.4,40.78,25.88c1.38,3.68,1.57,7.38,1.57,10.84v33.59L2751.35,326.37z M2718.27,298.2l33.08,16.94l33.08-16.89
		v-27.47c0-2.91-0.16-5.27-0.93-7.33c-4.34-11.59-16.97-19.38-31.41-19.38c-15.05,0-28.34,8.31-32.3,20.22
		c-0.71,2.14-1.52,4.56-1.52,6.61V298.2z"/>
	<path d="M2711.44,305.54l-42.05-21.11v-25.85c0-5.43,1.09-11.34,3.34-18.09c10.01-30.08,42.68-51.09,79.45-51.09
		c35.7,0,67.04,19.65,78,48.89c2.16,5.76,3.16,12.14,3.16,20.09v26.1l-41.38,21.05l-4.54-8.91l35.91-18.27v-19.96
		c0-6.71-0.8-11.98-2.53-16.58c-9.5-25.36-37.08-42.4-68.63-42.4c-32.52,0-61.29,18.2-69.96,44.25c-1.9,5.71-2.83,10.59-2.83,14.93
		v19.68l36.54,18.34L2711.44,305.54z"/>
	<rect x="2729.06" y="293.21" transform="matrix(0.011 -0.9999 0.9999 0.011 2423.032 3046.3591)" width="45.08" height="10"/>
	<path d="M2867.98,266.77l-4.58-8.89l36.79-18.95c-0.74-9.79-2.55-18.42-5.5-26.29c-19.77-52.76-76.95-88.21-142.3-88.21
		c-66.72,0-125.92,37.87-143.97,92.1c-2.56,7.7-4.2,15.2-4.88,22.33l34.88,17.51l-4.49,8.94l-40.8-20.49l0.18-3.27
		c0.5-8.97,2.39-18.45,5.62-28.17c9.33-28.04,29.48-53.27,56.73-71.04c27.98-18.25,61.43-27.9,96.73-27.9
		c69.49,0,130.44,38.06,151.66,94.7c3.63,9.7,5.7,20.33,6.32,32.5l0.17,3.22L2867.98,266.77z"/>
	<path d="M2672.62,286.13l-41.32-21.54v-12.96c0-8.72,1.48-17.59,4.4-26.36c14.7-44.15,62.56-74.98,116.4-74.98
		c52.54,0,98.65,28.84,114.73,71.76c3.13,8.35,4.58,17.65,4.58,29.27v13.31l-37.65,19.98l-4.69-8.83l32.34-17.16v-7.29
		c0-10.39-1.25-18.57-3.95-25.76c-14.63-39.04-56.97-65.27-105.37-65.27c-49.59,0-93.55,28.02-106.91,68.14
		c-2.58,7.75-3.88,15.55-3.88,23.2v6.89l35.94,18.73L2672.62,286.13z"/>
</g>
<g>
	<path d="M2642,161.25h-10c0-2.62-1.28-10.08-2.11-12.29c-4.34-11.56-16.97-19.33-31.41-19.33c-15.06,0-28.34,8.29-32.3,20.15
		c-0.64,1.92-1.52,8.92-1.52,11.41h-10c0-2.83,0.88-11.12,2.03-14.57c5.3-15.89,22.49-26.99,41.79-26.99
		c18.59,0,34.97,10.37,40.77,25.81C2640.61,149.07,2642,157.69,2642,161.25z"/>
	<path d="M2669.41,137.4c-0.37-3.75-1.1-7.03-2.22-10.02c-9.5-25.36-37.08-42.4-68.63-42.4c-32.52,0-61.29,18.2-69.96,44.25
		c-0.91,2.74-1.58,5.2-2.04,7.54l-9.81-1.95c0.55-2.75,1.32-5.61,2.36-8.75c10.01-30.08,42.68-51.09,79.45-51.09
		c35.7,0,67.04,19.65,78,48.89c1.43,3.81,2.35,7.91,2.81,12.53L2669.41,137.4z"/>
	<rect x="2568.37" y="185.86" transform="matrix(8.399704e-03 -1 1 8.399704e-03 2385.3105 2787.1541)" width="59.23" height="10"/>
	<path d="M2450.45,120.15l-9.9-1.44c0.93-6.39,2.54-13.04,4.78-19.77c9.33-28.04,29.48-53.27,56.73-71.04
		C2530.03,9.65,2563.48,0,2598.79,0c69.49,0,130.44,38.06,151.66,94.7c2.75,7.35,4.65,15.49,5.65,24.21l-9.94,1.13
		c-0.91-8.02-2.57-15.16-5.08-21.83C2721.31,45.45,2664.13,10,2598.79,10c-66.72,0-125.92,37.87-143.97,92.1
		C2452.76,108.27,2451.29,114.34,2450.45,120.15z"/>
	<path d="M2707.06,124.52c-0.64-4.92-1.69-9.29-3.22-13.37c-14.63-39.04-56.97-65.27-105.37-65.27
		c-49.59,0-93.55,28.02-106.91,68.14c-1.15,3.46-2.06,6.99-2.7,10.48l-9.84-1.81c0.73-3.95,1.75-7.93,3.05-11.83
		c14.7-44.15,62.56-74.98,116.4-74.98c52.54,0,98.65,28.84,114.73,71.76c1.8,4.81,3.04,9.91,3.77,15.59L2707.06,124.52z"/>
</g>
<g>
	<path d="M3056.98,326.37l-43.08-22.05v-33.43c0-3.66,1.13-7.04,2.03-9.76c5.3-15.93,22.49-27.06,41.79-27.06
		c18.59,0,34.98,10.4,40.78,25.88c1.38,3.68,1.57,7.38,1.57,10.84v33.59L3056.98,326.37z M3023.9,298.2l33.08,16.94l33.08-16.89
		v-27.47c0-2.91-0.16-5.27-0.93-7.34c-4.34-11.59-16.97-19.38-31.41-19.38c-15.06,0-28.34,8.31-32.3,20.22
		c-0.71,2.14-1.52,4.57-1.52,6.61V298.2z"/>
	<path d="M3017.06,305.54l-42.05-21.11v-25.85c0-5.42,1.09-11.34,3.34-18.09c10.01-30.08,42.69-51.09,79.45-51.09
		c35.7,0,67.04,19.65,78,48.89c2.16,5.76,3.16,12.14,3.16,20.09v26.1l-41.38,21.05l-4.54-8.91l35.91-18.27v-19.96
		c0-6.71-0.8-11.98-2.53-16.58c-9.5-25.36-37.08-42.4-68.63-42.4c-32.52,0-61.29,18.2-69.96,44.25c-1.9,5.71-2.83,10.6-2.83,14.93
		v19.68l36.54,18.34L3017.06,305.54z"/>
	<rect x="3034.69" y="293.21" transform="matrix(0.011 -0.9999 0.9999 0.011 2725.2834 3351.9661)" width="45.08" height="10"/>
	<path d="M3173.61,266.77l-4.58-8.89l36.79-18.95c-0.74-9.79-2.55-18.42-5.5-26.29c-19.77-52.76-76.95-88.21-142.3-88.21
		c-66.72,0-125.92,37.87-143.97,92.1c-2.56,7.7-4.2,15.19-4.88,22.33l34.88,17.51l-4.49,8.94l-40.8-20.49l0.18-3.27
		c0.5-8.98,2.39-18.46,5.62-28.17c9.33-28.04,29.48-53.27,56.73-71.04c27.98-18.25,61.43-27.9,96.73-27.9
		c69.49,0,130.44,38.06,151.66,94.7c3.63,9.7,5.7,20.33,6.32,32.5l0.17,3.22L3173.61,266.77z"/>
	<path d="M2978.24,286.13l-41.32-21.54v-12.96c0-8.72,1.48-17.59,4.4-26.36c14.7-44.15,62.56-74.98,116.4-74.98
		c52.54,0,98.65,28.84,114.73,71.76c3.13,8.35,4.59,17.65,4.59,29.27v13.31l-37.65,19.98l-4.69-8.83l32.34-17.16v-7.29
		c0-10.38-1.25-18.57-3.95-25.76c-14.63-39.04-56.97-65.27-105.37-65.27c-49.59,0-93.55,28.02-106.91,68.14
		c-2.58,7.74-3.89,15.55-3.89,23.2v6.89l35.94,18.73L2978.24,286.13z"/>
</g>
<g>
	<path d="M2947.62,161.25h-10c0-2.62-1.28-10.08-2.11-12.29c-4.34-11.56-16.97-19.32-31.41-19.32c-15.06,0-28.34,8.29-32.3,20.15
		c-0.64,1.92-1.52,8.92-1.52,11.41h-10c0-3.2,0.95-11.33,2.03-14.57c5.3-15.89,22.49-26.99,41.79-26.99
		c18.59,0,34.97,10.37,40.78,25.81C2946.24,149.07,2947.62,157.7,2947.62,161.25z"/>
	<path d="M2975.04,137.4c-0.38-3.75-1.1-7.03-2.23-10.02c-9.5-25.36-37.08-42.4-68.63-42.4c-32.52,0-61.29,18.2-69.96,44.25
		c-0.91,2.74-1.58,5.2-2.04,7.54l-9.81-1.95c0.55-2.75,1.32-5.61,2.36-8.75c10.01-30.08,42.69-51.09,79.45-51.09
		c35.7,0,67.04,19.65,78,48.89c1.43,3.81,2.35,7.91,2.81,12.53L2975.04,137.4z"/>
	<rect x="2874" y="185.86" transform="matrix(8.399704e-03 -1 1 8.399704e-03 2688.3684 3092.7683)" width="59.23" height="10"/>
	<path d="M2756.07,120.15l-9.9-1.44c0.93-6.39,2.54-13.04,4.78-19.77c9.33-28.04,29.48-53.27,56.73-71.04
		C2835.66,9.65,2869.11,0,2904.41,0c69.49,0,130.44,38.06,151.66,94.7c2.75,7.35,4.65,15.49,5.65,24.21l-9.94,1.13
		c-0.91-8.02-2.57-15.16-5.08-21.83C3026.94,45.45,2969.76,10,2904.41,10c-66.72,0-125.92,37.87-143.97,92.1
		C2758.39,108.27,2756.92,114.34,2756.07,120.15z"/>
	<path d="M3012.69,124.52c-0.64-4.92-1.69-9.29-3.22-13.37c-14.63-39.04-56.97-65.27-105.37-65.27
		c-49.59,0-93.55,28.02-106.91,68.14c-1.15,3.46-2.06,6.99-2.7,10.48l-9.84-1.81c0.73-3.95,1.75-7.93,3.05-11.83
		c14.7-44.15,62.56-74.98,116.4-74.98c52.54,0,98.65,28.84,114.73,71.76c1.8,4.81,3.04,9.91,3.77,15.59L3012.69,124.52z"/>
</g>
<g>
	<path d="M3362.6,326.37l-43.08-22.05v-33.43c0-3.66,1.13-7.04,2.03-9.76c5.3-15.93,22.49-27.06,41.79-27.06
		c18.59,0,34.98,10.4,40.78,25.88c1.38,3.67,1.57,7.38,1.57,10.84v33.59L3362.6,326.37z M3329.52,298.2l33.08,16.94l33.08-16.89
		v-27.47c0-2.91-0.16-5.27-0.93-7.33c-4.35-11.59-16.97-19.38-31.41-19.38c-15.06,0-28.34,8.31-32.3,20.22
		c-0.71,2.14-1.52,4.56-1.52,6.61V298.2z"/>
	<path d="M3322.69,305.54l-42.05-21.11v-25.85c0-5.42,1.09-11.34,3.34-18.09c10.01-30.08,42.69-51.09,79.45-51.09
		c35.7,0,67.04,19.65,78,48.89c2.16,5.76,3.16,12.14,3.16,20.09v26.1l-41.38,21.05l-4.54-8.91l35.91-18.27v-19.96
		c0-6.71-0.8-11.98-2.53-16.58c-9.5-25.36-37.08-42.4-68.63-42.4c-32.52,0-61.29,18.2-69.96,44.25c-1.9,5.71-2.82,10.59-2.82,14.93
		v19.68l36.54,18.34L3322.69,305.54z"/>
	<rect x="3340.31" y="293.21" transform="matrix(0.011 -0.9999 0.9999 0.011 3027.5352 3657.5728)" width="45.08" height="10"/>
	<path d="M3479.23,266.77l-4.58-8.89l36.79-18.95c-0.74-9.79-2.55-18.42-5.5-26.29c-19.77-52.76-76.95-88.21-142.3-88.21
		c-66.72,0-125.92,37.87-143.97,92.1c-2.56,7.7-4.2,15.19-4.88,22.33l34.88,17.51l-4.49,8.94l-40.8-20.49l0.18-3.27
		c0.5-8.98,2.39-18.46,5.62-28.17c9.33-28.04,29.48-53.27,56.73-71.04c27.98-18.25,61.43-27.9,96.73-27.9
		c69.49,0,130.44,38.06,151.66,94.7c3.63,9.69,5.7,20.32,6.32,32.5l0.17,3.22L3479.23,266.77z"/>
	<path d="M3283.87,286.13l-41.32-21.54v-12.96c0-8.72,1.48-17.59,4.4-26.36c14.7-44.15,62.56-74.98,116.4-74.98
		c52.54,0,98.65,28.84,114.73,71.76c3.13,8.35,4.59,17.65,4.59,29.27v13.31l-37.65,19.98l-4.69-8.83l32.34-17.16v-7.29
		c0-10.38-1.25-18.57-3.95-25.76c-14.63-39.04-56.97-65.27-105.36-65.27c-49.59,0-93.56,28.02-106.91,68.14
		c-2.58,7.74-3.89,15.55-3.89,23.2v6.89l35.94,18.73L3283.87,286.13z"/>
</g>
<g>
	<path d="M3253.25,161.25h-10c0-2.62-1.28-10.09-2.11-12.29c-4.34-11.56-16.97-19.33-31.41-19.33c-15.06,0-28.34,8.29-32.3,20.15
		c-0.64,1.92-1.52,8.92-1.52,11.41h-10c0-2.83,0.88-11.12,2.03-14.57c5.3-15.89,22.49-26.99,41.79-26.99
		c18.59,0,34.98,10.37,40.78,25.81C3251.86,149.07,3253.25,157.69,3253.25,161.25z"/>
	<path d="M3280.66,137.4c-0.37-3.75-1.1-7.02-2.22-10.02c-9.5-25.36-37.08-42.4-68.63-42.4c-32.52,0-61.29,18.2-69.96,44.25
		c-0.91,2.73-1.58,5.2-2.05,7.54l-9.81-1.95c0.55-2.76,1.32-5.62,2.36-8.75c10.01-30.08,42.68-51.09,79.45-51.09
		c35.7,0,67.04,19.65,78,48.89c1.43,3.82,2.35,7.92,2.81,12.53L3280.66,137.4z"/>
	<rect x="3179.62" y="185.86" transform="matrix(8.399704e-03 -1 1 8.399704e-03 2991.4268 3398.3831)" width="59.23" height="10"/>
	<path d="M3061.7,120.15l-9.9-1.44c0.93-6.39,2.54-13.04,4.78-19.77c9.33-28.04,29.48-53.27,56.73-71.04
		C3141.29,9.65,3174.73,0,3210.04,0c69.49,0,130.44,38.06,151.66,94.7c2.79,7.45,4.64,15.37,5.65,24.21l-9.94,1.13
		c-0.92-8.02-2.58-15.16-5.08-21.83C3332.57,45.45,3275.38,10,3210.04,10c-66.72,0-125.92,37.87-143.97,92.1
		C3064.01,108.27,3062.54,114.34,3061.7,120.15z"/>
	<path d="M3318.31,124.52c-0.64-4.92-1.69-9.29-3.22-13.37c-14.63-39.04-56.97-65.27-105.36-65.27
		c-49.59,0-93.55,28.02-106.91,68.14c-1.15,3.46-2.06,6.98-2.7,10.48l-9.83-1.81c0.73-3.95,1.75-7.93,3.05-11.83
		c14.7-44.15,62.56-74.98,116.4-74.98c52.54,0,98.65,28.84,114.73,71.76c1.8,4.81,3.04,9.91,3.77,15.59L3318.31,124.52z"/>
</g>
<g>
	<path d="M3668.23,326.37l-43.08-22.05v-33.43c0-3.66,1.13-7.05,2.03-9.76c5.3-15.93,22.49-27.06,41.79-27.06
		c18.59,0,34.98,10.4,40.78,25.88c1.38,3.68,1.57,7.38,1.57,10.84v33.59L3668.23,326.37z M3635.15,298.2l33.08,16.94l33.08-16.89
		v-27.47c0-2.91-0.16-5.27-0.93-7.33c-4.34-11.59-16.97-19.38-31.41-19.38c-15.05,0-28.34,8.31-32.3,20.22
		c-0.71,2.14-1.52,4.56-1.52,6.61V298.2z"/>
	<path d="M3628.31,305.54l-42.05-21.11v-25.85c0-5.43,1.09-11.34,3.34-18.09c10.01-30.08,42.68-51.09,79.45-51.09
		c35.7,0,67.04,19.65,78,48.89c2.16,5.76,3.16,12.14,3.16,20.09v26.1l-41.38,21.05l-4.54-8.91l35.91-18.27v-19.96
		c0-6.71-0.8-11.98-2.53-16.58c-9.5-25.36-37.08-42.4-68.63-42.4c-32.52,0-61.29,18.2-69.96,44.25c-1.9,5.71-2.83,10.59-2.83,14.93
		v19.68l36.54,18.34L3628.31,305.54z"/>
	<rect x="3645.94" y="293.21" transform="matrix(0.011 -0.9999 0.9999 0.011 3329.7861 3963.1792)" width="45.08" height="10"/>
	<path d="M3784.86,266.77l-4.58-8.89l36.79-18.95c-0.74-9.79-2.55-18.42-5.5-26.29c-19.77-52.76-76.95-88.21-142.3-88.21
		c-66.72,0-125.92,37.87-143.97,92.1c-2.56,7.7-4.2,15.2-4.88,22.33l34.88,17.51l-4.49,8.94l-40.8-20.49l0.18-3.27
		c0.5-8.97,2.39-18.45,5.62-28.17c9.33-28.04,29.48-53.27,56.73-71.04c27.98-18.25,61.43-27.9,96.73-27.9
		c69.49,0,130.44,38.06,151.66,94.7c3.63,9.7,5.7,20.33,6.32,32.5l0.17,3.22L3784.86,266.77z"/>
	<path d="M3589.5,286.13l-41.32-21.54v-12.96c0-8.72,1.48-17.59,4.4-26.36c14.7-44.15,62.56-74.98,116.4-74.98
		c52.54,0,98.65,28.84,114.73,71.76c3.13,8.35,4.59,17.65,4.59,29.27v13.31l-37.65,19.98l-4.69-8.83l32.34-17.16v-7.29
		c0-10.39-1.25-18.57-3.95-25.76c-14.63-39.04-56.97-65.27-105.37-65.27c-49.59,0-93.55,28.02-106.91,68.14
		c-2.58,7.75-3.88,15.55-3.88,23.2v6.89l35.94,18.73L3589.5,286.13z"/>
</g>
<g>
	<path d="M3558.87,161.25h-10c0-2.62-1.28-10.08-2.11-12.29c-4.34-11.56-16.97-19.33-31.41-19.33c-15.06,0-28.34,8.29-32.3,20.15
		c-0.64,1.92-1.52,8.92-1.52,11.41h-10c0-2.83,0.88-11.12,2.03-14.57c5.3-15.89,22.49-26.99,41.79-26.99
		c18.59,0,34.97,10.37,40.77,25.81C3557.49,149.07,3558.87,157.69,3558.87,161.25z"/>
	<path d="M3586.28,137.4c-0.37-3.75-1.1-7.03-2.22-10.02c-9.5-25.36-37.08-42.4-68.63-42.4c-32.52,0-61.29,18.2-69.96,44.25
		c-0.91,2.74-1.58,5.2-2.04,7.54l-9.81-1.95c0.55-2.75,1.32-5.61,2.36-8.75c10.01-30.08,42.68-51.09,79.45-51.09
		c35.7,0,67.04,19.65,78,48.89c1.43,3.81,2.35,7.91,2.81,12.53L3586.28,137.4z"/>
	<rect x="3485.25" y="185.86" transform="matrix(8.399704e-03 -1 1 8.399704e-03 3294.4851 3703.9976)" width="59.23" height="10"/>
	<path d="M3367.33,120.15l-9.9-1.44c0.93-6.39,2.54-13.04,4.78-19.77c9.33-28.04,29.48-53.27,56.73-71.04
		C3446.91,9.65,3480.36,0,3515.66,0c69.49,0,130.44,38.06,151.66,94.7c2.79,7.45,4.64,15.37,5.65,24.21l-9.94,1.13
		c-0.91-8.02-2.57-15.16-5.08-21.83C3638.19,45.45,3581.01,10,3515.66,10c-66.72,0-125.92,37.87-143.97,92.1
		C3369.64,108.27,3368.17,114.34,3367.33,120.15z"/>
	<path d="M3623.94,124.52c-0.64-4.92-1.69-9.29-3.22-13.37c-14.63-39.04-56.97-65.27-105.37-65.27
		c-49.59,0-93.55,28.02-106.91,68.14c-1.15,3.46-2.06,6.99-2.7,10.48l-9.84-1.81c0.73-3.95,1.75-7.93,3.05-11.83
		c14.7-44.15,62.56-74.98,116.4-74.98c52.54,0,98.65,28.84,114.73,71.76c1.8,4.81,3.04,9.91,3.77,15.59L3623.94,124.52z"/>
</g>
<g>
	<path d="M3973.85,326.37l-43.08-22.05v-33.43c0-3.66,1.13-7.05,2.03-9.76c5.3-15.93,22.49-27.06,41.79-27.06
		c18.59,0,34.98,10.4,40.78,25.88c1.38,3.68,1.57,7.38,1.57,10.84v33.59L3973.85,326.37z M3940.77,298.2l33.08,16.94l33.08-16.89
		v-27.47c0-2.91-0.16-5.27-0.93-7.33c-4.34-11.59-16.97-19.38-31.41-19.38c-15.06,0-28.34,8.31-32.3,20.22
		c-0.71,2.14-1.52,4.56-1.52,6.61V298.2z"/>
	<path d="M3933.94,305.54l-42.05-21.11v-25.85c0-5.43,1.09-11.34,3.34-18.09c10.01-30.08,42.68-51.09,79.45-51.09
		c35.7,0,67.04,19.65,78,48.89c2.16,5.76,3.16,12.14,3.16,20.09v26.1l-41.38,21.05l-4.54-8.91l35.91-18.27v-19.96
		c0-6.71-0.8-11.98-2.53-16.58c-9.5-25.36-37.08-42.4-68.63-42.4c-32.52,0-61.29,18.2-69.96,44.25c-1.9,5.71-2.83,10.59-2.83,14.93
		v19.68l36.54,18.34L3933.94,305.54z"/>
	<rect x="3951.56" y="293.21" transform="matrix(0.011 -0.9999 0.9999 0.011 3632.0378 4268.7861)" width="45.08" height="10"/>
	<path d="M4090.48,266.77l-4.58-8.89l36.79-18.95c-0.74-9.79-2.55-18.42-5.5-26.29c-19.77-52.76-76.95-88.21-142.3-88.21
		c-66.72,0-125.92,37.87-143.97,92.1c-2.56,7.7-4.2,15.19-4.88,22.33l34.88,17.51l-4.49,8.94l-40.8-20.49l0.18-3.27
		c0.5-8.98,2.39-18.46,5.62-28.17c9.33-28.04,29.48-53.27,56.73-71.04c27.98-18.25,61.43-27.9,96.73-27.9
		c69.49,0,130.44,38.06,151.66,94.7c3.63,9.7,5.7,20.33,6.32,32.5l0.17,3.22L4090.48,266.77z"/>
	<path d="M3895.12,286.13l-41.32-21.54v-12.96c0-8.72,1.48-17.59,4.4-26.36c14.7-44.15,62.56-74.98,116.4-74.98
		c52.54,0,98.65,28.84,114.73,71.76c3.13,8.35,4.58,17.65,4.58,29.27v13.31l-37.65,19.98l-4.69-8.83l32.34-17.16v-7.29
		c0-10.38-1.25-18.57-3.95-25.76c-14.63-39.04-56.97-65.27-105.37-65.27c-49.59,0-93.55,28.02-106.91,68.14
		c-2.58,7.74-3.89,15.55-3.89,23.2v6.89l35.94,18.73L3895.12,286.13z"/>
</g>
<g>
	<path d="M3864.5,161.25h-10c0-2.62-1.28-10.08-2.11-12.29c-4.34-11.56-16.97-19.32-31.41-19.32c-15.06,0-28.34,8.29-32.3,20.15
		c-0.64,1.92-1.52,8.92-1.52,11.41h-10c0-3.19,0.95-11.33,2.03-14.57c5.3-15.89,22.49-26.99,41.79-26.99
		c18.59,0,34.97,10.37,40.78,25.81C3863.11,149.07,3864.5,157.7,3864.5,161.25z"/>
	<path d="M3891.91,137.4c-0.38-3.75-1.1-7.03-2.23-10.02c-9.5-25.36-37.08-42.4-68.63-42.4c-32.52,0-61.29,18.2-69.96,44.25
		c-0.91,2.74-1.58,5.2-2.04,7.54l-9.81-1.95c0.55-2.75,1.32-5.61,2.36-8.75c10.01-30.08,42.69-51.09,79.45-51.09
		c35.7,0,67.04,19.65,78,48.89c1.43,3.81,2.35,7.91,2.81,12.53L3891.91,137.4z"/>
	<rect x="3790.87" y="185.86" transform="matrix(8.399704e-03 -1 1 8.399704e-03 3597.543 4009.6118)" width="59.23" height="10"/>
	<path d="M3672.95,120.15l-9.9-1.44c0.93-6.39,2.54-13.04,4.78-19.77c9.33-28.04,29.48-53.27,56.73-71.04
		C3752.54,9.65,3785.99,0,3821.29,0c69.49,0,130.44,38.06,151.66,94.7c2.75,7.35,4.65,15.49,5.65,24.21l-9.94,1.13
		c-0.91-8.02-2.57-15.16-5.08-21.83C3943.82,45.45,3886.63,10,3821.29,10c-66.72,0-125.92,37.87-143.97,92.1
		C3675.26,108.27,3673.79,114.34,3672.95,120.15z"/>
	<path d="M3929.57,124.52c-0.64-4.92-1.69-9.29-3.22-13.37c-14.63-39.04-56.97-65.27-105.37-65.27
		c-49.59,0-93.55,28.02-106.91,68.14c-1.15,3.46-2.06,6.99-2.7,10.48l-9.84-1.81c0.73-3.95,1.75-7.93,3.05-11.83
		c14.7-44.15,62.56-74.98,116.4-74.98c52.54,0,98.65,28.84,114.73,71.76c1.8,4.81,3.04,9.91,3.77,15.59L3929.57,124.52z"/>
</g>
<g>
	<path d="M4279.48,326.37l-43.08-22.05v-33.43c0-3.66,1.13-7.04,2.03-9.76c5.3-15.93,22.49-27.06,41.79-27.06
		c18.59,0,34.98,10.4,40.78,25.88c1.38,3.68,1.57,7.38,1.57,10.84v33.59L4279.48,326.37z M4246.4,298.2l33.08,16.94l33.08-16.89
		v-27.47c0-2.91-0.16-5.27-0.93-7.34c-4.35-11.59-16.97-19.38-31.41-19.38c-15.06,0-28.34,8.31-32.3,20.22
		c-0.71,2.14-1.52,4.56-1.52,6.61V298.2z"/>
	<path d="M4239.56,305.54l-42.05-21.11v-25.85c0-5.42,1.09-11.34,3.34-18.09c10.01-30.08,42.69-51.09,79.45-51.09
		c35.7,0,67.04,19.65,78,48.89c2.16,5.76,3.16,12.14,3.16,20.09v26.1l-41.38,21.05l-4.54-8.91l35.91-18.27v-19.96
		c0-6.71-0.8-11.98-2.53-16.58c-9.5-25.36-37.08-42.4-68.63-42.4c-32.52,0-61.29,18.2-69.96,44.25c-1.9,5.71-2.83,10.6-2.83,14.93
		v19.68l36.54,18.34L4239.56,305.54z"/>
	<rect x="4257.19" y="293.21" transform="matrix(0.011 -0.9999 0.9999 0.011 3934.2888 4574.3926)" width="45.08" height="10"/>
	<path d="M4396.11,266.77l-4.58-8.89l36.79-18.95c-0.74-9.79-2.55-18.42-5.5-26.29c-19.77-52.76-76.95-88.21-142.3-88.21
		c-66.72,0-125.92,37.87-143.97,92.1c-2.56,7.7-4.2,15.19-4.88,22.33l34.88,17.51l-4.49,8.94l-40.8-20.49l0.18-3.27
		c0.5-8.98,2.39-18.46,5.62-28.17c9.33-28.04,29.48-53.27,56.73-71.04c27.98-18.25,61.43-27.9,96.73-27.9
		c69.49,0,130.44,38.06,151.66,94.7c3.63,9.69,5.7,20.32,6.32,32.5l0.17,3.22L4396.11,266.77z"/>
	<path d="M4200.75,286.13l-41.32-21.54v-12.96c0-8.72,1.48-17.59,4.4-26.36c14.7-44.15,62.56-74.98,116.4-74.98
		c52.54,0,98.65,28.84,114.73,71.76c3.13,8.35,4.59,17.65,4.59,29.27v13.31l-37.65,19.98l-4.69-8.83l32.34-17.16v-7.29
		c0-10.38-1.25-18.57-3.95-25.76c-14.63-39.04-56.97-65.27-105.37-65.27c-49.59,0-93.55,28.02-106.91,68.14
		c-2.58,7.74-3.89,15.55-3.89,23.2v6.89l35.94,18.73L4200.75,286.13z"/>
</g>
<g>
	<path d="M4170.12,161.25h-10c0-2.62-1.28-10.09-2.11-12.29c-4.34-11.56-16.97-19.33-31.41-19.33c-15.06,0-28.34,8.29-32.3,20.15
		c-0.64,1.92-1.52,8.92-1.52,11.41h-10c0-2.83,0.88-11.12,2.03-14.57c5.3-15.89,22.49-26.99,41.78-26.99
		c18.59,0,34.98,10.37,40.78,25.81C4168.74,149.07,4170.12,157.69,4170.12,161.25z"/>
	<path d="M4197.54,137.4c-0.38-3.75-1.1-7.03-2.23-10.02c-9.5-25.36-37.08-42.4-68.63-42.4c-32.52,0-61.29,18.2-69.96,44.25
		c-0.91,2.73-1.58,5.2-2.04,7.54l-9.81-1.95c0.55-2.76,1.32-5.62,2.36-8.75c10.01-30.08,42.69-51.09,79.45-51.09
		c35.7,0,67.04,19.65,78,48.89c1.43,3.81,2.35,7.91,2.81,12.53L4197.54,137.4z"/>
	<rect x="4096.5" y="185.86" transform="matrix(8.399704e-03 -1 1 8.399704e-03 3900.6013 4315.2266)" width="59.23" height="10"/>
	<path d="M3978.58,120.15l-9.9-1.44c0.93-6.39,2.54-13.04,4.78-19.77c9.33-28.04,29.48-53.27,56.73-71.04
		C4058.16,9.65,4091.61,0,4126.91,0c69.49,0,130.44,38.06,151.66,94.7c2.75,7.35,4.65,15.49,5.65,24.21l-9.94,1.13
		c-0.91-8.02-2.57-15.16-5.08-21.83C4249.44,45.45,4192.26,10,4126.91,10c-66.72,0-125.92,37.87-143.97,92.1
		C3980.89,108.27,3979.42,114.34,3978.58,120.15z"/>
	<path d="M4235.19,124.52c-0.64-4.92-1.69-9.29-3.22-13.37c-14.63-39.04-56.97-65.27-105.36-65.27
		c-49.59,0-93.55,28.02-106.91,68.14c-1.15,3.46-2.06,6.98-2.71,10.48l-9.83-1.81c0.73-3.95,1.75-7.93,3.05-11.83
		c14.7-44.15,62.56-74.98,116.4-74.98c52.54,0,98.65,28.84,114.73,71.76c1.8,4.81,3.04,9.91,3.77,15.59L4235.19,124.52z"/>
</g>
</svg>
