<?xml version="1.0" encoding="utf-8"?>
<!-- Generator: Adobe Illustrator 26.5.0, SVG Export Plug-In . SVG Version: 6.00 Build 0)  -->
<svg version="1.1" xmlns="http://www.w3.org/2000/svg" xmlns:xlink="http://www.w3.org/1999/xlink" x="0px" y="0px"
	 viewBox="0 0 352.26 352.26" style="enable-background:new 0 0 352.26 352.26;" xml:space="preserve">
<path d="M249.08,0H103.17L0,103.17v145.91l103.17,103.17h145.91l103.17-103.17V103.17L249.08,0z M338.77,169.39h-13v-55.24
	l-38.05-38.05l9.19-9.19l41.86,41.86V169.39z M35.47,182.87h48.24v78.71l-0.27-0.27l-10.52,10.52l-37.44-37.44V182.87z
	 M263.61,81.68h-80.74V35.47h51.52l37.44,37.44l-8.49,8.49L263.61,81.68z M219.46,261.59h-36.59V248.5h36.59V261.59z M136.85,90.67
	h32.54v13.08h-32.54V90.67z M219.46,103.76h-36.59V90.67h36.59V103.76z M241.54,125.83h-13.08v-13.08h13.08V125.83z M241.54,134.82
	v34.57h-58.67v-56.64h36.59v22.07H241.54z M219.46,217.44v22.07h-36.59v-56.64h58.67v34.57H219.46z M241.54,226.43v13.08h-13.08
	v-13.08H241.54z M114.77,226.43h13.08v13.08h-13.08V226.43z M114.77,217.44v-34.57h54.61v56.64h-32.54v-22.07H114.77z
	 M136.85,134.82v-22.07h32.54v56.64h-54.61v-34.57H136.85z M114.77,125.83v-13.08h13.08v13.08H114.77z M127.86,103.76h-22.07v22.07
	H92.7V90.67h35.16V103.76z M105.78,134.82v34.57H92.7v-34.57H105.78z M105.78,182.87v34.57H92.7v-34.57H105.78z M92.7,226.43h13.08
	v22.07h22.07v13.08H92.7V226.43z M136.85,248.5h32.54v13.08h-32.54V248.5z M228.45,248.5h22.07v-22.07h13.08v35.16h-35.16V248.5z
	 M250.53,217.44v-34.57h13.08v34.57H250.53z M250.53,169.39v-34.57h13.08v34.57H250.53z M263.61,125.83h-13.08v-22.07h-22.07V90.67
	h35.16V125.83z M169.39,81.68H92.7l0.27-0.27L82.45,70.89l35.42-35.42h51.52V81.68z M83.44,90.94l0.27-0.27v78.71H35.47v-51.52
	l37.44-37.44L83.44,90.94z M92.97,270.85l-0.27-0.27h76.69v46.21h-51.52l-35.42-35.42L92.97,270.85z M182.87,270.58h80.74
	l-0.27,0.27l8.49,8.49l-37.44,37.44h-51.52V270.58z M272.88,261.31l-0.27,0.27v-78.71h44.18v51.52l-35.42,35.42L272.88,261.31z
	 M272.6,169.39V90.67l0.27,0.27l8.49-8.49l35.42,35.42v51.52H272.6z M287.38,57.37l-9.19,9.19l-40.08-40.08h-55.24v-13h60.63
	L287.38,57.37z M108.76,13.49h60.63v13h-55.24L76.09,64.53l-9.19-9.19L108.76,13.49z M57.37,64.88l9.19,9.19l-40.08,40.08v55.24h-13
	v-60.63L57.37,64.88z M13.49,182.87h13v55.24l40.08,40.08l-9.19,9.19L13.49,243.5V182.87z M66.9,296.92l9.19-9.19l38.05,38.05h55.24
	v13h-60.63L66.9,296.92z M243.5,338.77h-60.63v-13h55.24l40.08-40.08l9.19,9.19L243.5,338.77z M296.92,285.35l-9.19-9.19
	l38.05-38.05v-55.24h13v60.63L296.92,285.35z"/>
</svg>
