<?xml version="1.0" encoding="utf-8"?>
<!-- Generator: Adobe Illustrator 26.5.0, SVG Export Plug-In . SVG Version: 6.00 Build 0)  -->
<svg version="1.1" id="Ñëîé_1" xmlns="http://www.w3.org/2000/svg" xmlns:xlink="http://www.w3.org/1999/xlink" x="0px" y="0px"
	 viewBox="0 0 425.2 708.66" style="enable-background:new 0 0 425.2 708.66;" xml:space="preserve">
<style type="text/css">
	.st0{fill:url(#SVGID_1_);}
	.st1{fill:url(#SVGID_00000165935021621771711810000017212084863387299219_);}
</style>
<polygon points="106.3,44.28 106.3,38.69 56.73,0 49.56,0 106.29,44.29 "/>
<polygon points="106.3,44.28 106.3,44.28 163.03,0 155.87,0 106.3,38.69 "/>
<polygon points="318.9,44.28 318.9,38.69 269.33,0 262.16,0 318.89,44.29 "/>
<polygon points="318.9,44.28 318.9,44.28 375.63,0 368.47,0 318.9,38.69 "/>
<polygon points="106.3,132.86 106.3,127.28 0,44.29 0,49.89 106.29,132.87 "/>
<polygon points="212.6,44.29 106.3,127.28 106.3,132.86 106.3,132.87 212.59,49.88 318.89,132.87 318.9,132.86 318.9,127.28 "/>
<polygon points="318.9,132.86 318.9,132.87 425.19,49.88 425.2,49.89 425.2,44.29 318.9,127.28 "/>
<polygon points="106.3,221.45 106.3,215.86 0,132.87 0,138.47 106.29,221.45 "/>
<polygon points="212.6,132.87 106.3,215.86 106.3,221.45 106.3,221.45 212.59,138.46 318.89,221.45 318.9,221.45 318.9,215.86 "/>
<polygon points="318.9,221.45 318.9,221.45 425.19,138.46 425.2,138.47 425.2,132.87 318.9,215.86 "/>
<polygon points="106.3,310.03 106.3,304.44 0,221.45 0,227.05 106.29,310.03 "/>
<polygon points="212.6,221.45 106.3,304.44 106.3,310.03 106.3,310.03 212.59,227.05 318.89,310.03 318.9,310.03 318.9,304.44 "/>
<polygon points="318.9,310.03 318.9,310.03 425.19,227.05 425.2,227.05 425.2,221.45 318.9,304.44 "/>
<polygon points="106.3,398.61 106.3,393.02 0,310.03 0,315.63 106.29,398.62 "/>
<polygon points="212.6,310.03 106.3,393.02 106.3,398.61 106.3,398.61 212.59,315.63 318.89,398.62 318.9,398.61 318.9,393.02 "/>
<polygon points="318.9,398.61 318.9,398.61 425.19,315.63 425.2,315.63 425.2,310.03 318.9,393.02 "/>
<polygon points="106.3,487.19 106.3,481.6 0,398.62 0,404.21 106.29,487.2 "/>
<polygon points="212.6,398.62 106.3,481.6 106.3,487.19 106.3,487.2 212.59,404.21 318.89,487.2 318.9,487.19 318.9,481.6 "/>
<polygon points="318.9,487.19 318.9,487.2 425.19,404.21 425.2,404.22 425.2,398.62 318.9,481.6 "/>
<polygon points="106.3,575.78 106.3,570.19 0,487.2 0,492.8 106.29,575.78 "/>
<polygon points="212.6,487.2 106.3,570.19 106.3,575.78 106.3,575.78 212.59,492.79 318.89,575.78 318.9,575.78 318.9,570.19 "/>
<polygon points="318.9,575.78 318.9,575.78 425.19,492.79 425.2,492.8 425.2,487.2 318.9,570.19 "/>
<polygon points="106.3,664.36 106.3,658.77 0,575.78 0,581.38 106.29,664.36 "/>
<polygon points="212.6,575.78 106.3,658.77 106.3,664.36 106.3,664.36 212.59,581.37 318.89,664.36 318.9,664.36 318.9,658.77 "/>
<polygon points="318.9,664.36 318.9,664.36 425.19,581.37 425.2,581.38 425.2,575.78 318.9,658.77 "/>
<polygon points="56.74,708.66 0,664.36 0,669.96 49.57,708.66 "/>
<polygon points="155.86,708.66 163.02,708.66 212.59,669.96 262.16,708.66 269.33,708.66 212.6,664.36 "/>
<polygon points="375.62,708.66 425.19,669.96 425.2,669.96 425.2,664.36 368.46,708.66 "/>
<linearGradient id="SVGID_1_" gradientUnits="userSpaceOnUse" x1="1204.7461" y1="354.3305" x2="1275.5997" y2="354.3305">
	<stop  offset="0" style="stop-color:#FFFFFF"/>
	<stop  offset="0.2237" style="stop-color:#FCFCFC"/>
	<stop  offset="0.3904" style="stop-color:#F2F2F2"/>
	<stop  offset="0.5387" style="stop-color:#E2E2E2"/>
	<stop  offset="0.6763" style="stop-color:#CCCCCC"/>
	<stop  offset="0.8064" style="stop-color:#AEAEAE"/>
	<stop  offset="0.9294" style="stop-color:#8B8B8B"/>
	<stop  offset="1" style="stop-color:#737373"/>
</linearGradient>
<rect x="1204.75" y="0" class="st0" width="70.85" height="708.66"/>
<linearGradient id="SVGID_00000019652161684815021980000009823716424980942271_" gradientUnits="userSpaceOnUse" x1="1629.9523" y1="354.3305" x2="1700.8057" y2="354.3305">
	<stop  offset="0" style="stop-color:#FFFFFF"/>
	<stop  offset="0.2237" style="stop-color:#FCFCFC"/>
	<stop  offset="0.3904" style="stop-color:#F2F2F2"/>
	<stop  offset="0.5387" style="stop-color:#E2E2E2"/>
	<stop  offset="0.6763" style="stop-color:#CCCCCC"/>
	<stop  offset="0.8064" style="stop-color:#AEAEAE"/>
	<stop  offset="0.9294" style="stop-color:#8B8B8B"/>
	<stop  offset="1" style="stop-color:#737373"/>
</linearGradient>
<rect x="1629.95" y="0" style="fill:url(#SVGID_00000019652161684815021980000009823716424980942271_);" width="70.85" height="708.66"/>
</svg>
