<?xml version="1.0" encoding="utf-8"?>
<!-- Generator: Adobe Illustrator 26.5.0, SVG Export Plug-In . SVG Version: 6.00 Build 0)  -->
<svg version="1.1" id="Ñëîé_1" xmlns="http://www.w3.org/2000/svg" xmlns:xlink="http://www.w3.org/1999/xlink" x="0px" y="0px"
	 viewBox="0 0 14.67 14.12" style="enable-background:new 0 0 14.67 14.12;" xml:space="preserve">
<path d="M1.92,0H0v1.89C1.06,1.89,1.92,1.04,1.92,0z"/>
<path d="M-10.9-12.62c1.06,0,1.92-0.85,1.92-1.89h-3.84C-12.82-13.47-11.96-12.62-10.9-12.62z"/>
<path d="M7.34,8.95c1.06,0,1.92-0.85,1.92-1.89S8.39,5.17,7.34,5.17S5.41,6.02,5.41,7.06S6.28,8.95,7.34,8.95z"/>
<path d="M-23.15-0.88c0-1.05-0.86-1.89-1.92-1.89v3.78C-24.01,1.01-23.15,0.16-23.15-0.88z"/>
<path d="M-10.9,1.01c1.06,0,1.92-0.85,1.92-1.89c0-1.05-0.86-1.89-1.92-1.89s-1.92,0.85-1.92,1.89S-11.96,1.01-10.9,1.01z"/>
<path d="M14.67,1.92V0h-1.89C12.78,1.06,13.63,1.92,14.67,1.92z"/>
<path d="M12.75,14.12h1.92v-1.89C13.61,12.23,12.75,13.08,12.75,14.12z"/>
<path d="M0,12.2v1.92h1.89C1.89,13.06,1.04,12.2,0,12.2z"/>
</svg>
