<?xml version="1.0" encoding="utf-8"?>
<!-- Generator: Adobe Illustrator 26.5.0, SVG Export Plug-In . SVG Version: 6.00 Build 0)  -->
<svg version="1.1" id="_x3C_Layer_x3E_" xmlns="http://www.w3.org/2000/svg" xmlns:xlink="http://www.w3.org/1999/xlink" x="0px"
	 y="0px" viewBox="0 0 2085.12 1992.96" style="enable-background:new 0 0 2085.12 1992.96;" xml:space="preserve">
<style type="text/css">
	.st0{fill:#231F20;}
	.st1{fill:#FFFFFF;}
</style>
<path class="st0" d="M474.55,616.96c2.25,0,4.53-1.05,5.98-3.04c2.47-3.31,1.76-7.99-1.54-10.43L212.35,406.2
	c-3.26-2.45-7.96-1.75-10.44,1.57c-2.45,3.31-1.74,7.99,1.57,10.44l266.61,197.29C471.44,616.49,473.01,616.96,474.55,616.96z"/>
<path class="st0" d="M321.8,1902.53c0.98,0,1.96-0.29,2.84-0.88l200.45-139.96c2.23-1.54,2.77-4.63,1.2-6.84
	c-1.54-2.18-4.61-2.74-6.86-1.2l-200.48,139.98c-2.21,1.54-2.77,4.61-1.18,6.81C318.72,1901.8,320.24,1902.53,321.8,1902.53z"/>
<path class="st0" d="M1786.02,583.4c1,0,2.06-0.26,2.99-0.8l230.91-128.76c2.99-1.68,4.07-5.46,2.4-8.45c-1.67-3-5.44-4.1-8.45-2.4
	l-230.88,128.76c-2.99,1.68-4.07,5.45-2.4,8.45C1781.7,582.23,1783.81,583.4,1786.02,583.4z"/>
<path class="st0" d="M1881.7,1661.87c1.35,0,2.7-0.56,3.67-1.64c1.84-2.03,1.69-5.17-0.37-7.01l-219.59-198.34
	c-2.01-1.86-5.15-1.72-7.01,0.37c-1.81,2.03-1.67,5.15,0.37,6.98l219.61,198.34C1879.32,1661.46,1880.5,1661.87,1881.7,1661.87z"/>
<path class="st0" d="M1635.43,415.21c3.63,0,6.81-2.65,7.35-6.33l6.08-39.2l48.54-5.92l3.7-44.84l42.12-5.13
	c4.09-0.5,6.98-4.23,6.49-8.32s-4.19-6.93-8.31-6.52l-54.17,6.62l-3.7,44.84l-47.71,5.82l-7.77,50.39c-0.64,4.07,2.16,7.89,6.25,8.5
	C1634.67,415.19,1635.06,415.21,1635.43,415.21z"/>
<path class="st0" d="M60.54,1052.99c3.09,1.9,7.18,1.32,9.6-1.51l25.75-30.17l44.4,20.47l26.71-36.21l38.54,17.76
	c3.77,1.74,8.21,0.1,9.92-3.65c1.72-3.71,0.1-8.26-3.65-9.91l-49.59-22.85l-26.73,36.23l-43.61-20.13l-33.1,38.77
	c-2.65,3.15-2.3,7.85,0.83,10.51C59.9,1052.57,60.22,1052.79,60.54,1052.99z"/>
<path class="st0" d="M779.89,237.67c0.51,0,1.05-0.05,1.57-0.16c4.02-0.87,6.62-4.84,5.73-8.87l-11.42-53.39l-44.99,0.31
	l-10.05-46.98l-50.87-3.27c-4.51-0.4-7.64,2.88-7.94,6.97c-0.24,4.12,2.87,7.67,6.98,7.93l39.57,2.55l10.24,47.82l45.01-0.29
	l8.87,41.49C773.35,235.27,776.44,237.67,779.89,237.67z"/>
<path class="st0" d="M775.87,1950.92c2.43,2.7,6.47,3.28,9.6,1.3c3.48-2.28,4.46-6.88,2.21-10.34l-21.51-33.3l32.29-36.7
	l-27.03-35.94l28.03-31.85c2.72-3.11,2.38-7.91-0.66-10.56c-3.09-2.7-7.84-2.43-10.54,0.69l-36.07,40.97l27.03,35.97l-31.75,36.07
	l27.69,42.78C775.38,1950.33,775.63,1950.65,775.87,1950.92z"/>
<g>
	<path class="st1" d="M1933.74,1347.07l-77.06-77.38l109.18,2.89l9.11,0.22c11.12,4.8,12.4,26.76,2.77,49.08
		c-9.6,22.3-26.44,36.46-37.56,31.66L1933.74,1347.07z"/>
	<path class="st0" d="M1938.03,1358.49l-94.68-94.55l131.77,3.5l1.98,0.44c14.31,6.15,16.71,30.28,5.56,56.13
		C1971.55,1349.84,1952.34,1364.64,1938.03,1358.49z M1869.98,1275.4l73.14,73.48c7.45,1.94,21.27-9.6,29.7-29.13
		c8.4-19.5,7.3-37.54,0.78-41.58L1869.98,1275.4z"/>
</g>
<g>
	<g>
		<path class="st1" d="M227.69,810.8L77.99,833.73c12.79-6.48,25.26-25.86,31-50.56c5.76-24.69,3.11-47.58-5.51-59.04L227.69,810.8z
			"/>
		<path class="st0" d="M98.1,718.94c2.55-2.62,6.64-3.03,9.63-0.93l124.23,86.65c5,3.52,2.92,12.56-3.14,13.51L79.09,841.11
			c-3.6,0.55-7.08-1.62-8.21-5.1c-1.1-3.47,0.44-7.29,3.75-8.94c9.29-4.7,21.29-20.63,27.1-45.57c5.81-24.96,2.06-44.54-4.21-52.86
			c-1.37-1.83-1.79-4.09-1.32-6.19C96.51,721.17,97.15,719.95,98.1,718.94z M100.18,822.77l107.93-16.54l-89.55-62.47
			c1.84,12.14,1.1,26.39-2.3,41.11C112.83,799.58,107.17,812.7,100.18,822.77z"/>
	</g>
	<g>
		<path class="st1" d="M103.47,724.13c8.62,11.46,11.27,34.35,5.51,59.04c-5.73,24.7-18.21,44.08-31,50.56l-12.5,1.9
			c-16.39-3.81-23.5-33.47-15.85-66.25c7.62-32.78,27.1-56.27,43.49-52.46L103.47,724.13z"/>
		<path class="st0" d="M94.79,709.65l12.94,8.35l1.69,1.64c10.39,13.75,12.99,38.74,6.84,65.22c-6.15,26.47-19.53,47.74-34.92,55.52
			l-14.73,2.62l-2.82-0.12c-21.05-4.9-30.28-37.23-21.44-75.22C51.18,729.71,73.75,704.75,94.79,709.65z M75.58,826.54
			c9.16-5.29,20.53-20.95,26.14-45.05c5.59-24.11,2.3-43.18-3.6-51.98L90.21,724c-10.61-0.82-26.66,18.35-33.32,47.06
			c-6.69,28.7-0.76,53,9.16,56.94L75.58,826.54z"/>
	</g>
</g>
<path class="st0" d="M1079.06,1870.66c0-18.23,14.82-33.05,33.05-33.05c18.23,0,33.05,14.82,33.05,33.05s-14.82,33.05-33.05,33.05
	C1093.89,1903.71,1079.06,1888.88,1079.06,1870.66z M1091.85,1870.66c0,11.17,9.09,20.26,20.26,20.26
	c11.17,0,20.26-9.09,20.26-20.26c0-11.2-9.09-20.26-20.26-20.26C1100.94,1850.39,1091.85,1859.46,1091.85,1870.66z"/>
<path class="st0" d="M1759.63,1421.61c0-18.21,14.82-33.05,33.05-33.05c18.23,0,33.05,14.85,33.05,33.05
	c0,18.23-14.82,33.05-33.05,33.05C1774.45,1454.66,1759.63,1439.84,1759.63,1421.61z M1772.42,1421.61
	c0,11.2,9.12,20.29,20.26,20.29c11.17,0,20.26-9.09,20.26-20.29c0-11.17-9.09-20.26-20.26-20.26
	C1781.53,1401.34,1772.42,1410.43,1772.42,1421.61z"/>
<path class="st0" d="M235.56,1258.45c0-18.23,14.82-33.05,33.05-33.05s33.05,14.82,33.05,33.05s-14.82,33.05-33.05,33.05
	S235.56,1276.68,235.56,1258.45z M248.35,1258.45c0,11.2,9.07,20.26,20.26,20.26c11.17,0,20.26-9.07,20.26-20.26
	c0-11.17-9.09-20.26-20.26-20.26C257.41,1238.19,248.35,1247.28,248.35,1258.45z"/>
<path class="st0" d="M552.64,405.92c0-18.23,14.82-33.05,33.05-33.05c18.23,0,33.05,14.82,33.05,33.05
	c0,18.23-14.82,33.05-33.05,33.05C567.46,438.97,552.64,424.15,552.64,405.92z M565.43,405.92c0,11.19,9.09,20.26,20.26,20.26
	c11.17,0,20.26-9.08,20.26-20.26c0-11.19-9.09-20.26-20.26-20.26C574.52,385.65,565.43,394.73,565.43,405.92z"/>
<path class="st0" d="M367.5,1690.2c18.23,0,33.05-14.82,33.05-33.05s-14.82-33.05-33.05-33.05c-18.23,0-33.05,14.82-33.05,33.05
	S349.27,1690.2,367.5,1690.2z"/>
<path class="st1" d="M367.5,1636.88c11.2,0,20.26,9.09,20.26,20.26c0,11.2-9.07,20.26-20.26,20.26c-11.17,0-20.26-9.07-20.26-20.26
	C347.24,1645.97,356.33,1636.88,367.5,1636.88z"/>
<path class="st0" d="M1344.66,277.32c0-18.23,14.82-33.05,33.05-33.05s33.08,14.82,33.08,33.05s-14.85,33.05-33.08,33.05
	S1344.66,295.55,1344.66,277.32z M1357.45,277.32c0,11.18,9.09,20.26,20.26,20.26s20.29-9.08,20.29-20.26
	c0-11.19-9.11-20.26-20.29-20.26S1357.45,266.13,1357.45,277.32z"/>
<path class="st0" d="M1861.9,791.34c0.98,0,1.98-0.2,2.94-0.6l111.97-47.99c3.8-1.63,5.56-6.02,3.92-9.8
	c-1.64-3.8-6.05-5.5-9.8-3.92l-111.97,47.99c-3.8,1.62-5.56,6-3.92,9.8C1856.24,789.65,1859.01,791.34,1861.9,791.34z"/>
<g>
	<g>
		<polygon class="st1" points="2001.09,957.56 1919.31,968.17 1953.9,1024.38 2039.81,1011.71 		"/>
		<path d="M2045.59,1014.16c-0.86,2.02-2.69,3.44-4.88,3.75l-85.9,12.68c-2.5,0.39-4.95-0.76-6.27-2.9l-34.57-56.18
			c-1.13-1.83-1.25-4.09-0.34-6.03c0.93-1.91,2.77-3.26,4.88-3.52l81.76-10.62c2.3-0.32,4.58,0.67,5.93,2.57l38.74,54.15
			c0.56,0.82,0.96,1.79,1.1,2.77C2046.18,1011.93,2046.03,1013.1,2045.59,1014.16z M1929.77,973.18l27.29,44.36l71.62-10.56
			l-30.53-42.69L1929.77,973.18z"/>
	</g>
	<g>
		<polygon class="st1" points="1953.9,1024.38 1935.18,1087.16 2018.29,1075.37 2039.81,1011.71 		"/>
		<path d="M2045.76,1013.72l-21.54,63.66c-0.76,2.25-2.7,3.87-5.07,4.21l-83.09,11.76c-2.11,0.32-4.24-0.47-5.63-2.11
			c-1.42-1.62-1.89-3.85-1.27-5.9l18.72-62.75c0.69-2.33,2.7-4.08,5.1-4.4l85.9-12.7c2.16-0.32,4.36,0.5,5.76,2.17
			c0.76,0.93,1.25,2.01,1.4,3.17C2046.15,1011.79,2046.08,1012.74,2045.76,1013.72z M1944.03,1079.54l69.51-9.85l17-50.25
			l-71.77,10.58L1944.03,1079.54z"/>
	</g>
	<g>
		<polygon class="st1" points="1919.31,968.17 1903.53,1030.54 1935.18,1087.16 1953.9,1024.38 		"/>
		<path d="M1959.93,1026.2l-18.7,62.75c-0.73,2.43-2.82,4.21-5.34,4.46c-2.52,0.27-4.95-0.98-6.2-3.19l-31.66-56.61
			c-0.78-1.4-1.01-3.04-0.61-4.62l15.78-62.35c0.61-2.44,2.65-4.3,5.17-4.66c2.5-0.39,4.95,0.76,6.32,2.9l34.55,56.2
			c0.44,0.77,0.76,1.58,0.88,2.41C1960.23,1024.38,1960.18,1025.31,1959.93,1026.2z M1910.24,1029.67l23.18,41.43l13.62-45.82
			l-25.29-41.11L1910.24,1029.67z"/>
	</g>
</g>
<g>
	<g>
		<path class="st1" d="M337.49,920.7c16.12-57.03,53.46-104.35,105.14-133.24c40.13-22.46,85.44-31.83,131.04-27.07
			c14.33,1.51,28.32,4.32,41.92,8.48c9.09-48,38.79-89.95,82.79-114.56c30.33-16.97,64.54-24.04,98.99-20.45
			c6.25,0.65,12.47,1.67,18.65,3.01c-10.68-93.89,35.33-187.35,120.92-235.21c43.27-24.23,92.15-34.33,141.33-29.21
			c77.35,8.05,146.15,53.32,184.06,121.11c4.29,7.68,8.18,15.58,11.59,23.67c39.89-17.74,83.36-24.69,127.02-20.13
			c80.88,8.4,152.84,55.74,192.44,126.58c38.47,68.74,41.87,151.24,10.76,222.37c40.7,16.37,74.95,46.19,96.66,85.03
			c25.24,45.11,31.41,97.37,17.35,147.12c-14.04,49.79-46.65,91.1-91.78,116.34c-8.58,4.8-17.52,8.97-26.76,12.4
			c-14.11,63.41-54,117.22-111.21,149.22c-5.02,2.84-10.22,5.49-15.46,7.94c33.22,85.32,25.24,181.8-22.15,260.95
			c32.05,54.15,101.83,109.52,161.61,139.91l5.88-22.25l57.43-7.5l26.61,50.72l-24.48,17.4l-37.71,21.07
			c-38.22,21.37-85.51,29.25-140.59,23.57c-38.88-4.07-81.44-15.09-123.25-31.95c-26.95-8.92-65.52-32.98-95.29-58.95
			c-37.37,11.17-77.16,14.95-116.02,10.88c-82.03-8.53-156.49-50.82-205.87-115.4c-16.49,18.87-36.17,34.89-58.22,47.19
			c-39.72,22.25-84.61,31.56-129.79,26.8c-71.01-7.4-134.22-48.96-169.04-111.19c-27.91-49.84-35.16-106.98-21.29-161.08
			c-58.61-10.59-109.96-46.9-139.24-99.18c-32.32-57.87-33.93-126.16-5.73-184.52c-32.61-19.72-59.44-47.44-78.38-81.32
			C328.47,1037.54,321.41,977.69,337.49,920.7z"/>
		<path d="M1498.93,1853.65c-39.4-4.12-82.5-15.29-124.62-32.29c-26.63-8.87-64.34-31.95-94.7-57.92
			c-27.27,7.84-55.57,11.81-84.12,11.81c-10.39,0-20.88-0.54-31.12-1.62c-80.51-8.38-155.05-49.15-205.6-112.22
			c-16.02,17.3-34.57,31.85-55.1,43.32c-33.54,18.82-71.45,28.72-109.65,28.72l0,0c-7.82,0-15.71-0.39-23.52-1.18
			c-72.89-7.64-137.73-50.33-173.42-114.18c-27.39-48.91-35.6-105.26-23.28-159.36c-58.31-12.3-108.13-48.76-137.26-100.9
			c-31.95-57.09-34.84-125.94-8.06-185.09c-31.46-20.02-57.7-47.85-76.08-80.71c-29.67-53.01-36.92-114.4-20.41-172.87
			c16.51-58.51,54.81-107.05,107.83-136.68c33.91-18.96,72.21-28.99,110.72-28.99c7.87,0,15.83,0.42,23.69,1.24
			c12.54,1.3,24.97,3.64,37,6.93c10.81-47.53,41.26-88.23,84.34-112.34c31.12-17.4,67.09-24.81,102.39-21.13
			c3.82,0.39,7.69,0.93,11.59,1.6c-7.79-95.23,40.5-186.09,124.57-233.11c36.51-20.42,77.74-31.22,119.2-31.22
			c8.48,0,17.05,0.44,25.53,1.31c79.17,8.25,149.61,54.6,188.42,124c3.48,6.21,6.71,12.57,9.58,18.98
			c31.24-13.08,64.17-19.71,98.03-19.71c8.82,0,17.79,0.48,26.63,1.38c82.72,8.62,156.3,57.02,196.82,129.48
			c37.88,67.71,42.71,150.32,13.25,222.1c39.72,17.35,72.99,47.46,94.16,85.29c25.97,46.44,32.34,100.25,17.84,151.48
			c-14.43,51.21-48,93.77-94.48,119.77c-7.99,4.46-16.29,8.38-24.65,11.66c-15.19,64.34-55.37,117.51-113.32,149.9
			c-3.72,2.11-7.42,4.07-11.05,5.83c15.27,41.41,21.37,86.39,17.64,130.4c-3.77,44.79-17.69,88.84-40.33,127.66
			c32.44,52.68,99.38,103.94,151.28,131.58l5.05-19.06l65.15-8.48l30.77,58.66l-28.54,20.29l-38.22,21.42
			c-30.97,17.3-67.89,26.07-109.74,26.07C1522.16,1855.46,1510.64,1854.88,1498.93,1853.65z M1694.89,1784.16l-22.42-42.73
			l-49.67,6.42l-6.71,25.38l-6.27-3.19c-56.87-28.86-129.62-83.99-163.97-142.11l-1.74-2.89l1.74-2.94
			c46.06-76.89,54.2-172.59,21.71-255.95l-1.96-5.05l4.9-2.25c4.9-2.21,9.95-4.8,15.09-7.69c55.99-31.31,94.48-82.96,108.42-145.47
			l0.69-3.04l2.92-1.05c8.8-3.28,17.52-7.3,25.92-12.03c43.83-24.5,75.47-64.61,89.09-112.93c13.67-48.28,7.67-98.98-16.86-142.77
			c-20.83-37.26-54.12-66.57-93.79-82.52l-5.46-2.19l2.38-5.39c30.53-69.74,26.58-150.98-10.51-217.28
			c-38.71-69.23-109.01-115.48-188.03-123.7c-8.45-0.88-17.03-1.32-25.46-1.32c-34.16,0-67.33,7.07-98.64,21.01l-5.34,2.35
			l-2.25-5.35c-3.28-7.78-7.11-15.56-11.32-23.12c-37.02-66.17-104.18-110.36-179.65-118.21c-8.09-0.85-16.27-1.29-24.35-1.29
			c-39.52,0-78.82,10.3-113.62,29.79c-82.35,46.04-128.66,136.15-118.05,229.57l0.91,7.93l-7.79-1.7c-6.03-1.31-12.1-2.29-18.01-2.9
			c-32.98-3.43-66.55,3.5-95.61,19.74c-41.95,23.48-71.1,63.8-79.97,110.65l-1.18,6.26l-6.1-1.86c-13.16-4.02-26.93-6.8-40.84-8.26
			c-7.47-0.78-15.04-1.16-22.52-1.16c-36.58,0-72.94,9.52-105.14,27.54c-50.35,28.14-86.74,74.24-102.42,129.81
			c-15.68,55.55-8.8,113.85,19.38,164.21c18.25,32.66,44.67,60.05,76.4,79.21l4.43,2.7l-2.28,4.66
			c-27.44,56.84-25.38,123.88,5.56,179.26c28.47,50.87,77.77,85.95,135.28,96.34l6.03,1.13l-1.52,5.93
			c-13.55,52.97-6.17,108.69,20.75,156.86c33.89,60.62,95.46,101.09,164.68,108.35c7.4,0.73,14.92,1.18,22.32,1.18l0,0
			c36.21,0,72.23-9.46,104.08-27.34c21.39-11.96,40.48-27.39,56.7-45.97l4.58-5.24l4.24,5.54
			c48.64,63.66,122.24,104.92,201.92,113.25c9.85,1.03,19.94,1.52,29.94,1.52c28.5,0,56.7-4.12,83.85-12.25l3.04-0.88l2.35,2.06
			c29.79,25.97,67.31,49.2,93.35,57.78l0.34,0.15c41.19,16.66,83.26,27.59,121.68,31.61c11.32,1.18,22.44,1.76,33.05,1.76
			c39.87,0,74.93-8.28,104.16-24.65l37.44-20.92L1694.89,1784.16z"/>
	</g>
	<g>
		<path class="st1" d="M1484.81,1789.21c55.08,5.73,102.42-2.21,140.59-23.52l49.96-31.17l-52.92-16.96
			c-63.95-25.97-149.78-89.43-186.36-151.27c47.39-79.09,55.37-175.58,22.12-260.95c5.24-2.4,10.44-5.1,15.49-7.94
			c57.24-32,97.08-85.76,111.21-149.22c9.24-3.43,18.18-7.57,26.76-12.35c45.13-25.26,77.74-66.57,91.81-116.36
			c14.04-49.75,7.89-102.01-17.4-147.12c-21.71-38.86-55.94-68.67-96.64-85.03c31.12-71.13,27.69-153.64-10.76-222.37
			c-39.62-70.85-111.56-118.16-192.41-126.58c-43.71-4.56-87.18,2.39-127.02,20.13c-3.43-8.09-7.33-16.01-11.61-23.67
			c-37.93-67.8-106.73-113.08-184.06-121.11c-49.15-5.13-98.03,4.96-141.33,29.19c-85.61,47.86-131.62,141.31-120.94,235.22
			c-6.15-1.35-12.37-2.36-18.62-3.01c-34.45-3.59-68.65,3.48-98.99,20.45c-43.98,24.61-73.7,66.56-82.82,114.55
			c-13.6-4.15-27.59-6.97-41.9-8.47c-45.6-4.75-90.9,4.61-131.06,27.07c-51.67,28.88-89.02,76.21-105.14,133.24
			c-16.05,56.98-9.02,116.83,19.92,168.54c18.96,33.9,45.77,61.6,78.41,81.3c-28.23,58.36-26.61,126.7,5.71,184.52
			c29.28,52.29,80.64,88.6,139.24,99.18c-13.82,54.15-6.57,111.24,21.32,161.08c34.82,62.28,98.03,103.79,169.04,111.24
			c45.18,4.71,90.07-4.56,129.79-26.8c22.05-12.35,41.73-28.37,58.22-47.24c49.37,64.64,123.83,106.93,205.84,115.45
			c38.88,4.02,78.65,0.25,116.04-10.93c29.77,25.97,68.31,50.03,95.29,58.9C1403.37,1774.17,1445.95,1785.19,1484.81,1789.21z"/>
		<path d="M1484.23,1794.89c-39.4-4.12-82.47-15.29-124.62-32.29c-26.61-8.82-64.32-31.95-94.68-57.92
			c-27.29,7.84-55.57,11.81-84.12,11.81c-10.41,0-20.88-0.54-31.14-1.62c-80.51-8.33-155.02-49.15-205.57-112.22
			c-16.05,17.3-34.55,31.85-55.11,43.32c-33.54,18.82-71.47,28.77-109.65,28.77c-7.82,0-15.73-0.44-23.5-1.23
			c-72.92-7.59-137.77-50.28-173.47-114.13c-27.37-48.95-35.55-105.31-23.25-159.41c-58.31-12.3-108.13-48.76-137.28-100.85
			c-31.93-57.14-34.84-125.94-8.06-185.14c-31.44-19.99-57.68-47.82-76.05-80.68c-29.67-53.01-36.92-114.4-20.41-172.87
			c16.54-58.51,54.81-107.05,107.83-136.68c33.89-18.98,72.18-29,110.7-29c7.89,0,15.85,0.42,23.72,1.24
			c12.57,1.31,24.99,3.64,36.97,6.95c10.83-47.53,41.31-88.24,84.36-112.34c31.12-17.4,67.11-24.82,102.37-21.13
			c3.82,0.38,7.72,0.93,11.61,1.59c-7.82-95.21,40.48-186.08,124.59-233.11c36.46-20.42,77.7-31.22,119.2-31.22
			c8.43,0,17.03,0.44,25.48,1.32c79.19,8.23,149.61,54.59,188.44,124c3.48,6.21,6.69,12.57,9.58,18.98
			c31.22-13.08,64.17-19.72,98.01-19.72c8.85,0,17.81,0.47,26.66,1.4c82.72,8.61,156.27,57.02,196.82,129.48
			c37.86,67.71,42.71,150.3,13.26,222.1c39.69,17.35,72.99,47.45,94.14,85.29c26,46.46,32.34,100.25,17.89,151.47
			c-14.48,51.25-48.02,93.78-94.53,119.78c-7.99,4.46-16.27,8.38-24.65,11.64c-15.19,64.37-55.33,117.51-113.3,149.95
			c-3.72,2.11-7.42,4.07-11.07,5.83c15.29,41.41,21.37,86.35,17.64,130.4c-3.75,44.79-17.69,88.84-40.33,127.61
			c37.15,60.28,120.87,121.24,181.66,145.98l52.73,16.86c2.11,0.69,3.68,2.55,3.92,4.75c0.29,2.21-0.73,4.36-2.65,5.54l-49.94,31.12
			c-0.07,0.1-0.15,0.1-0.25,0.15c-30.97,17.3-67.87,26.12-109.72,26.12C1507.45,1796.76,1495.94,1796.12,1484.23,1794.89z
			 M1661.89,1736.19l-41.19-13.18c-0.15-0.05-0.27-0.1-0.39-0.15c-63.56-25.83-151.69-90.31-189.16-153.63
			c-1.08-1.81-1.03-4.07,0.02-5.83c46.06-76.94,54.17-172.64,21.71-256c-1.1-2.79,0.2-5.98,2.94-7.25
			c4.88-2.25,9.97-4.85,15.07-7.69c56.01-31.31,94.5-83.01,108.45-145.52c0.42-1.86,1.76-3.43,3.58-4.07
			c8.82-3.28,17.54-7.33,25.97-12.03c43.81-24.5,75.42-64.61,89.06-112.9c13.65-48.31,7.67-99.01-16.86-142.8
			c-20.83-37.26-54.12-66.57-93.82-82.52c-1.42-0.59-2.55-1.7-3.14-3.14c-0.59-1.43-0.56-3.03,0.05-4.45
			c30.53-69.76,26.61-150.98-10.49-217.3c-38.71-69.22-109.03-115.45-188.03-123.7c-8.45-0.87-17.03-1.31-25.48-1.31
			c-34.16,0-67.33,7.07-98.64,21c-1.42,0.62-2.99,0.65-4.41,0.1c-1.42-0.56-2.57-1.68-3.18-3.1c-3.28-7.78-7.11-15.56-11.32-23.12
			c-37-66.17-104.16-110.36-179.65-118.21c-8.09-0.85-16.27-1.26-24.31-1.26c-39.55,0-78.85,10.3-113.66,29.77
			c-82.33,46.04-128.66,136.15-118.03,229.57c0.2,1.84-0.49,3.65-1.86,4.89c-1.35,1.24-3.21,1.74-5.05,1.34
			c-6-1.32-12.05-2.29-17.98-2.9c-32.98-3.43-66.55,3.5-95.61,19.76c-41.95,23.46-71.1,63.79-80,110.64
			c-0.29,1.58-1.25,2.98-2.62,3.82c-1.4,0.83-3.09,1.04-4.66,0.56c-13.16-4.02-26.93-6.79-40.84-8.25
			c-7.47-0.78-15.04-1.18-22.52-1.18c-36.58,0-72.92,9.52-105.14,27.55C380.36,761.84,344,807.96,328.3,863.53
			c-15.68,55.53-8.77,113.85,19.38,164.2c18.25,32.65,44.69,60.04,76.4,79.2c2.52,1.54,3.45,4.75,2.18,7.4
			c-27.47,56.84-25.38,123.83,5.56,179.21c28.45,50.87,77.77,86,135.28,96.39c1.57,0.24,2.94,1.18,3.8,2.5
			c0.86,1.37,1.1,2.99,0.71,4.51c-13.55,53.02-6.2,108.74,20.75,156.86c33.91,60.62,95.44,101.14,164.65,108.35
			c7.42,0.78,14.92,1.18,22.35,1.18c36.24,0,72.21-9.46,104.08-27.29c21.39-11.96,40.48-27.44,56.67-46.01
			c1.15-1.27,2.82-2.01,4.51-1.91c1.69,0.05,3.31,0.88,4.34,2.21c48.64,63.66,122.24,104.92,201.9,113.25
			c9.9,1.03,19.97,1.57,29.97,1.57c28.5,0,56.7-4.17,83.85-12.25c1.89-0.59,3.92-0.15,5.39,1.13c29.77,26.02,67.31,49.2,93.33,57.82
			c0.1,0.05,0.24,0.1,0.34,0.15c41.21,16.66,83.31,27.59,121.68,31.56c11.32,1.18,22.44,1.81,33.08,1.81
			c39.84,0,74.83-8.28,104.04-24.6L1661.89,1736.19z"/>
	</g>
	<path d="M378.82,1115.41c4.83-0.74,9.02-2.43,13.11-4.07c5.12-2.06,9.97-4.02,15.88-4.07l-0.02-4.88
		c-6.84,0.02-12.35,2.23-17.69,4.41c-3.99,1.59-7.74,3.14-12.01,3.75L378.82,1115.41z"/>
	<path d="M467.05,1388.21c5.19-9.7,10.12-17.45,17.4-23.77l-3.21-3.72c-8.72,7.6-14.11,16.96-18.5,25.19L467.05,1388.21z"/>
	<path d="M516.15,1428.64c3.7-10.34,16.56-22.2,25.95-30.82c1.54-1.42,3.06-2.79,4.41-4.12l-3.36-3.53
		c-1.35,1.27-2.82,2.6-4.36,4.07c-10.32,9.46-23.15,21.27-27.27,32.78L516.15,1428.64z"/>
	<path d="M643.54,1666.11l4.9-0.15c-0.17-5.68,1.47-10.98,3.21-16.51c2.06-6.57,4.17-13.38,3.28-21.22l-4.88,0.54
		c0.78,6.81-1.1,12.84-3.06,19.26C645.21,1653.66,643.34,1659.55,643.54,1666.11z"/>
	<path d="M710.43,1711.69c0-9.12-0.44-18.13-0.81-26.9c-0.42-8.72-0.83-17.79-0.83-26.9h-4.9c0,9.21,0.42,18.33,0.83,27.15
		c0.39,8.67,0.81,17.64,0.81,26.66H710.43z"/>
	<path d="M777.32,1728.4l4.83-0.74c-1.15-7.45-2.65-14.46-4.14-21.22c-2.94-13.77-5.73-26.8-5.61-42.04h-4.88
		c-0.17,15.73,2.7,29.01,5.71,43.07C774.67,1714.19,776.14,1721.09,777.32,1728.4z"/>
	<path d="M852.71,1717.91l4.17-2.6c-2.79-4.56-4.85-9.75-6.84-14.75c-1.81-4.51-3.65-9.16-6.03-13.43
		c-2.08-3.68-5.27-7.16-8.35-10.58c-4.21-4.66-8.6-9.51-9.46-14.21l-4.8,0.83c1.1,6.13,5.95,11.47,10.63,16.66
		c3.06,3.33,5.9,6.52,7.69,9.7c2.23,3.97,3.95,8.28,5.76,12.84C847.57,1707.57,849.7,1713.01,852.71,1717.91z"/>
	<path d="M913.16,1688.61l3.99-2.79c-4.56-6.42-8.18-14.65-12.05-23.42c-4.12-9.31-8.33-18.96-14.02-27.15l-4.04,2.84
		c5.42,7.74,9.58,17.2,13.6,26.32C904.61,1673.37,908.33,1681.84,913.16,1688.61z"/>
	<path d="M961.82,1652.2l4.56-1.76c-3.45-8.92-6.22-17.98-8.92-26.76c-2.7-8.77-5.51-17.84-9.02-27.05l-4.58,1.76
		c3.48,9.07,6.22,18.03,8.89,26.76C955.47,1633.97,958.29,1643.08,961.82,1652.2z"/>
	<path d="M1004.04,1697.43c1.32-8.43-0.88-16.12-3.04-23.47c-2.43-8.43-4.73-16.37-1.94-25.14l-4.66-1.47
		c-3.26,10.14-0.64,19.21,1.89,27.93c2.08,7.2,4.07,14.01,2.89,21.37L1004.04,1697.43z"/>
	<path d="M1051.37,1726.39h4.9c0-1.96,0-3.87,0-5.78c0.05-12.2,0.1-24.84-1.67-37l-4.85,0.74c1.71,11.81,1.67,24.26,1.62,36.26
		C1051.37,1722.52,1051.37,1724.43,1051.37,1726.39z"/>
	<path d="M1106.85,1749.32c0.61-12.1-2.79-23.42-6.08-34.4c-2.11-6.96-4.29-14.16-5.39-21.56l-4.83,0.74
		c1.15,7.69,3.36,15.09,5.51,22.25c3.33,11.03,6.47,21.41,5.88,32.73L1106.85,1749.32z"/>
	<path d="M1175.35,1767.16c0.1-9.46-3.41-17.59-6.81-25.38c-3.72-8.67-7.25-16.81-6.25-26.56l-4.88-0.49
		c-1.13,11.03,2.84,20.14,6.64,28.96c3.33,7.74,6.49,15,6.4,23.47H1175.35z"/>
	<path d="M1219.46,1767.7l4.8-1.03c-1.47-6.81-3.16-12.99-4.8-18.96c-3.33-12.05-6.47-23.47-6.57-37.63h-4.9
		c0.1,14.85,3.33,26.56,6.76,38.96C1216.37,1754.91,1218.04,1760.98,1219.46,1767.7z"/>
	<path d="M1282.53,1759.42l4.26-2.45c-9.38-16.42-12.64-30.28-16.86-57.04l-4.83,0.74
		C1269.39,1728.1,1272.77,1742.31,1282.53,1759.42z"/>
	<path d="M1334.13,1796.41l3.82-3.09c-7.57-9.36-15.46-43.61-11.05-54.64l-4.53-1.81
		C1317.29,1749.57,1325.53,1785.73,1334.13,1796.41z"/>
	<path d="M1379.31,1816.55l4.8-0.88l-0.81-4.61c-3.16-17.59-6.47-35.82-12.32-52.88l-4.61,1.62c5.71,16.66,8.97,34.7,12.1,52.14
		L1379.31,1816.55z"/>
	<path d="M1661.99,1819.2l3.94-2.94c-4.9-6.52-10.19-12.3-15.29-17.89c-9.07-9.95-17.67-19.36-23.62-32.24l-4.46,2.06
		c6.27,13.62,15.53,23.72,24.45,33.47C1652.06,1807.15,1657.26,1812.83,1661.99,1819.2z"/>
	<path d="M1615.58,1842.97l3.75-3.19c-6.3-7.4-11.42-15.97-16.37-24.21c-6.57-10.93-13.33-22.2-22.98-31.41l-3.38,3.53
		c9.19,8.77,15.78,19.75,22.15,30.38C1603.82,1826.5,1609.04,1835.22,1615.58,1842.97z"/>
	<path d="M1551.51,1855.22l4.66-1.57c-3.09-8.92-7.4-18.28-11.57-27.34c-5.86-12.64-11.91-25.78-14.48-37.64l-4.78,1.03
		c2.69,12.4,8.84,25.78,14.8,38.66C1544.28,1837.28,1548.54,1846.54,1551.51,1855.22z"/>
	<path d="M1488.73,1846.35l4.56-1.81c-3.01-7.55-5.46-15.34-7.84-22.88c-3.82-12.25-7.79-24.89-14.31-36.9l-4.29,2.35
		c6.3,11.56,10,23.42,13.94,36.02C1483.2,1830.77,1485.65,1838.61,1488.73,1846.35z"/>
	<path d="M1438.97,1835.71l4.58-1.67c-2.11-5.88-5-11.56-7.79-17.05c-6.62-13.03-12.84-25.33-10.05-39.55l-4.8-0.98
		c-3.11,15.93,3.77,29.55,10.49,42.73C1434.12,1824.59,1436.94,1830.13,1438.97,1835.71z"/>
	<path d="M1473.89,1565.07l4.9-0.34c-0.76-10.54-5.88-18.47-10.85-26.17c-3.55-5.49-6.89-10.68-8.85-16.81l-4.66,1.47
		c2.13,6.71,5.83,12.45,9.41,17.98C1468.64,1548.7,1473.22,1555.8,1473.89,1565.07z"/>
	<path d="M1486.68,1522.33l3.82-3.04c-6.84-8.62-13.35-18.72-19.41-28.32l-4.17,2.6C1473.1,1503.32,1479.67,1513.56,1486.68,1522.33
		z"/>
	<path d="M1488.2,1475.73l4.04-2.79c-3.75-5.44-7.38-11.27-10.49-16.91l-4.29,2.35C1480.67,1464.17,1484.37,1470.15,1488.2,1475.73z
		"/>
	<path d="M1512.6,1336.95l4.17-2.55c-1.25-2.06-2.55-4.17-3.87-6.27c-8.31-13.33-17.74-28.42-20.29-42.68l-4.8,0.88
		c2.7,15.19,12.4,30.73,20.92,44.4C1510.05,1332.84,1511.35,1334.94,1512.6,1336.95z"/>
	<path d="M1553.67,1302.01l1.96-4.46c-9.19-4.12-17.1-11.91-24.77-19.41c-3.92-3.82-7.96-7.79-12.18-11.27l-3.09,3.82
		c4.02,3.28,7.99,7.2,11.83,10.98C1535.39,1289.47,1543.67,1297.55,1553.67,1302.01z"/>
	<path d="M1573.95,1272.02l0.54-4.85c-12.23-1.37-22.54-10.05-32.51-18.5c-1.52-1.3-3.04-2.57-4.53-3.8l-3.11,3.77
		c1.49,1.22,2.96,2.5,4.48,3.77C1548.86,1260.9,1560.26,1270.5,1573.95,1272.02z"/>
	<path d="M1590.25,1235.07l2.23-4.36c-3.36-1.72-6.76-3.65-10.05-5.54c-7.28-4.17-14.8-8.48-22.98-10.93l-1.42,4.66
		c7.67,2.3,14.95,6.47,21.95,10.49C1583.31,1231.35,1586.79,1233.31,1590.25,1235.07z"/>
	<path d="M1599.53,1212.83l4.85-0.66c-2.25-16.59-6.13-30.6-10.19-45.4c-1.52-5.44-3.09-11.05-4.56-16.86l-4.75,1.2
		c1.52,5.86,3.09,11.49,4.58,16.96C1593.5,1182.71,1597.33,1196.56,1599.53,1212.83z"/>
	<path d="M1642.17,1183.37l4.41-2.13c-7.06-14.63-17.49-26.29-27.59-37.56c-2.06-2.3-4.14-4.66-6.22-7.01l-3.68,3.21
		c2.08,2.38,4.17,4.73,6.27,7.06C1625.65,1158.48,1635.4,1169.36,1642.17,1183.37z"/>
	<path d="M1680.78,1146.43l0.59-4.88c-8.82-1.08-16.47-7.99-24.55-15.26c-4.85-4.41-9.9-8.92-15.27-12.15l-2.5,4.21
		c4.95,2.96,9.8,7.35,14.48,11.56C1661.84,1137.41,1670.42,1145.15,1680.78,1146.43z"/>
	<path d="M1709.18,1097.96l2.52-4.21c-1.86-1.13-3.75-2.28-5.64-3.46c-9.29-5.71-18.87-11.64-29.01-15.49l-1.74,4.58
		c9.73,3.68,19.09,9.46,28.15,15.07C1705.38,1095.63,1707.29,1096.83,1709.18,1097.96z"/>
	<path d="M1709.5,1047.92c4.66,0,9.34-0.64,13.87-1.9l-1.35-4.72c-8.16,2.29-16.96,2.29-24.75,0l-1.4,4.7
		C1700.24,1047.28,1704.84,1047.92,1709.5,1047.92z"/>
	<path d="M1600.02,769.67c8.09,0,15.93-1.75,23.35-5.22l-2.08-4.42c-7.6,3.55-15.73,5.12-24.11,4.67l-0.24,4.89
		C1597.96,769.64,1598.99,769.67,1600.02,769.67z"/>
</g>
<g>
	<path d="M639.89,829.47v74.27h65.38v15.69h-65.38v87.48h-17.08V813.76h87.18v15.71H639.89z"/>
	<path d="M733.49,947.03v-73.37c0-38.92,20.68-63.47,55.47-63.47c34.76,0,55.47,24.55,55.47,63.47v73.37
		c0,38.92-20.72,63.48-55.47,63.48C754.17,1010.51,733.49,985.95,733.49,947.03z M827.05,947.03v-73.37
		c0-29.82-13.02-46.91-38.09-46.91c-25.13,0-38.1,17.09-38.1,46.91v73.37c0,29.77,12.97,46.93,38.1,46.93
		C814.02,993.96,827.05,976.8,827.05,947.03z"/>
	<path d="M969.48,990.63v16.28h-87.75V813.76h17.1v176.87H969.48z"/>
	<path d="M1080.73,990.63v16.28h-87.77V813.76h17.14v176.87H1080.73z"/>
	<path d="M1099.01,947.03v-73.37c0-38.92,20.68-63.47,55.45-63.47c34.74,0,55.45,24.55,55.45,63.47v73.37
		c0,38.92-20.7,63.48-55.45,63.48C1119.69,1010.51,1099.01,985.95,1099.01,947.03z M1192.53,947.03v-73.37
		c0-29.82-12.99-46.91-38.08-46.91c-25.09,0-38.08,17.09-38.08,46.91v73.37c0,29.77,12.99,46.93,38.08,46.93
		C1179.54,993.96,1192.53,976.8,1192.53,947.03z"/>
	<path d="M1419.37,813.76l-42.73,193.15h-19.04l-23.47-105.11c-3.58-15.45-7.96-45.24-9.36-60.7h-1.08
		c-1.37,15.46-5.78,45.25-9.43,60.7l-23.45,105.11h-19.01l-42.78-193.15h17.94l24.28,119.23c2.79,14.04,8.31,40.82,9.38,49.1h1.15
		c1.62-8.28,6.03-32.28,9.87-51.9l23.18-113.37h18.74l23.2,113.37c3.85,19.61,8.31,43.61,9.95,51.9h1.13
		c1.1-8.28,6.57-35.06,9.36-49.1l24.23-119.23H1419.37z"/>
	<path d="M728.68,1318.45V1053.6h33.27v264.85c0,58,28.51,83.85,69.3,83.85c40.87,0,69.33-25.85,69.33-83.85V1053.6h33.3v264.85
		c0,76.3-42.45,116.07-102.63,116.07C771.11,1434.52,728.68,1394.75,728.68,1318.45z"/>
	<path d="M986.69,1332.94h33.27c1.62,46.77,28.47,71.45,70.37,71.45c45.65,0,68.19-28.45,68.19-69.29
		c0-87.01-166.49-87.52-166.49-196.58c0-51.58,39.23-91.88,97.25-91.88c59.15,0,95.63,41.9,98.28,100.97h-33.3
		c-2.11-47.24-27.93-68.75-63.93-68.75c-40.8,0-64.43,23.64-64.43,59.66c0,86.98,166.5,83.8,166.5,196.58
		c0,51.01-34.94,101.56-100.95,101.56C1029.08,1436.65,988.32,1395.27,986.69,1332.94z"/>
	<path d="M1245.72,1409.77c0-15.02,10.19-25.26,25.29-25.26c15.02,0,25.21,10.24,25.21,25.26c0,15.02-10.19,25.24-25.21,25.24
		C1255.92,1435.01,1245.72,1424.79,1245.72,1409.77z M1254.91,1053.6h32.22v298.72h-32.22V1053.6z"/>
</g>
<g>
	<g>
		<polygon class="st1" points="237.55,1457.54 155.76,1468.15 190.36,1524.36 276.26,1511.69 		"/>
		<path d="M282.04,1514.14c-0.86,2.02-2.69,3.44-4.88,3.75l-85.9,12.68c-2.5,0.39-4.95-0.76-6.27-2.9l-34.57-56.18
			c-1.13-1.83-1.25-4.09-0.34-6.03c0.93-1.91,2.77-3.26,4.88-3.52l81.76-10.62c2.3-0.32,4.58,0.67,5.93,2.57l38.74,54.15
			c0.56,0.82,0.96,1.79,1.1,2.77C282.63,1511.91,282.48,1513.07,282.04,1514.14z M166.22,1473.16l27.29,44.36l71.62-10.56
			l-30.53-42.69L166.22,1473.16z"/>
	</g>
	<g>
		<polygon class="st1" points="190.36,1524.36 171.64,1587.13 254.75,1575.34 276.26,1511.69 		"/>
		<path d="M282.21,1513.7l-21.54,63.66c-0.76,2.25-2.7,3.87-5.07,4.21l-83.09,11.76c-2.11,0.32-4.24-0.47-5.63-2.11
			c-1.42-1.62-1.89-3.85-1.27-5.9l18.72-62.75c0.69-2.33,2.7-4.08,5.1-4.4l85.9-12.7c2.16-0.32,4.36,0.5,5.76,2.17
			c0.76,0.93,1.25,2.01,1.4,3.17C282.61,1511.76,282.53,1512.72,282.21,1513.7z M180.48,1579.51l69.51-9.85l17-50.25l-71.77,10.58
			L180.48,1579.51z"/>
	</g>
	<g>
		<polygon class="st1" points="155.76,1468.15 139.98,1530.52 171.64,1587.13 190.36,1524.36 		"/>
		<path d="M196.38,1526.17l-18.7,62.75c-0.73,2.43-2.82,4.21-5.34,4.46c-2.52,0.27-4.95-0.98-6.2-3.19l-31.66-56.61
			c-0.78-1.4-1-3.04-0.61-4.62l15.78-62.35c0.61-2.44,2.65-4.3,5.17-4.66c2.5-0.39,4.95,0.76,6.32,2.9l34.55,56.2
			c0.44,0.77,0.76,1.58,0.88,2.41C196.68,1524.36,196.63,1525.29,196.38,1526.17z M146.69,1529.65l23.18,41.43l13.62-45.82
			l-25.29-41.11L146.69,1529.65z"/>
	</g>
</g>
<g>
	<g>
		<path class="st1" d="M1064.84,162l16.17-114.33c1.92,10.76,13.33,24.13,30.1,33.74c16.76,9.63,34.05,12.73,44.31,8.96L1064.84,162
			z"/>
		<path class="st0" d="M1160.39,87.59c1.35,2.44,0.75,5.51-1.44,7.23l-90.57,71.64c-3.67,2.88-9.81-0.63-9.17-5.26l16.18-114.35
			c0.39-2.75,2.74-4.81,5.53-4.87c2.77-0.04,5.22,1.92,5.7,4.7c1.39,7.81,10.38,20.08,27.31,29.8c16.94,9.73,32.07,11.3,39.52,8.55
			c1.63-0.6,3.38-0.41,4.81,0.39C1159.11,85.94,1159.87,86.67,1160.39,87.59z M1084.14,66.29l-11.66,82.43l65.29-51.64
			c-9.27-1.33-19.51-5-29.51-10.72C1098.29,80.61,1089.95,73.6,1084.14,66.29z"/>
	</g>
	<g>
		<path class="st1" d="M1155.42,90.37c-10.26,3.78-27.56,0.68-44.31-8.96c-16.77-9.62-28.18-22.98-30.1-33.74l1.36-9.54
			c6.39-11.13,29.6-9.8,51.85,2.99c22.26,12.77,35.12,32.15,28.73,43.28L1155.42,90.37z"/>
		<path class="st0" d="M1167.9,87.22l-8.94,7.61l-1.57,0.87c-12.32,4.56-31.13,0.96-49.12-9.35c-17.97-10.31-30.56-24.75-32.86-37.7
			l1.32-11.33l0.71-2.03c8.2-14.29,33.84-13.92,59.63,0.89C1162.85,50.97,1176.1,72.93,1167.9,87.22z M1086.79,47.5
			c1.85,7.85,10.78,19.6,27.14,28.99c16.37,9.38,31.02,11.18,38.74,8.8l5.76-4.57c2.93-7.56-7.54-23.5-27.03-34.67
			c-19.48-11.19-38.52-12.21-43.58-5.83L1086.79,47.5z"/>
	</g>
</g>
</svg>
