<?xml version="1.0" encoding="utf-8"?>
<!-- Generator: Adobe Illustrator 26.5.0, SVG Export Plug-In . SVG Version: 6.00 Build 0)  -->
<svg version="1.1" id="Layer_1" xmlns="http://www.w3.org/2000/svg" xmlns:xlink="http://www.w3.org/1999/xlink" x="0px" y="0px"
	 viewBox="0 0 681.05 413.84" style="enable-background:new 0 0 681.05 413.84;" xml:space="preserve">
<style type="text/css">
	.st0{fill:none;}
	.st1{clip-path:url(#SVGID_00000106852869701726730140000010217791066994042527_);}
	.st2{fill:#FFFFFF;}
	.st3{clip-path:url(#SVGID_00000098196084189234261830000010248659558581044904_);}
	.st4{clip-path:url(#SVGID_00000039845329978973743960000016449442559430333625_);}
	.st5{clip-path:url(#SVGID_00000054952448373983787410000004003918192231078075_);}
	.st6{clip-path:url(#SVGID_00000114773543544818405520000017166801143745726084_);}
	.st7{fill:#FFC7B6;}
	.st8{opacity:0.5;fill:#FF8A73;}
	.st9{fill:#2E3065;}
	.st10{fill:#00578F;}
	.st11{fill:#D5E7EF;}
	.st12{fill:#0A0C33;}
	.st13{fill:#755255;}
	.st14{fill:#232020;}
	.st15{fill:none;stroke:#232020;stroke-width:0.9921;stroke-linecap:round;stroke-linejoin:round;stroke-miterlimit:10;}
	.st16{fill:none;stroke:#FF7769;stroke-width:0.9921;stroke-linecap:round;stroke-linejoin:round;stroke-miterlimit:10;}
	.st17{fill:none;stroke:#232020;stroke-width:0.8504;stroke-linecap:round;stroke-linejoin:round;stroke-miterlimit:10;}
	.st18{fill:#FF6E69;}
	.st19{fill:url(#SVGID_00000152241318608301208990000009116509268658778270_);}
	.st20{fill:url(#SVGID_00000147908337713586035240000001496599051350368679_);}
	.st21{fill:url(#SVGID_00000156571892847235715210000015214058299670707374_);}
	.st22{fill:#B9E1FC;stroke:#232020;stroke-miterlimit:10;}
	.st23{fill:#FF8F7B;}
	.st24{fill:none;stroke:#367DA7;stroke-miterlimit:10;}
	.st25{fill:#FFFFFF;stroke:#61AFCD;stroke-miterlimit:10;}
	.st26{fill:none;stroke:#61AFCD;stroke-miterlimit:10;}
	.st27{fill:#FFEFDD;stroke:#232020;stroke-width:0.9921;stroke-linecap:round;stroke-linejoin:round;stroke-miterlimit:10;}
	.st28{fill:#FAFAF8;}
	.st29{fill:#78453C;}
	.st30{fill:#6770A1;}
	.st31{fill:#D45A3F;}
	.st32{fill:#64B4FB;stroke:#232020;stroke-miterlimit:10;}
	.st33{fill:none;stroke:#C73838;stroke-miterlimit:10;}
	.st34{fill:none;stroke:#232020;stroke-miterlimit:10;}
	.st35{fill:#E58960;}
	.st36{fill:#FFC57C;}
	.st37{clip-path:url(#SVGID_00000124158352266295784070000018343609131564903075_);}
	.st38{fill:#FFD36B;}
	.st39{fill:#232020;stroke:#232020;stroke-width:0.9921;stroke-linecap:round;stroke-linejoin:round;stroke-miterlimit:10;}
	.st40{fill:#EEEEEE;stroke:#232020;stroke-width:0.9921;stroke-linecap:round;stroke-linejoin:round;stroke-miterlimit:10;}
	.st41{fill:#BD4751;}
	.st42{fill:#041430;}
	.st43{fill:none;stroke:#F8E6D6;stroke-miterlimit:10;}
	.st44{fill:#272626;}
	.st45{fill:#E27669;}
	.st46{fill:#F8B7A7;}
	.st47{fill:#505FA2;}
	.st48{fill:#F14545;}
	.st49{fill:#727CA5;}
	.st50{fill:#505486;}
	.st51{fill:none;stroke:#000000;stroke-miterlimit:10;}
	.st52{fill:#64B4FB;}
	.st53{fill:#C6B490;}
	.st54{fill:#8A7D24;}
	.st55{fill:none;stroke:#232020;stroke-width:0.8092;stroke-linecap:round;stroke-linejoin:round;stroke-miterlimit:10;}
	.st56{fill:#FFFFFF;stroke:#E86C65;stroke-linecap:round;stroke-miterlimit:10;}
	.st57{fill:#FFFFFF;stroke:#232020;stroke-width:0.9921;stroke-linecap:round;stroke-linejoin:round;stroke-miterlimit:10;}
	.st58{fill:none;stroke:#2E4648;stroke-miterlimit:10;}
	.st59{fill:none;stroke:#566667;stroke-miterlimit:10;}
	.st60{fill:#FFB244;}
	.st61{fill:#FFFFFF;stroke:#232020;stroke-width:0.8504;stroke-linecap:round;stroke-linejoin:round;stroke-miterlimit:10;}
	.st62{fill:none;stroke:#232020;stroke-width:1.4173;stroke-linecap:round;stroke-linejoin:round;stroke-miterlimit:10;}
	.st63{fill:none;stroke:#D2831D;stroke-miterlimit:10;}
	.st64{fill:none;stroke:#B8633E;stroke-miterlimit:10;}
	.st65{fill:none;stroke:#2F4461;stroke-miterlimit:10;}
	.st66{fill:none;stroke:#6D6666;stroke-miterlimit:10;}
	.st67{fill:none;stroke:#5D98C3;stroke-miterlimit:10;}
</style>
<pattern  x="-2331.13" y="-503.2" width="12.76" height="8.5" patternUnits="userSpaceOnUse" id="Unnamed_Pattern_3" viewBox="2.89 -10 12.76 8.5" style="overflow:visible;">
	<g>
		<rect x="2.89" y="-10" class="st0" width="12.76" height="8.5"/>
		<g>
			<defs>
				<circle id="SVGID_1_" cx="15.65" cy="-1.5" r="1.5"/>
			</defs>
			<clipPath id="SVGID_00000152238857420504245630000008609000427662687166_">
				<use xlink:href="#SVGID_1_"  style="overflow:visible;"/>
			</clipPath>
			<g style="clip-path:url(#SVGID_00000152238857420504245630000008609000427662687166_);">
				<rect x="12.76" y="-3.21" class="st0" width="2.99" height="2.99"/>
				<circle class="st2" cx="14.25" cy="-1.71" r="1.5"/>
			</g>
		</g>
		<g>
			<defs>
				<circle id="SVGID_00000172419088684623630880000011698405339772416182_" cx="2.89" cy="-1.5" r="1.5"/>
			</defs>
			<clipPath id="SVGID_00000141453690157301692490000002359162890169214106_">
				<use xlink:href="#SVGID_00000172419088684623630880000011698405339772416182_"  style="overflow:visible;"/>
			</clipPath>
			<g style="clip-path:url(#SVGID_00000141453690157301692490000002359162890169214106_);">
				<rect x="2.99" y="-3.21" class="st0" width="2.99" height="2.99"/>
				<circle class="st2" cx="4.49" cy="-1.71" r="1.5"/>
			</g>
			<g style="clip-path:url(#SVGID_00000141453690157301692490000002359162890169214106_);">
				<rect y="-3.21" class="st0" width="2.99" height="2.99"/>
				<circle class="st2" cx="1.5" cy="-1.71" r="1.5"/>
			</g>
		</g>
		<g>
			<defs>
				<circle id="SVGID_00000131363699732635664130000009134309484200895138_" cx="15.65" cy="-10" r="1.5"/>
			</defs>
			<clipPath id="SVGID_00000118392159708642986120000002116651506006017943_">
				<use xlink:href="#SVGID_00000131363699732635664130000009134309484200895138_"  style="overflow:visible;"/>
			</clipPath>
			<g style="clip-path:url(#SVGID_00000118392159708642986120000002116651506006017943_);">
				<rect x="12.76" y="-11.71" class="st0" width="2.99" height="2.99"/>
				<circle class="st2" cx="14.25" cy="-10.21" r="1.5"/>
			</g>
			<g style="clip-path:url(#SVGID_00000118392159708642986120000002116651506006017943_);">
				<rect x="12.76" y="-8.72" class="st0" width="2.99" height="2.99"/>
				<circle class="st2" cx="14.25" cy="-7.22" r="1.5"/>
			</g>
		</g>
		<g>
			<defs>
				<circle id="SVGID_00000098913319980225311340000006168362859855001770_" cx="9.27" cy="-5.75" r="1.5"/>
			</defs>
			<clipPath id="SVGID_00000179622576798708785780000002515573179952542393_">
				<use xlink:href="#SVGID_00000098913319980225311340000006168362859855001770_"  style="overflow:visible;"/>
			</clipPath>
			<g style="clip-path:url(#SVGID_00000179622576798708785780000002515573179952542393_);">
				<rect x="9.37" y="-7.46" class="st0" width="2.99" height="2.99"/>
				<circle class="st2" cx="10.87" cy="-5.96" r="1.5"/>
			</g>
			<g style="clip-path:url(#SVGID_00000179622576798708785780000002515573179952542393_);">
				<rect x="9.37" y="-4.46" class="st0" width="2.99" height="2.99"/>
				<circle class="st2" cx="10.87" cy="-2.97" r="1.5"/>
			</g>
			<g style="clip-path:url(#SVGID_00000179622576798708785780000002515573179952542393_);">
				<rect x="6.38" y="-7.46" class="st0" width="2.99" height="2.99"/>
				<circle class="st2" cx="7.87" cy="-5.96" r="1.5"/>
			</g>
			<g style="clip-path:url(#SVGID_00000179622576798708785780000002515573179952542393_);">
				<rect x="6.38" y="-4.46" class="st0" width="2.99" height="2.99"/>
				<circle class="st2" cx="7.87" cy="-2.97" r="1.5"/>
			</g>
		</g>
		<g>
			<defs>
				<circle id="SVGID_00000041976153335976789730000018006443465015159175_" cx="2.89" cy="-10" r="1.5"/>
			</defs>
			<clipPath id="SVGID_00000158029295227756912880000009973080485415164297_">
				<use xlink:href="#SVGID_00000041976153335976789730000018006443465015159175_"  style="overflow:visible;"/>
			</clipPath>
			<g style="clip-path:url(#SVGID_00000158029295227756912880000009973080485415164297_);">
				<rect x="2.99" y="-11.71" class="st0" width="2.99" height="2.99"/>
				<circle class="st2" cx="4.49" cy="-10.21" r="1.5"/>
			</g>
			<g style="clip-path:url(#SVGID_00000158029295227756912880000009973080485415164297_);">
				<rect x="2.99" y="-8.72" class="st0" width="2.99" height="2.99"/>
				<circle class="st2" cx="4.49" cy="-7.22" r="1.5"/>
			</g>
			<g style="clip-path:url(#SVGID_00000158029295227756912880000009973080485415164297_);">
				<rect y="-11.71" class="st0" width="2.99" height="2.99"/>
				<circle class="st2" cx="1.5" cy="-10.21" r="1.5"/>
			</g>
			<g style="clip-path:url(#SVGID_00000158029295227756912880000009973080485415164297_);">
				<rect y="-8.72" class="st0" width="2.99" height="2.99"/>
				<circle class="st2" cx="1.5" cy="-7.22" r="1.5"/>
			</g>
		</g>
	</g>
</pattern>
<g>
	<g>
		<path class="st7" d="M270.88,362.42l3.55,20.47c0,0-4.16,6.63-5.05,16.29c-0.79,8.59,40.77,12.27,44.04,1.22
			s-8.59-20.04-8.59-20.04l-4.58-17.95L270.88,362.42z"/>
		<path class="st8" d="M303.08,373.49c-9.83-0.85-23.8-2.54-30.87-3.42l-1.32-7.64l29.37-0.01L303.08,373.49z"/>
		<path class="st7" d="M224.62,365.12l1.05,18.17c0,0-19.22-0.65-26.19,11.64c-4.72,8.32-1.46,9.46-1.46,9.46l55.75-0.76
			c3.48-0.05,6.19-3.03,5.89-6.5l-2.81-33.31L224.62,365.12z"/>
		<path class="st9" d="M253.77,403.63l-55.74,0.76c0,0-3.26-1.13,1.46-9.46c2.25-3.97,5.78-6.59,9.53-8.32
			c7.41,3.11,12.92,7.29,12.92,7.29l25.55-0.23c0,0,6.75-4.93,11.32-6.82l0.86,10.28C259.96,400.6,257.24,403.58,253.77,403.63z"/>
		<polygon class="st8" points="257.17,367.59 225.12,373.85 224.62,365.12 256.85,363.82 		"/>
		<path class="st10" d="M225.21,184.86c0,0-23.73,96.22-2.88,180.18l34.88-0.61l3.49-180.18L225.21,184.86z"/>
		<path class="st11" d="M257.36,356.74l-0.15,7.69l-34.88,0.61c-0.7-2.81-1.35-5.64-1.95-8.48L257.36,356.74z"/>
		<path class="st12" d="M258.39,303.8l-1.03,52.94c0,0-13.75-43.91-13.75-77.49L258.39,303.8z"/>
		<path class="st9" d="M313.43,400.41c-3.28,11.04-44.83,7.37-44.05-1.22c0.46-5.03,1.81-9.23,2.99-12.11l6.41,8.67
			c0,0,14.27-5.76,26.7-1.38l-0.65-14c0,0,0.01,0,0.01,0.01C305.27,380.69,316.64,389.57,313.43,400.41z"/>
		<path class="st10" d="M242.35,184.25l49.56,0.61c3.91,9.49,8.62,23.95,10.12,37.34c3.06,27.28-0.38,50.78-4.01,68.16
			c-1.47,7.03-1.77,14.25-0.9,21.38c2.13,17.49,9.77,37.71,11.7,53.85l-42.42,0.06c0,0-13.61-31.15-20.43-70.96
			c-1.87-10.94-3.23-22.54-3.66-34.32c-0.29-7.98-0.32-22.65-0.27-37.01"/>
		<path class="st11" d="M310.13,366.04l-43.74-0.39c0,0-1.18-2.7-3.02-7.52l44.42-1.05C308.14,360.01,309.81,363.31,310.13,366.04z"
			/>
		<path class="st13" d="M238.38,48c-19.48,5.22-24.95,38.3-15.1,45.13c9.85,6.83,26.22,1.27,26.22,1.27l-5.4-41.31L238.38,48z"/>
		<path class="st14" d="M212.67,106.24c-1.47-2.33-4.04-11.64,3.25-16.66c7.29-5.02,20.73-1.4,23.42,5.52
			c2.7,6.92,0.17,9.25,0.17,9.25l-26.73,1.91"/>
		<path class="st2" d="M266,97.03c32.13,9.24,25.91,87.83,25.91,87.83h-66.69c0,0-4.28-48.95,14.96-79.57L266,97.03z"/>
		<path class="st13" d="M238.38,48c12.41-5.27,28.49,2.1,32.34,21.36c3.85,19.27-15.9,23.6-15.9,23.6L238.38,48z"/>
		<path class="st7" d="M227.67,72.28c0.83,7.67,3.94,20.06,15.31,20.53c0,0.53,1.23,9.84-2.81,12.48c-0.88,5.1,20.91,0.7,25.83-8.26
			c0,0-5.8-4.92-7.03-16.87c0,0,5.35-2.16,4.33-7.08c-1.12-5.38-4.99-4.2-4.99-4.2l-1.81-6.54c-2.78-0.93-10.4-5.26-19.38-2
			c-1.67,0.61-3.17,1.33-4.49,2.09C229.18,64.43,227.24,68.32,227.67,72.28z"/>
		<path class="st15" d="M257.32,71.9c1.3-0.65,3.25,0,3.9,1.21"/>
		<path class="st7" d="M239.11,104.82c-0.61,5.66-0.68,14.73-11.3,15.15c-0.39,0.02-0.91,7.26,2.07,9.21
			c0.65,3.76-15.43,0.52-19.06-6.1c0,0,4.28-3.63,5.19-12.45c0,0-3.95-1.59-3.2-5.22c0.82-3.97,3.68-3.1,3.68-3.1l1.33-4.83
			c2.05-0.69,7.68-3.88,14.3-1.47c1.24,0.45,2.34,0.98,3.31,1.55C237.99,99.03,239.42,101.89,239.11,104.82z"/>
		<circle class="st14" cx="224.98" cy="104.74" r="1.09"/>
		<circle class="st14" cx="234.53" cy="106.66" r="1.09"/>
		<path class="st16" d="M230.42,106.81c0,0,0.86,1.49,0.62,1.82s-1.2,0.63-1.31,0.57"/>
		<path class="st16" d="M231.96,111.36c-0.34,0.17-4.01,1.17-5.28-1.58"/>
		<path class="st17" d="M217.22,104.54c-0.96-0.48-2.4,0-2.88,0.89"/>
		<path class="st13" d="M237.13,60.34c9.28,9.25,21.18,8.54,21.18,8.54l-0.85-8.67l-13.84-3.54L237.13,60.34z"/>
		<path class="st18" d="M229.13,177.9c4.53,4.41,4.64,4.53,5.69,8.82s3.13,8.36,5.8,9.63c2.67,1.28,19.38-0.7,19.96-4.41
			c0.58-3.71-7.2-6.85-7.89-8.47c-0.7-1.62-5.57-10.68-5.57-10.68L229.13,177.9z"/>
		<path class="st18" d="M215.72,117.46c4.66-2.07,10.21-1.32,13.84,2.26c2.89,2.85,3.79,6.67,3.79,12.6c0,9.23-2.18,16.79,0.77,20
			s0.9,11.15,0.9,11.15s-6.85,7.89-17.82,7.18c-15.89-1.03-22.82-25.89-9.87-45.76C207.33,124.89,209.35,120.28,215.72,117.46z"/>
		
			<pattern  id="SVGID_00000159448232926314679810000009627331700643721657_" xlink:href="#Unnamed_Pattern_3" patternTransform="matrix(0.8165 0 0 0.8165 -1060.9067 -1216.2886)">
		</pattern>
		<path style="fill:url(#SVGID_00000159448232926314679810000009627331700643721657_);" d="M215.72,117.54
			c4.66-2.07,10.21-1.32,13.84,2.26c2.89,2.85,3.79,6.67,3.79,12.6c0,9.23-2.18,16.79,0.77,20c2.95,3.2,0.9,11.15,0.9,11.15
			s-6.85,7.89-17.82,7.18c-15.89-1.03-22.82-25.89-9.87-45.76C207.33,124.97,209.35,120.37,215.72,117.54z"/>
		<path class="st14" d="M224.53,93.97c-1.77,3.4-7.51,9.07-7.51,9.07l-1.7-1.49l0.21-5.67L224.53,93.97z"/>
		<path class="st14" d="M217.94,94.35c2.27,0.57,5.67,5.53,5.74,5.24c0.07-0.28,0.92-5.81,0.92-5.81L217.94,94.35z"/>
		<path class="st7" d="M237.43,127.91c-1.23-1.82-2.75-7.15-1.48-7.65c1.27-0.5,2.3,0.09,2.3,0.09s1.55-3.14,3.37-3
			c1.82,0.14,1.87,1.46,1.87,1.46s1.39-0.69,1.94,0.36c0.55,1.05,0.29,1.51,0.29,1.51c0.41,0.11,1.31-0.2,2.09,1.5
			c0.45,0.98,0.36,1.9,0.13,3.01c-0.18,0.89-0.62,2.39-1.82,4c-2.78-0.39-5.55-0.79-8.33-1.18"/>
		<g>
			<path class="st18" d="M234.72,149.08c-1.13,0-2.27-0.23-3.37-0.7c-2.41-1.02-7.02-4.49-10.83-16.21
				c-1.05-3.24,0.72-6.72,3.96-7.78c3.24-1.05,6.72,0.72,7.78,3.96c0.55,1.67,1.29,3.48,2.03,5.04c0.27-1.11,0.49-2.31,0.58-3.41
				c0.29-3.39,3.28-5.91,6.66-5.62c3.39,0.28,5.91,3.25,5.63,6.64c-0.26,3.16-1.65,13.76-8.79,17.23
				C237.21,148.8,235.97,149.08,234.72,149.08z"/>
		</g>
		
			<pattern  id="SVGID_00000177466178602105375260000006570687680453612170_" xlink:href="#Unnamed_Pattern_3" patternTransform="matrix(0.8165 0 0 0.8165 -1060.9067 -1216.2886)">
		</pattern>
		<path style="fill:url(#SVGID_00000177466178602105375260000006570687680453612170_);" d="M229.13,177.99
			c4.53,4.41,4.64,4.53,5.69,8.82c1.04,4.29,3.13,8.36,5.8,9.63c2.67,1.28,19.38-0.7,19.96-4.41c0.58-3.71-7.2-6.85-7.89-8.47
			s-5.57-10.68-5.57-10.68L229.13,177.99z"/>
		<g>
			
				<pattern  id="SVGID_00000127008148299032135190000000443493215690956735_" xlink:href="#Unnamed_Pattern_3" patternTransform="matrix(0.8165 0 0 0.8165 -1060.9067 -1216.2886)">
			</pattern>
			<path style="fill:url(#SVGID_00000127008148299032135190000000443493215690956735_);" d="M234.72,149.17
				c-1.13,0-2.27-0.23-3.37-0.7c-2.41-1.02-7.02-4.49-10.83-16.21c-1.05-3.24,0.72-6.72,3.96-7.78c3.24-1.05,6.72,0.72,7.78,3.96
				c0.55,1.67,1.29,3.48,2.03,5.04c0.27-1.11,0.49-2.31,0.58-3.41c0.29-3.39,3.28-5.91,6.66-5.62c3.39,0.28,5.91,3.25,5.63,6.64
				c-0.26,3.16-1.65,13.76-8.79,17.23C237.21,148.88,235.97,149.17,234.72,149.17z"/>
		</g>
		<path class="st7" d="M208.57,136.1h-4.93c0.02-0.13,0.05-0.25,0.07-0.38h3.68c1.52,0,2.75-1.23,2.75-2.75v0
			c0-1.52-1.23-2.75-2.75-2.75h-2.69c0.05-0.26,0.07-0.41,0.07-0.41s0.71-0.81,1.72-2.94c1.01-2.13-1.72-4.66-1.72-4.66l-6.38,6.18
			c0,0-4.56-0.2-5.16,2.13c-0.38,1.47,1.22,3.65,1.22,3.65s-2.43,1.82-2.33,3.34c0.1,1.52,2.13,2.73,2.13,2.73s-1.62,3.04,0.41,5.37
			c2.03,2.33,6.99,2.23,6.99,1.92c0-0.01,0-0.04,0.01-0.08h5.75c1.52,0,2.75-1.23,2.75-2.75c0-1.52-1.23-2.75-2.75-2.75h-4.8
			c0.02-0.13,0.05-0.25,0.07-0.38h5.91c1.52,0,2.75-1.23,2.75-2.75v0C211.31,137.33,210.08,136.1,208.57,136.1z"/>
		<path class="st22" d="M245.77,293.33"/>
		<path class="st7" d="M242.98,92.81c0,0,5.68,0.02,8.59-4.25"/>
		<g>
			<circle class="st14" cx="246.81" cy="72.17" r="1.48"/>
			<circle class="st14" cx="233.87" cy="74.77" r="1.48"/>
			<g>
				<path class="st16" d="M239.43,74.55c0,0-1.47,2.55-1.06,3.1c0.42,0.56,2.04,1.07,2.23,0.98"/>
				<path class="st16" d="M237.36,81.14c0.46,0.23,5.43,1.58,7.15-2.14"/>
			</g>
			<path class="st15" d="M230.93,71.56c0,0,1.22-1.17,2.66-0.67"/>
			<path class="st15" d="M243.53,68.23c0,0,1.83-1.17,3.61-0.56"/>
		</g>
		
			<ellipse transform="matrix(0.9556 -0.2947 0.2947 0.9556 -11.1149 76.5312)" class="st23" cx="248.33" cy="75.14" rx="2.91" ry="1.53"/>
		
			<ellipse transform="matrix(0.9556 -0.2947 0.2947 0.9556 -12.7995 72.5691)" class="st23" cx="234.35" cy="78.75" rx="2.91" ry="1.53"/>
		<g>
			
				<ellipse transform="matrix(0.2064 -0.9785 0.9785 0.2064 72.9583 304.1902)" class="st23" cx="224.01" cy="107.12" rx="0.94" ry="1.69"/>
			
				<ellipse transform="matrix(0.2064 -0.9785 0.9785 0.2064 78.9778 316.2336)" class="st23" cx="234.44" cy="109.43" rx="0.94" ry="1.69"/>
		</g>
		<g>
			<path class="st24" d="M274.26,205.59c0,0,0.97,24.61,19.78,28.47"/>
			<path class="st24" d="M299.13,356.96c-21.43-34.93-15.78-128.41-15.78-128.41"/>
		</g>
		<path class="st25" d="M237.23,186.35l-4.54-31.4l24.57-3.16l-4.48-19.93c-1.92-8.55,3.45-17.03,12-18.95l0,0
			c8.55-1.92,17.03,3.45,18.95,12l8.23,36.65c0.97,4.31,0.09,8.83-2.41,12.47c-2.51,3.64-6.42,6.07-10.79,6.7L237.23,186.35z"/>
		<line class="st26" x1="257.26" y1="151.78" x2="265.26" y2="156.38"/>
		<path class="st7" d="M233.76,161.5c0,0-3.73-3.2-7.68-3.73c-3.95-0.53-5.33-0.53-5.33-0.53s-4.91-2.99-6.19-2.13
			s-1.17,5.01,1.28,6.61c2.45,1.6,2.45,1.6,2.45,1.6s-9.49,5.97-9.49,8.32s2.35,3.52,3.95,2.99c-0.43,3.52,2.4,5.73,4.05,4.59
			c0,0-0.11,3.31,1.71,3.73c1.81,0.43,12.69-4.8,13.12-4.8c0.43,0,4.48-0.11,4.48-0.11L233.76,161.5z"/>
		<path class="st24" d="M235.35,220.53l5.58,8.01c0,0,0.33,35.25,2.68,50.7"/>
	</g>
	<g>
		<g>
			<path class="st14" d="M117.7,164.67c-0.48,0-0.96-0.23-1.26-0.65c-7.42-10.37-27.82-22.05-60.62-34.7
				c-4.19-1.62-4.36-1.68-4.21-2.94c0.08-0.71,0.65-1.27,1.35-1.36c0.41-0.05,0.81,0.06,1.12,0.29c0.44,0.19,1.61,0.64,2.85,1.12
				c50.3,19.4,59.13,31.74,62.03,35.79c0.5,0.7,0.34,1.67-0.36,2.17C118.33,164.58,118.01,164.67,117.7,164.67z"/>
		</g>
		<g>
			<path class="st7" d="M54.02,24.16c0,0,3.53,0.8,3.12,3.09s-7.46,4.62-7.46,4.62l-4.54-2.44L54.02,24.16z"/>
			<path class="st7" d="M51.67,21.46c0,0,2.72,0.78,2.31,3.08s-7.46,4.62-7.46,4.62l-4.54-2.44L51.67,21.46z"/>
			<path class="st7" d="M40.64,26.46c0,0,9.29,2.08,11.09,8c0,0-8.33,10.06-8.43,9.63c-0.1-0.43-4.5-3.92-4.5-3.92l1.37-13.98"/>
			<path class="st7" d="M27.99,35.67c0.35-0.35,9.88-13.76,13.13-15.1c3.26-1.34,9.69-1.77,10.73-0.04c1.04,1.74-0.12,3.47-1.27,3.7
				c-1.15,0.23-7.03,2.08-7.03,2.08S42.3,38.84,38.2,42L27.99,35.67z"/>
			<path class="st7" d="M43.48,41.19c0,0,3.21-5.31,5.36-6.06c2.15-0.76,3.47-1.5,3.47-1.5s0.26-1.61,0.81-3.19
				c0.55-1.58,2.88-0.57,2.88-0.57s1.2,6.89-0.15,9.62c-1.35,2.72-7.79,4.98-7.79,4.98l-5.55,2.08l-6.8,9.18L20.15,45.14l9.78-12.05
				"/>
		</g>
		<g>
			<path class="st7" d="M61.96,21.74c0,0-3.53,0.8-3.12,3.09s7.46,4.62,7.46,4.62L70.85,27L61.96,21.74z"/>
			<path class="st7" d="M64.31,19.03c0,0-2.72,0.78-2.31,3.08s7.46,4.62,7.46,4.62l4.54-2.44L64.31,19.03z"/>
			<path class="st7" d="M75.34,24.04c0,0-9.29,2.08-11.09,8c0,0,8.33,10.06,8.43,9.63c0.1-0.43,4.5-3.92,4.5-3.92l-1.37-13.98"/>
			<path class="st7" d="M88,33.25c-0.35-0.35-9.88-13.76-13.13-15.1c-3.26-1.34-9.69-1.77-10.73-0.04c-1.04,1.74,0.12,3.47,1.27,3.7
				c1.15,0.23,7.03,2.08,7.03,2.08s1.26,12.52,5.35,15.69L88,33.25z"/>
			<path class="st7" d="M72.5,38.76c0,0-3.21-5.31-5.36-6.06c-2.15-0.76-3.47-1.5-3.47-1.5s-0.26-1.61-0.81-3.19
				c-0.55-1.58-2.88-0.57-2.88-0.57s-1.2,6.89,0.15,9.62c1.35,2.72,7.79,4.98,7.79,4.98l5.55,2.08l6.8,9.18l15.56-10.59l-9.78-12.05
				"/>
		</g>
		<path class="st27" d="M110.99,236.94c0,0,3.15-3.47,7.46-4.83c4.27-1.35,11.92,1.35,12.82,10.11c0.67,6.53-4.48,33.8-5.16,38.04
			c-0.69,4.24-10.46,14.16-10.46,14.16l-11.59-16.66L110.99,236.94z"/>
		<path class="st28" d="M114.37,77.67c-5.83-28.07-25.21-44.67-25.85-45.5L65.7,49.97c0.11,0.14,11.07,14.61,15.24,34.66
			c2.89,13.9-5.56,34.77-9.66,42.92c-5.94-0.38-12.8-0.06-20.57,1.43C37.52,113.43,34.23,95.91,40.7,75.44
			c5.48-17.35,9.98-20.6,10.09-20.72l-23.22-19.4c-0.6,0.69-13.59,9.95-21.37,33.57c-10.78,32.74-0.06,62.13,22.09,87.27
			c1.54,11.07,5.17,25.35,13.52,39.2c5.63,0.95,12.42,1.63,20.09,1.46c11.68-0.26,21.47-2.42,28.73-4.64
			c1.1-2.28,2.79-6.05,4.36-10.87c0,0,3.07-9.43,5.53-35.99l0,0C102.58,141.55,120.56,107.46,114.37,77.67z"/>
		<ellipse class="st29" cx="54.53" cy="97.11" rx="18.7" ry="17.4"/>
		<path class="st7" d="M92.94,257.25l18.05-20.31c0,0,15.12-2.18,15.12,14.97c0,12.09-17.29,42-22.96,44.7
			C97.48,299.3,92.94,257.25,92.94,257.25z"/>
		<path class="st30" d="M28.44,385.94L0,403.7l59.43-1.48c0,0,0.53-8.57-2.13-16.28H28.44z"/>
		<path class="st7" d="M26.28,297.68l6.39,80.44l-6.37,8.95c0,0,3.37,9.9,8.81,9.9s21.97-9.9,21.97-9.9s-0.41-18.81,1.09-27.07
			c1.5-8.26,8.15-55.54,6.26-68.1L26.28,297.68z"/>
		<path class="st31" d="M113.84,260.46c-2.23-47.98-23.23-68.27-23.23-68.27l-26.66,1.69l0,0l-22.15,1.5c0,0-20.54,31.5-16.72,83.36
			c0.48,6.57,0.88,12.9,1.2,18.95c9.51,2.52,23.37,4.02,41.51,0.49l-0.09-26.73c4.41,21.82,11.17,29.7,25.46,28.6
			C109.71,298.78,114.84,281.98,113.84,260.46z"/>
		<path class="st7" d="M36.7,101.99c0.28,7.19,2.38,18.93,12.94,20.11c-0.03,0.49,0.51,9.24-3.42,11.44
			c-1.15,4.69,17.76,12.1,24.59-6.03c0,0-5.08-4.96-5.46-16.16c0,0,5.12-1.66,4.49-6.31c-0.69-5.09-4.38-4.24-4.38-4.24l-5.79-3.67
			c-2.53-1.05-6.23-11.96-13.39-5.64C37.55,88.27,36.55,98.26,36.7,101.99z"/>
		<path class="st16" d="M64.34,103.53c1.25-0.52,3.03,0.21,3.56,1.38"/>
		<circle class="st14" cx="54.53" cy="103.11" r="1.38"/>
		<circle class="st14" cx="42.32" cy="104.7" r="1.38"/>
		<path class="st16" d="M47.51,104.85c0,0-1.54,2.28-1.18,2.82c0.35,0.55,1.83,1.13,2.01,1.05"/>
		<path class="st16" d="M45.15,110.86c0.42,0.25,4.96,1.82,6.8-1.53"/>
		<path class="st15" d="M39.78,101.52c0,0,1.21-1.01,2.52-0.45"/>
		<path class="st15" d="M51.73,99.23c0,0,1.78-0.97,3.4-0.28"/>
		
			<ellipse transform="matrix(0.9736 -0.2282 0.2282 0.9736 -22.7134 15.5217)" class="st23" cx="55.76" cy="105.97" rx="2.72" ry="1.43"/>
		
			<ellipse transform="matrix(0.9736 -0.2282 0.2282 0.9736 -23.6249 12.5606)" class="st23" cx="42.5" cy="108.43" rx="2.72" ry="1.43"/>
		<path class="st32" d="M105.25,220.53"/>
		<g>
			<polyline class="st33" points="67.7,271.45 64.77,244.04 57.53,236.85 			"/>
			<path class="st33" d="M80.86,210.31c0,0,8.92,19.13,26.53,12.8"/>
		</g>
		<path class="st34" d="M44.04,305.57c0,0-1,3.13-4.69,5.83"/>
		<path class="st35" d="M24,286.8c0,0,31.49,2.39,44.57,0.69l-0.87,12.76c0,0-29.12,5.46-43.09-2.64L24,286.8z"/>
		<circle class="st29" cx="53.15" cy="74.19" r="13.74"/>
		<g>
			<path class="st14" d="M148.7,177.72l-15.5,33.95c-0.71,1.55-2.54,2.23-4.08,1.52l-27.24-12.43c-1.55-0.71-2.23-2.54-1.52-4.08
				l15.5-33.95c0.71-1.55,2.54-2.23,4.08-1.52l27.24,12.43C148.72,174.35,149.4,176.18,148.7,177.72z"/>
			
				<rect x="121.9" y="181.97" transform="matrix(0.4153 -0.9097 0.9097 0.4153 -96.6459 222.9016)" class="st36" width="6.35" height="9.33"/>
			<g>
				<polygon class="st36" points="110.91,205.03 110.04,204.36 124.56,185.77 127.86,164.98 128.94,165.16 125.59,186.22 				"/>
			</g>
		</g>
		<g>
			<defs>
				<path id="SVGID_00000036970868616962577140000011190215692276185499_" d="M114.37,77.67c-5.83-28.07-25.21-44.67-25.85-45.5
					L65.7,49.97c0.11,0.14,11.07,14.61,15.24,34.66c2.89,13.9-5.56,34.77-9.66,42.92c-5.94-0.38-12.8-0.06-20.57,1.43
					C37.52,113.43,34.23,95.91,40.7,75.44c5.48-17.35,9.98-20.6,10.09-20.72l-23.22-19.4c-0.6,0.69-13.59,9.95-21.37,33.57
					c-10.78,32.74-0.06,62.13,22.09,87.27c1.54,11.07,5.17,25.35,13.52,39.2c5.63,0.95,12.42,1.63,20.09,1.46
					c11.68-0.26,21.47-2.42,28.73-4.64c1.1-2.28,2.79-6.05,4.36-10.87c0,0,3.07-9.43,5.53-35.99l0,0
					C102.58,141.55,120.56,107.46,114.37,77.67z"/>
			</defs>
			<clipPath id="SVGID_00000034048024786336659440000012812439152780312711_">
				<use xlink:href="#SVGID_00000036970868616962577140000011190215692276185499_"  style="overflow:visible;"/>
			</clipPath>
			<g style="clip-path:url(#SVGID_00000034048024786336659440000012812439152780312711_);">
				<g>
					<path class="st38" d="M23.51,161.16l-0.27-3.09c1.42-0.13,77.81-6.06,81.06-6.31l0.24,3.1
						C103.74,154.92,24.91,161.04,23.51,161.16z"/>
				</g>
				<g>
					<path class="st38" d="M23.99,170.76l-0.27-3.09c1.42-0.13,77.81-6.06,81.06-6.31l0.24,3.1
						C104.22,164.52,25.39,170.64,23.99,170.76z"/>
				</g>
				<g>
					<path class="st38" d="M24.42,179.51l-0.27-3.09c1.42-0.13,77.81-6.06,81.06-6.31l0.24,3.1
						C104.65,173.26,25.83,179.38,24.42,179.51z"/>
				</g>
			</g>
		</g>
		<g>
			<path class="st14" d="M106.7,200.83c-0.16,0-0.32-0.02-0.48-0.08c-20.83-6.82-47.7-20.45-57.43-46.64
				c-5.86-15.76-2.71-28.43-2.57-28.96c0.21-0.83,1.06-1.33,1.89-1.12c0.83,0.21,1.33,1.06,1.12,1.89
				c-0.03,0.12-3.05,12.39,2.54,27.27c7.4,19.73,26.57,35.15,55.42,44.6c0.81,0.27,1.26,1.14,0.99,1.96
				C107.96,200.42,107.35,200.83,106.7,200.83z"/>
		</g>
	</g>
	<path class="st7" d="M616.2,0"/>
	<g>
		<g>
			<path class="st7" d="M587.25,15.21c0,0,3.67,1.62,2.72,4.02c-0.94,2.4-9.1,3.42-9.1,3.42l-4.41-3.63L587.25,15.21z"/>
			<path class="st7" d="M585.28,11.77c0,0,2.79,1.43,1.85,3.84c-0.94,2.4-9.1,3.42-9.1,3.42l-4.41-3.63L585.28,11.77z"/>
			<path class="st7" d="M572.23,14.85c0,0,9.64,4.24,10.33,11.06c0,0-11.2,9.14-11.22,8.65s-4.05-5.23-4.05-5.23l4.49-14.9"/>
			<path class="st7" d="M556.51,22.14c0.45-0.3,13.68-12.83,17.5-13.59c3.82-0.75,10.91,0.15,11.66,2.26
				c0.75,2.11-0.88,3.75-2.17,3.75s-8.08,0.75-8.08,0.75s-4.05,13.33-9.18,15.89L556.51,22.14z"/>
			<path class="st7" d="M572.16,31.45c0,0,4.63-5.07,7.12-5.43c2.49-0.36,4.09-0.89,4.09-0.89s0.62-1.69,1.56-3.29
				c0.94-1.6,3.25,0,3.25,0s-0.18,7.74-2.23,10.42c-2.05,2.67-9.53,3.74-9.53,3.74l-6.47,1.07l-9.36,8.52l-14.64-14.84l13.21-10.99"
				/>
		</g>
		<g>
			<path class="st7" d="M592.39,16.31c0,0-3.67,1.62-2.72,4.02c0.94,2.4,9.1,3.42,9.1,3.42l4.41-3.63L592.39,16.31z"/>
			<path class="st7" d="M594.36,12.87c0,0-2.79,1.43-1.85,3.84c0.94,2.4,9.1,3.42,9.1,3.42l4.41-3.63L594.36,12.87z"/>
			<path class="st7" d="M607.42,15.94c0,0-9.64,4.24-10.33,11.06c0,0,11.2,9.14,11.22,8.65s4.05-5.23,4.05-5.23l-4.49-14.9"/>
			<path class="st7" d="M623.14,23.23c-0.45-0.3-13.68-12.83-17.5-13.59s-10.91,0.15-11.66,2.26c-0.75,2.11,0.88,3.75,2.17,3.75
				s8.08,0.75,8.08,0.75s4.05,13.33,9.18,15.89L623.14,23.23z"/>
			<path class="st7" d="M607.49,32.54c0,0-4.63-5.07-7.12-5.43c-2.49-0.36-4.09-0.89-4.09-0.89s-0.62-1.69-1.56-3.29
				c-0.94-1.6-3.25,0-3.25,0s0.18,7.74,2.23,10.42c2.05,2.67,9.53,3.74,9.53,3.74l6.47,1.07l9.36,8.52l14.64-14.84l-13.21-10.99"/>
		</g>
		<g>
			<path class="st39" d="M500.25,199.99l-0.67-1.28c-2.6-4.97-8.4-7.51-13.73-5.76c-3.67,1.2-7.44,3.4-9.6,7.4
				c-5.16,9.57-15.49,53.61-14.12,59.45c1.37,5.85,7.44,12.36,14.58,12.22S500.25,199.99,500.25,199.99z"/>
			<path class="st40" d="M505.21,207.92l-0.84,3.51l-9.15,38.56c0,0-7.13,20.6-15.91,21.95c-5.24,0.82-12.59-3.79-13.53-10.44
				c-0.95-6.66,9.73-50.35,14.01-58.55c2.02-3.86,5.39-5.69,8.75-6.33c3.77-0.75,7.5,0,9.21,1
				C500.99,199.51,505.21,207.92,505.21,207.92z"/>
			<path class="st40" d="M505.21,207.92l-0.84,3.51l-9.15,38.56c0,0-7.13,20.6-15.91,21.95c-5.24,0.82-12.59-3.79-13.53-10.44
				c-0.75-5.29,5.82-33.91,10.71-49.6c1.26-4.08,2.42-7.27,3.3-8.96c2.02-3.86,5.39-5.69,8.75-6.33c0.17-0.03,0.36-0.07,0.53-0.1
				c3.59-0.58,7.04,0.14,8.67,1.1C500.99,199.51,505.21,207.92,505.21,207.92z"/>
			<path class="st39" d="M505.21,207.92l-0.84,3.51c-3.36,0.33-6.63,0.47-6.63,0.47l-9.21-15.29c3.77-0.75,7.5,0,9.21,1
				C500.99,199.51,505.21,207.92,505.21,207.92z"/>
			<path class="st39" d="M486.43,247.03l-8.96-1.25c-0.45-0.06-0.76-0.48-0.7-0.93l0.09-0.68c0.06-0.45,0.48-0.76,0.93-0.7
				l8.96,1.25c0.45,0.06,0.76,0.48,0.7,0.93l-0.09,0.68C487.29,246.77,486.88,247.09,486.43,247.03z"/>
			<path class="st39" d="M485.55,254.31l-8.96-1.25c-0.45-0.06-0.76-0.48-0.7-0.93l0.09-0.68c0.06-0.45,0.48-0.76,0.93-0.7
				l8.96,1.25c0.45,0.06,0.76,0.48,0.7,0.93l-0.09,0.68C486.41,254.05,486,254.37,485.55,254.31z"/>
			<path class="st39" d="M483.52,261.59l-8.96-1.25c-0.45-0.06-0.76-0.48-0.7-0.93l0.09-0.68c0.06-0.45,0.48-0.76,0.93-0.7
				l8.96,1.25c0.45,0.06,0.76,0.48,0.7,0.93l-0.09,0.68C484.39,261.33,483.97,261.65,483.52,261.59z"/>
			<path class="st18" d="M476.48,211.9c1.26-4.08,2.42-7.27,3.3-8.96c2.02-3.86,5.39-5.69,8.75-6.33c0.17-0.03,0.36-0.07,0.53-0.1
				l1.47,3.43C490.54,199.94,491.25,211.61,476.48,211.9z"/>
		</g>
		<path class="st7" d="M514.26,224.6l-9.05-16.68c-1.88-0.03-9.77-2.51-15.71,2.22c-7.09,5.64-8.1,13.64-8.27,15.18
			c2.42,5.52,4.85,11.04,7.27,16.56L514.26,224.6z"/>
		<path class="st41" d="M662.54,70.52c-1.79-13.75-18.53-35.37-32.25-51.1L602.36,43.8c9.7,11.11,19.72,24.69,22.83,30.76
			c-2.14,5.59-9.26,17.42-16.94,28.18l-43.8,3.44c-5.7-10.1-11.8-23.15-11.66-28.33c0.97-4.98,11.8-18.32,22.43-27.59l-24.3-27.99
			c-7.4,6.42-31.79,29.05-34.84,50.43c-1.56,10.92,2.03,24.49,11.3,42.7c3.36,6.61,11.56,21.16,15.27,24.86l15.46,49.92l59.07,0
			c3.28-10.01,6.43-22.17,8.39-36.17c0.75-5.37,1.25-10.5,1.57-15.38c0,0,14.63-18.71,21.18-29.16
			C659.67,91.42,663.79,80.12,662.54,70.52z"/>
		<circle class="st34" cx="592.85" cy="138.1" r="1.87"/>
		<circle class="st33" cx="592.85" cy="153.27" r="1.87"/>
		<path class="st42" d="M630.24,254.29c-3.6-22.99-8.11-44.39-13.07-64.09h-16.65h-19.06l-23.35,0
			c-28.64,27.06-28.64,59.78-28.64,59.78c-4.32-11.98-13.74-28.82-13.74-28.82c-23.34,6.23-31.37,24.09-31.37,24.09
			c7.2,49.51,35.99,71.42,49.43,67.3c8.62-2.64,31.66-25.68,47.17-48.71c0.16,0.98,0.33,1.95,0.5,2.92
			c6.4,34.55,27.34,96.03,27.34,96.03c10.03-0.85,20.05-1.71,30.08-2.56C638.65,328.75,636.33,293.09,630.24,254.29z"/>
		<polygon class="st7" points="608.8,362.8 612.01,377.26 609.66,398.14 668.1,398.14 642.15,378.99 638.88,360.23 		"/>
		<line class="st15" x1="529.47" y1="249.98" x2="525.39" y2="275.78"/>
		<path class="st26" d="M580.95,263.84c0,0,6.32-10.99,10.02-22.62"/>
		<path d="M589.41,299.95c-3.27-11.88-6.17-23.57-7.96-33.18c-0.17-0.97-0.35-1.95-0.5-2.92c0,0,3.44-4.62,10.02-22.63
			C590.98,241.22,595.66,275.85,589.41,299.95z"/>
		<path class="st2" d="M667.16,413.34c-5.49,0.16-46.65-5.4-56.33-6.72c-1.17-0.15-2.02-1.15-2.02-2.33v-24.79
			c0-1.08,0.72-2.05,1.78-2.29c0.69-0.15,1.35-0.07,1.43,0.75c0.19,1.83,10.23,7.08,13.25,4.44c1.99-1.74,10.56-10.02,14.7-8.83
			c1.83,0.52,3.3,0.83,5.02,1.66c8.27,3.98,29.89,16.9,34.74,24.73c0.19,0.31,0.35,0.62,0.48,0.91
			C684.16,410.13,673.39,413.16,667.16,413.34z"/>
		<path class="st18" d="M620.15,406.65c0,0.43-0.03,0.84-0.08,1.23c-4.01-0.54-7.28-0.99-9.25-1.25c-1.17-0.15-2.02-1.15-2.02-2.33
			v-15.12C614.79,391.98,620.09,398.17,620.15,406.65z"/>
		<path class="st39" d="M643.74,413.34c-5.49,0.16-46.65-5.4-56.33-6.72c-1.17-0.15-2.02-1.15-2.02-2.33v-2.98l55.39,7.51
			c2.5,0.34,4.98-0.72,6.47-2.76l1.01-1.38c1.81-2.49,4.54-4.16,7.58-4.65l0.46-0.07c0.19,0.31,0.35,0.62,0.48,0.91
			C660.74,410.13,649.97,413.16,643.74,413.34z"/>
		<line class="st15" x1="556.24" y1="194.19" x2="556.24" y2="194.19"/>
		<g>
			<path class="st43" d="M564.46,106.19c0,0-11.09,28.73-21.81,34.09"/>
			<path class="st43" d="M608.25,102.75c3.18,3.37,6.8,7.83,10.14,13.49c5.04,8.55,7.49,16.59,8.75,22.42"/>
			<line class="st43" x1="589.94" y1="124.74" x2="590.43" y2="190.2"/>
			<line class="st43" x1="594.59" y1="122.97" x2="596.08" y2="190.2"/>
			<circle class="st43" cx="592.85" cy="168.44" r="1.87"/>
			<line class="st43" x1="541.55" y1="31.11" x2="566.63" y2="58.57"/>
			<line class="st43" x1="610.02" y1="52.99" x2="637.58" y2="28.02"/>
		</g>
		<g>
			<ellipse class="st13" cx="588.71" cy="72.22" rx="18.62" ry="19.21"/>
			<path class="st7" d="M576.84,105.81c0.35,0.85,4.33,9.07,12.03,11.29c7.63,2.21,11.45-2.74,12.21-3.27
				c1.28-7.81,1.67-11.31,2.95-19.12l-20.27-5.51L576.84,105.81z"/>
			
				<ellipse transform="matrix(0.9846 -0.1745 0.1745 0.9846 -4.3451 107.0784)" class="st7" cx="606.59" cy="78.24" rx="4.16" ry="4.81"/>
			
				<ellipse transform="matrix(0.9846 -0.1745 0.1745 0.9846 -5.9008 101.5309)" class="st7" cx="574.27" cy="84.31" rx="4.16" ry="4.81"/>
			<path class="st7" d="M576.86,89.73l-1.96-10.28c0.9,0.2,2.43,0.13,2.81-1.73c0.98-4.89,11.28-15.27,16.59-14.42
				c5.31,0.85,11.19,10.26,11.19,10.26s0.03,0,0.08-0.01l1.97,10.32c1.54,8.07-3.76,15.87-11.83,17.41l-1.44,0.27
				C586.2,103.11,578.4,97.81,576.86,89.73z"/>
			<circle class="st14" cx="584.28" cy="81.99" r="1.6"/>
			<circle class="st14" cx="598.34" cy="79.22" r="1.6"/>
			<path class="st16" d="M592.14,83.06c0,0,2.54,1.94,2.35,2.67s-1.6,1.92-1.83,1.91"/>
			<path class="st15" d="M595.66,74.04c0,0,2.98-2.16,5.28,0.59"/>
			<path class="st15" d="M585.42,76.07c0,0-3.72-0.6-5.19,2.68"/>
			<path class="st13" d="M589.3,53.99c0,0-2.39-3.51-7.86-2.76s-3.63,1.33-3.63,1.33l5.59,1.25c0,0-9.21,0.66-11.4,3.99
				c0,0,7.49-1.14,8.21,0.48C580.96,59.88,589.3,53.99,589.3,53.99z"/>
		</g>
		<g>
			<path class="st39" d="M649.7,379.05l-6.78,5.98c-0.34,0.3-0.86,0.27-1.16-0.07l-0.45-0.51c-0.3-0.34-0.27-0.86,0.07-1.16
				l6.78-5.98c0.34-0.3,0.86-0.27,1.16,0.07l0.45,0.51C650.07,378.23,650.04,378.75,649.7,379.05z"/>
			<path class="st39" d="M666.76,386.7l-6.12,6.65c-0.31,0.34-0.83,0.36-1.17,0.05l-0.51-0.47c-0.34-0.31-0.36-0.83-0.05-1.17
				l6.12-6.65c0.31-0.34,0.83-0.36,1.17-0.05l0.51,0.47C667.04,385.84,667.06,386.37,666.76,386.7z"/>
			<path class="st39" d="M658.52,382.95l-6.12,6.65c-0.31,0.34-0.83,0.36-1.17,0.05l-0.51-0.47c-0.34-0.31-0.36-0.83-0.05-1.17
				l6.12-6.65c0.31-0.34,0.83-0.36,1.17-0.05l0.51,0.47C658.81,382.09,658.83,382.62,658.52,382.95z"/>
		</g>
		<g>
			<path class="st26" d="M570.43,197.58c0,0-2.99,23.79-31.07,21.68"/>
			<path class="st26" d="M597.84,215.29c0,0-0.55,14.35-2.45,22.94c-0.39,1.74-1.92,2.99-3.7,2.99h-0.43c-2.41,0-4.2-2.21-3.7-4.57
				c1.28-6.03,3.26-16.44,2.87-21.36"/>
			<path class="st26" d="M609.56,197.58c0,0-3.7,19.52,14.57,23.84"/>
			<line class="st26" x1="553.02" y1="197.58" x2="618.99" y2="197.58"/>
		</g>
		<g>
			<path class="st41" d="M576.9,101.83l15.89,16.61c0,0-6.2,11.71-7.12,10.97s-16.62-19.53-16.62-19.53L576.9,101.83z"/>
			<path class="st41" d="M592.79,118.44l5.37,10.69c0,0,9.58-10.25,11.81-20.87l-6.17-5.48L592.79,118.44z"/>
		</g>
		<g>
			<circle class="st34" cx="584.28" cy="83.06" r="4.79"/>
			<circle class="st34" cx="598.56" cy="79.67" r="4.79"/>
			<line class="st34" x1="588.71" y1="81.71" x2="594.23" y2="80.39"/>
		</g>
		<g>
			<path class="st44" d="M597.6,93.53c1.11-2,1.1-4.79,1.1-4.79s-6.61,1.6-9.95,1.57c0,0,0.18,0.44,0.51,1.07
				C592.01,91.03,595.72,91.44,597.6,93.53z"/>
			<path class="st45" d="M594.85,95.52c1.32-0.13,2.18-0.96,2.75-1.99c-1.89-2.09-5.59-2.5-8.34-2.15
				C590.12,92.98,592.05,95.79,594.85,95.52z"/>
		</g>
	</g>
	<g>
		<g>
			<path class="st7" d="M488.5,382.1c-5.01,3.34-25.22,2.27-26.76,0l0,0l-0.04-8.46l36.56-4.41l0.03,3.77
				c-0.04,0-0.09,0.01-0.13,0.03C496.62,373.74,493.51,378.76,488.5,382.1z"/>
			<path class="st7" d="M417.65,382.1c5.01,3.34,25.22,2.27,26.76,0l0,0l0.04-8.46l-36.56-4.41l-0.03,3.77
				c0.04,0,0.09,0.01,0.13,0.03C409.53,373.74,412.63,378.76,417.65,382.1z"/>
			<g>
				<polygon class="st46" points="523.31,34.53 515.99,66.39 505.97,71.65 512.14,101.07 546.69,85.14 543.22,36.97 				"/>
				<path class="st46" d="M548.04,11.94c-1.42-0.34-2.84,0.54-3.17,1.96l-1.57,6.63l-0.99-0.05l1.48-10.28
					c0.21-1.44-0.79-2.78-2.23-2.98c-1.44-0.21-2.78,0.79-2.98,2.23l-1.55,10.77l-1.74-0.08l0.2-11.04
					c0.03-1.46-1.13-2.66-2.59-2.68l0,0c-1.46-0.03-2.66,1.13-2.68,2.59l-0.2,10.88l-1.48-0.07l-0.54-8.53
					c-0.09-1.45-1.34-2.56-2.8-2.46c-1.45,0.09-2.56,1.34-2.46,2.8l0.5,7.94l-0.05,0l-0.39,10.6c-0.33,6.86,4.02,11.95,10.88,12.29
					c6.86,0.33,13.64-4.21,13.97-11.08l0.28-7.55l2.06-8.7C550.33,13.69,549.45,12.27,548.04,11.94z"/>
				<path class="st46" d="M527.5,40.36c-4-2.66-8.26-7.85-9.78-11.21s-2.55-5.65-2.55-5.65s2.34-1.63,3.86,0.58s3.33,3.15,3.33,3.15
					s3.66-1.35,6.74,1.61"/>
				<path class="st46" d="M543.48,26.44c0,0-7.45,1.8-8.99,6.04"/>
			</g>
			<polygon class="st9" points="408.99,102.95 369.8,122.98 385.01,154.2 419.44,143.59 422.44,111.57 			"/>
			<path class="st28" d="M505.9,112.1c0,0-14.38,6.47-22.47,13.48l6.98,31.32l15.49-10.35V112.1z"/>
			<path class="st47" d="M515.99,101.42l-10.02-31.69L441.2,87.38l-32.22,15.49c4.33,16.07,8,35.19,9.33,56.86
				c0.56,9.04,0.65,17.61,0.42,25.64c25.23-3.04,50.46-6.08,75.69-9.12c0.06-11.05-0.7-23.71-3.01-37.53
				c-1.11-6.65-3.78-18.75-5.27-24.54C496.5,112.12,508.08,107.53,515.99,101.42z"/>
			<path class="st7" d="M458.84,95.21c-0.34,0.82-3.15,7.35-10.58,9.5c-7.37,2.13-13.2-1.82-13.94-2.33
				c-1.24-7.55-2.47-15.09-3.71-22.64l19.58-5.32L458.84,95.21z"/>
			<path class="st18" d="M454.15,61.89l-32.84,6.46l-1.83-9.55c-1.79-9.07,4.12-17.87,13.19-19.65l0,0
				c9.07-1.79,17.87,4.12,19.65,13.19L454.15,61.89z"/>
			
				<ellipse transform="matrix(0.9763 -0.2163 0.2163 0.9763 -5.4129 92.9174)" class="st7" cx="421.79" cy="71.19" rx="4.02" ry="4.65"/>
			
				<ellipse transform="matrix(0.9763 -0.2163 0.2163 0.9763 -3.1535 99.5781)" class="st7" cx="453.35" cy="64.2" rx="4.02" ry="4.65"/>
			<path class="st7" d="M453.75,70.17l-2.06-9.9c-0.73,0.52-1.8,0.74-3.15-0.51c-2.63-2.44-15.89-7.24-20.31-4.51
				c-4.42,2.73-6.02,11.1-6.02,11.1s-0.03,0.01-0.07,0.02l2.07,9.94c1.62,7.77,9.23,12.77,17,11.15l1.39-0.29
				C450.37,85.55,455.36,77.94,453.75,70.17z"/>
			<circle class="st14" cx="444.27" cy="66.01" r="1.55"/>
			<circle class="st14" cx="430.7" cy="68.74" r="1.55"/>
			<path class="st15" d="M431.46,63.99c0,0-3.46-0.83-4.49,2.48"/>
			<path class="st15" d="M441.06,61.15c0,0,3.1-1.91,5.62,0.46"/>
			<g>
				<g>
					<path class="st16" d="M437.65,69.87c0,0-1.55,2.67-1.11,3.26s2.14,1.12,2.34,1.02"/>
					<path class="st16" d="M434.97,77.54c0.49,0.24,7.22,1.15,9.67-3.22"/>
					<path class="st16" d="M444,73.12c0,0-0.1,1.19,2.37,2.12"/>
				</g>
				<path class="st16" d="M439.71,80.3c0,0,0.98,0,2.06-0.46"/>
			</g>
			<path class="st9" d="M418.75,185.45c0,0-25.4,132.25-12.48,183.37l41.04,0.57c1.79-16.04,3.27-32.82,4.32-50.3
				c1.41-23.41-0.19-75.41-0.34-96.46c-0.15,23.7,2.63,78.49,4.4,104.82c0.99,14.69,2.27,28.93,3.78,42.7
				c13.68-0.17,27.36-0.35,41.05-0.52c0,0,7.51-131.02-6.08-193.3L418.75,185.45z"/>
			<path class="st14" d="M426.01,55.24c2.27,4.54,7.34,6.57,10.57,6.45c0,0-3.7-3.05-3.88-5.79c0,0,5.25,3.54,9.08,3.52
				c1.91-0.01,0.74-0.75,0.74-0.75s-1.7-1.4-1.64-3.25C440.88,55.42,433.95,49.57,426.01,55.24z"/>
			<path class="st48" d="M450.86,56.69c-3.75-3.54-11.65-7.59-21.02-6.14c-1.73,0.27-3.3,0.72-4.72,1.3
				c-8.12,3.31-11.43,10.92-10.79,13.56c0.71,2.93,7.13,1.16,7.83,0.96c0.04-0.01,0.07-0.02,0.07-0.02s1.6-8.37,6.02-11.1
				c4.42-2.73,17.68,2.07,20.31,4.51c1.34,1.25,2.42,1.02,3.15,0.51c0.7-0.5,1.08-1.26,1.08-1.26
				C452.38,58.32,451.73,57.52,450.86,56.69z"/>
			<path class="st49" d="M423.44,117.57l49.81-16.5c7.3,21.5,16.14,49.58,22.14,75.71c7.5,32.67,12.1,63,14.85,90.17
				c-12.07,2.94-26.89,4.68-43.74,6.2c-23.34,2.1-49.6,2.2-61.32-5.81l14.06-84.76L423.44,117.57z"/>
			<path class="st50" d="M444.47,376.88h-38.47l-1.97-11.96c-0.22-1.35,0.82-2.59,2.2-2.59h42.29l-0.97,11.76
				C447.4,375.68,446.06,376.88,444.47,376.88z"/>
			<circle class="st51" cx="471.67" cy="110.07" r="1.9"/>
			<circle class="st51" cx="426.8" cy="120.95" r="1.9"/>
			<line class="st43" x1="471.96" y1="110.81" x2="458.32" y2="82.7"/>
			<line class="st43" x1="426.8" y1="120.95" x2="426.96" y2="94.05"/>
			<path class="st50" d="M504.42,377.14l-41.6-0.6c-1.59-0.02-2.9-1.25-3.04-2.83l-1.01-11.63l45.65,0.25V377.14z"/>
			<g>
				<path class="st2" d="M460.34,382.82c0.12-4.56,0.96-4.39,2.49-2.12c1.54,2.27,21.74,3.34,26.76,0c5.01-3.34,8.12-8.36,9.67-9.07
					c0.04-0.02,0.09-0.03,0.13-0.03c1.51-0.05,2.97,10.72,2.97,10.72l19.8,8.93l3.23,11.34l-58.49,0.78
					c-2.29,0.03-4.25-1.63-4.61-3.89C461.5,394.42,460.26,385.94,460.34,382.82z"/>
				<g>
					<path class="st52" d="M460.76,391.48c0.11,0.81,0.22,1.62,0.33,2.42c6.44,1.45,9.65,6.25,11.1,9.39l2.46-0.03
						C473.13,399.64,469.23,393.02,460.76,391.48z"/>
				</g>
			</g>
			<path class="st15" d="M434.1,105.33c0,0,17.37,8.6,25.84-7.14"/>
		</g>
		<g>
			<path class="st2" d="M446.9,383.38c0.05,1.73-0.32,5.13-0.78,8.66c-0.11,0.81-0.22,1.62-0.33,2.42
				c-0.29,2.02-0.58,3.97-0.83,5.58c-0.35,2.26-2.32,3.92-4.6,3.89l-5.66-0.07l-2.46-0.03l-50.38-0.68l3.23-11.33l19.8-8.93
				c0,0,1.47-10.77,2.97-10.72c0.05,0,0.09,0.01,0.13,0.03c1.55,0.72,4.66,5.73,9.68,9.07c5.01,3.35,25.21,2.27,26.76,0
				C445.94,378.98,446.78,378.81,446.9,383.38z"/>
			<g>
				<path class="st52" d="M446.11,392.04c-0.11,0.81-0.22,1.62-0.33,2.42c-6.44,1.45-9.65,6.25-11.1,9.39l-2.46-0.03
					C433.74,400.2,437.64,393.57,446.11,392.04z"/>
			</g>
		</g>
	</g>
	<g>
		<g>
			<path class="st7" d="M539.11,401.79l-3.74-26.81l-1.63-87.04l-39.44-4.84l15.91,91.33c0,0-3.17,13.05-12.02,16.88
				c-8.85,3.84-19.48,3.54-18.29,17.11c30.94-0.16,45.99-0.06,53.31,0.06C536.82,408.54,539.62,405.36,539.11,401.79z"/>
			<path class="st18" d="M539.11,401.79l-1.36-9.53c-3.59,2.47-10.65,4.44-18.19,4.84c-2.62-9.41-7.78-15.06-11.02-17.82
				c-0.56,1.32-1.28,2.8-2.18,4.28c2.59,2.43,6.22,6.81,8.39,13.58c-6.52-0.27-12.93-1.87-17.34-5.48
				c-8.68,3.49-18.64,3.6-17.49,16.77c30.94-0.16,45.99-0.07,53.31,0.06C536.82,408.54,539.62,405.36,539.11,401.79z"/>
			<path class="st8" d="M533.75,287.94l0.4,21.29c-12.19-0.29-24.6-1.49-35.9-3.5l-3.94-22.63L533.75,287.94z"/>
		</g>
		<g>
			<path class="st7" d="M592.26,403.46c-0.02-1.09-0.11-2.29-0.25-3.56c-0.08-0.76-0.18-1.53-0.3-2.34c-0.25-1.62-0.6-3.39-1.11-5.1
				c-0.52-1.75-1.2-3.43-2.1-4.78l-0.47-1.57l-5.31-18.83c-0.9-12.75-4.93-68-14.08-82.57l-34.16,3.07
				c0,1.15,23.05,82.91,23.05,82.91l0,0l-0.02,0l-2.14,9.8l-1.44,6.6l-0.17,0.78l-0.09,0.4c0,0-0.63,0.28-1.53,0.98
				c-2.16,1.68-5.85,5.8-5.85,14.37c0,0,0,0,0,0c0,0,0,0,0,0c3.53,1.3,8.61,2.82,14.86,3.58c3.34,0.41,7.01,0.6,10.96,0.42
				c2.54-0.12,4.93-0.38,7.17-0.74C584.55,406.06,588.94,404.71,592.26,403.46z"/>
			<path class="st18" d="M591.71,397.56c-0.5-3.27-1.45-7.22-3.22-9.87l-0.4-1.34c-0.38,0.37-0.81,0.78-1.28,1.2
				c-15.91-9.44-27.69-3.35-32.56,0.26c-0.12-0.24-0.22-0.47-0.32-0.7l-0.24,1.13c-0.04,0.04-0.09,0.07-0.13,0.1
				c-0.95,0.48-7.26,4.09-7.26,15.28c5.42,1.99,14.48,4.53,25.82,4.01c8.51-0.4,15.41-2.38,20.14-4.17
				C592.24,401.72,592.04,399.74,591.71,397.56z M568.88,395.59c-5.82,0.58-9.56-1.39-11.95-3.89c3.83-2.68,13.2-7.37,25.92-1.12
				C579.34,392.88,574.65,395.01,568.88,395.59z"/>
			<path class="st8" d="M574.05,299.69c-9.9,2.56-22.21,3.91-35.22,4.17c-2.56-9.25-4.34-15.77-4.34-16.08l34.16-3.07
				C570.7,287.98,572.49,293.28,574.05,299.69z"/>
		</g>
		<path class="st14" d="M561.17,72.42c2.23,10.93-1.76,26.52-2,32.01c-0.24,5.49,5.41,8.36,5.41,8.36l-11.76,2.19l-18.11-9.64
			l10.16-32.91H561.17z"/>
		<polygon class="st7" points="607.02,87.26 601.96,98.59 619.71,106.75 625.45,93.3 		"/>
		<g>
			<path class="st28" d="M555.51,150.78l3.47-32.07l31.21-2.24l13.5-23.4l19.3,8.97l-13.14,31.78c-3.53,8.55-11.63,14.33-20.87,14.9
				L555.51,150.78z"/>
		</g>
		<path class="st53" d="M489.39,177.58c0,0-21.24,42.77-7.35,111.16c0,0,36.39,22.04,97.33-3.72c0,0-3.44-84.31-23.44-99.87
			L489.39,177.58z"/>
		<path class="st54" d="M543.57,104.28l24.57,13.79l-9.37,47.49c-1.14,4.95-0.38,8.93,0.53,13.93l4.18,14.07l-23.08,6.49
			c-2.08,0.58-4.28-0.32-5.35-2.2l-9.32-14.75l-8.45,12.66c-1.15,2.2-3.8,3.12-6.06,2.12l-25.92-11.52c0,0,12.7-29.13,13.3-44.64
			c0.84-21.9,7.55-30.2,7.55-30.2l20.46-7.41L543.57,104.28z"/>
		<path class="st28" d="M522.34,113.35c0,0,2.15,10.93,8.22,20.64c0,0,19.56-20.44,16.53-21.2
			C546.71,112.7,522.34,113.35,522.34,113.35z"/>
		<path class="st7" d="M526.34,95.21c0,0,3.35,14.56-3.67,20.48c1.85,1.15,6.58,3.76,13.23,3.84c6.83,0.08,10.9-3.71,12.75-4.83
			c-1.08-1.53-1.39-2.25-2.27-4.52c-1.42-3.66-2.57-8.97-1.52-15.55L526.34,95.21z"/>
		<g>
			<path class="st14" d="M561.62,75.77c0,11.68-9.48,21.14-21.17,21.14s-19.9-8.4-19.9-20.07s8.21-22.21,19.9-22.21
				S561.62,64.09,561.62,75.77z"/>
			
				<ellipse transform="matrix(0.1701 -0.9854 0.9854 0.1701 350.9107 583.9506)" class="st7" cx="522.16" cy="83.63" rx="4.26" ry="3.68"/>
			
				<ellipse transform="matrix(0.1701 -0.9854 0.9854 0.1701 370.1739 616.9072)" class="st7" cx="551.36" cy="88.67" rx="4.26" ry="3.68"/>
			<path class="st7" d="M534.13,102.92c-8.1-1.4-13.53-9.09-12.13-17.19l2.66-15.38c2.85-0.83,8.4-2.04,15.24-0.86
				c6.85,1.18,11.67,4.18,14.08,5.92c-0.89,5.13-1.77,10.26-2.66,15.38C549.92,98.89,542.23,104.32,534.13,102.92z"/>
			<g>
				<circle class="st14" cx="530.01" cy="82.95" r="1.5"/>
				<circle class="st14" cx="544.41" cy="86.24" r="1.5"/>
				<path class="st16" d="M536.51,86.95c-1.83,0.9-2.61,1.85-2.39,2.66c0.22,0.81,1.81,1.23,1.81,1.23"/>
				<path class="st55" d="M528.76,78.93c0,0,1.96-0.48,3.71,0.85"/>
				<path class="st55" d="M543.54,82.3c0,0,1.96-0.48,3.71,0.85"/>
			</g>
			<path class="st14" d="M522.89,79.43l4.25-8.94c0,0,2.08,3.48,5.72,5.07c0.68,0.3,1.43-0.22,1.38-0.96
				c-0.07-1.01-0.09-2.37,0.26-3.26c0.62-1.57,3.87,8.47,7.69,6.62l0.11-4.82c0,0,2.02,5.83,4.88,6.56
				c2.86,0.73,2.97-2.13,2.97-2.13s1.4,6.73,2.81,6.73s3.31-6.73,3.42-7.85c0.11-1.12-0.5-8.53-2.81-9.93
				c-2.3-1.4-24.29-3.87-24.63-3.65s-6.85,7.24-6.85,7.24L522.89,79.43z"/>
			<path class="st56" d="M531.22,92.14l7.95,1.83c0,0-1.3,3.75-5.18,3.24C531.66,96.9,531.22,92.14,531.22,92.14z"/>
		</g>
		<g>
			<path class="st38" d="M534.26,111.68c-3.57,8.15-4.36,17.95,10.05,24.99C547.99,129.83,545.98,113.93,534.26,111.68z"/>
			<path class="st15" d="M536.94,117.59c0,0,3.95,7.44,4.74,11.91"/>
		</g>
		<g>
			<path class="st38" d="M530.16,110.94c-6.97,1.38-12.44,15.33-10.33,24.08c0,0,9.28-3.68,14.41-15.59
				c2.73-6.33,0.02-7.75,0.02-7.75L530.16,110.94z"/>
			<path class="st15" d="M529.83,116.4c0,0-5.53,6.25-7.44,11.91"/>
		</g>
		<path class="st57" d="M568.14,118.07"/>
		<g>
			<path class="st2" d="M526.61,104.1c0.39,1.04,1.18,2.76,2.76,4.41c1.82,1.9,3.8,2.78,4.88,3.17c-3.74,2.73-7.48,5.46-11.22,8.19
				l-3.12-13.52L526.61,104.1z"/>
			<path class="st2" d="M545.3,106.07c-0.92,1.01-2.37,2.35-4.41,3.49c-2.64,1.47-5.11,1.95-6.63,2.12
				c1.06,3.74,2.11,7.48,3.17,11.22l13.07-7.92L545.3,106.07z"/>
		</g>
		<path class="st57" d="M588.94,119.4c0,0,6.13,3.9,7.75,9.16"/>
		<line class="st57" x1="600.3" y1="99.65" x2="620.05" y2="109.2"/>
		<g>
			<path class="st7" d="M634.48,74.77c-1.05-0.74-2.49-0.49-3.23,0.56l-3.45,4.9l-0.79-0.36l4.57-7.92
				c0.64-1.11,0.26-2.53-0.85-3.17c-1.11-0.64-2.53-0.26-3.17,0.85l-4.79,8.29l-1.4-0.64l3.78-8.96c0.5-1.18-0.06-2.54-1.24-3.04h0
				c-1.18-0.5-2.54,0.06-3.04,1.24l-3.72,8.83l-1.19-0.54l2.35-7.15c0.4-1.22-0.26-2.53-1.48-2.93c-1.22-0.4-2.53,0.26-2.93,1.48
				l-2.19,6.65l-0.04-0.02l-3.79,8.54c-2.52,5.5-0.63,11.08,4.87,13.6c5.5,2.52,12.53,1.02,15.04-4.48l2.7-6.08l4.53-6.44
				C635.78,76.95,635.53,75.5,634.48,74.77z"/>
			<path class="st7" d="M608.4,91.27c-2.4-3.48-4.18-9.12-4.33-12.36s-0.24-5.45-0.24-5.45s2.44-0.56,2.96,1.74
				c0.52,2.3,1.69,3.67,1.69,3.67s3.43,0.09,4.98,3.53"/>
		</g>
		<g>
			<line class="st58" x1="532.14" y1="136.74" x2="525.79" y2="177.08"/>
			<g>
				<circle class="st58" cx="526.69" cy="139.55" r="1.33"/>
				<circle class="st58" cx="524.4" cy="150.52" r="1.33"/>
				<circle class="st58" cx="521.81" cy="161.09" r="1.33"/>
			</g>
			<polygon class="st58" points="541.68,175.13 554.33,174.33 554.89,178.01 542.83,178.89 			"/>
			<polygon class="st58" points="511.55,173.11 499.34,169.72 498.03,173.19 509.65,176.55 			"/>
		</g>
		<path class="st59" d="M494.31,228.54c0,0-2.73,46.57,3.99,66.2"/>
	</g>
	<g>
		<g>
			<polygon class="st7" points="414.26,403.76 362.56,402.89 361.94,362.94 394.22,361.25 389.96,380.14 397.04,389.21 			"/>
			<polygon class="st8" points="394.22,361.25 393.14,366.03 362.1,373 361.94,362.94 			"/>
		</g>
		<polygon class="st7" points="291.21,403.49 342.9,402.62 343.17,365.22 311.25,360.98 315.51,379.87 308.43,388.94 		"/>
		<polygon class="st8" points="311.25,360.98 343.17,365.22 343.11,373.19 313.41,370.58 		"/>
		<path class="st2" d="M369.5,114.27c-8.36-1.98-29.41-1.27-29.41-1.27c-2.34,0.15-5.41,0.6-9.19,1.68
			c1.54,3.9,4.78,8.87,11.51,13.55l-12.16,44.88l41.31-0.03l-12.91-43.63C358.67,129.46,366.14,123.53,369.5,114.27z"/>
		<polygon class="st14" points="291.21,403.49 342.9,402.62 342.9,389.66 322.22,395.77 308.43,388.94 		"/>
		<path class="st35" d="M381.4,171.06c0,0,31.23,63.3,32.33,182.28c0,0-52.59,28.68-122.97,3.98c0,0-1.78-108.59,28.59-185.49
			L381.4,171.06z"/>
		<path class="st60" d="M401.11,131.13c-13.36-9.9-22.25-14.66-31.61-16.86c-3.36,9.26-10.83,15.19-10.83,15.19l15.65,63.98
			c1.62-0.48,13.62-1.49,14.25-8.5c-0.37-6.89-4.15-13.68-4.52-20.56c2.96,1.47,6.69,3.32,10.52,5.23L401.11,131.13z"/>
		<path class="st7" d="M341.54,99.17c0,0,3.48,15.14-3.82,21.29c1.92,1.19,6.84,3.91,13.75,3.99c7.1,0.08,12.2-2.66,14.12-3.82
			c-1.12-1.59-2.31-3.55-3.22-5.9c-1.47-3.81-2.67-9.33-1.58-16.17L341.54,99.17z"/>
		<g>
			<ellipse class="st2" cx="366.35" cy="97.02" rx="9.78" ry="11.09"/>
			<ellipse class="st2" cx="338.11" cy="94.21" rx="9.78" ry="11.09"/>
			<path class="st2" d="M370.28,96.06h-38.36V84.45c0-10.59,8.59-19.18,19.18-19.18h0c10.59,0,19.18,8.59,19.18,19.18V96.06z"/>
			<ellipse class="st7" cx="335.54" cy="96.09" rx="3.83" ry="4.43"/>
			<ellipse class="st7" cx="366.35" cy="96.09" rx="3.83" ry="4.43"/>
			<path class="st7" d="M350.43,114.47L350.43,114.47c-7.95,0-14.39-6.44-14.39-14.39v-9.75c0-7.95,6.44-14.39,14.39-14.39h0
				c7.95,0,14.39,6.44,14.39,14.39v9.75C364.82,108.03,358.38,114.47,350.43,114.47z"/>
			<path class="st61" d="M341.91,88.68c0,0,1.69-1.24,3.9-0.67"/>
			<g>
				<path class="st16" d="M351.36,94.51c-1.65,1.34-2.22,2.48-1.81,3.25c0.41,0.77,2.11,0.83,2.11,0.83"/>
				<path class="st16" d="M346.81,100.55c0,0,4.61,2.75,8.5-0.11"/>
				<path class="st16" d="M346.74,98.78c0,0-2.12,3.9-2.21,5.1"/>
				<path class="st16" d="M355.69,98.78c0,0,2.12,3.9,2.21,5.1"/>
			</g>
			<line class="st62" x1="343.45" y1="92.53" x2="345.81" y2="92.48"/>
			<path class="st61" d="M359.54,88.68c0,0-1.69-1.24-3.9-0.67"/>
			<line class="st62" x1="358.12" y1="92.53" x2="355.76" y2="92.48"/>
			<g>
				<path class="st59" d="M341.11,79.02c0,0,0.41-5.78,6.81-6.5"/>
				<polyline class="st59" points="347.38,74.65 347.44,79.83 355.57,76.52 355.84,78.85 360.71,76.66 				"/>
			</g>
		</g>
		<g>
			<path class="st7" d="M415.35,124.58c0,0,2.56-19.95,1.41-21.95c-2.2-3.81-15.2-8.76-19.34-7.8c-4.14,0.96-5.71,10.28-5.81,10.77
				s0.39,17.92,0.39,17.92L415.35,124.58z"/>
			<path class="st16" d="M412.49,103.6c-3.46-1-5.04-1.47-6.29,0.73c-0.86,1.52-1.36,5.05-1.58,7.1c-0.1,0.92,0.51,1.76,1.42,1.95
				c0.8,0.17,1.75,0.31,2.46,0.24c1.48-0.16,3.13-5.78,3.13-5.78l1.83,0.37"/>
			<path class="st16" d="M405.3,98.19c-2.75,1.34-3.64,2.52-4.15,3.56c-0.51,1.04-2.6,8.76-2.12,9.35c0.48,0.59,4.15,2.45,5.65-0.92
				"/>
			<path class="st16" d="M400.38,96.37c0,0-1.73,0.4-3.01,2.07c-1.28,1.67-2.09,5.36-2.09,5.36"/>
			<path class="st7" d="M403.1,117.59c0,0,0.02-5.2-7.15-7.81c0,0,1.43-0.76,3.23-2.93c1.8-2.18-0.74-3.12-0.74-3.12
				s-10.38-1.11-10.81,6.53s15.52,17.82,15.52,17.82"/>
			<path class="st16" d="M403.1,117.59c0,0,0.02-5.2-7.15-7.81c0,0,1.43-0.76,3.23-2.93c1.8-2.18-0.74-3.12-0.74-3.12
				s-10.38-1.11-10.81,6.53s15.52,17.82,15.52,17.82"/>
		</g>
		<path class="st60" d="M402.37,176.86L402.37,176.86c-8.59,0-15.5-7.06-15.32-15.65l0.84-40.13h30.66l-0.85,40.77
			C417.52,170.19,410.71,176.86,402.37,176.86z"/>
		<path class="st63" d="M387.78,166.23c-0.51-1.58-0.76-3.26-0.73-5.01l0.84-40.13"/>
		<polygon class="st14" points="414.26,403.76 362.56,402.89 362.56,389.93 383.25,396.04 397.04,389.21 		"/>
		<path class="st60" d="M330.91,114.69c-5.67,1.62-12.91,4.65-21.51,10.25c-22.69,14.77-34.86,18.1-34.86,18.1l2.24,31.42
			l39.67-7.22l-5.05,17.54c1.25,8.73,16.36,8.47,18.02,8.66c4.33-21.73,8.67-43.47,13-65.2
			C335.69,123.56,332.45,118.59,330.91,114.69z"/>
		<g>
			<path class="st64" d="M387.87,362.05c0,0,2.18-66.75-3.43-95.75"/>
			<path class="st64" d="M315.2,363.61c0,0-4.37-51.78,4.99-87.02"/>
		</g>
	</g>
	<g>
		<path class="st14" d="M112.36,38.33c9.17-0.59,20.14,6.86,24.06,18.68l-12.51,5.55c0,0-13.29-9.53-13.54-10.41
			C110.12,51.28,112.36,38.33,112.36,38.33z"/>
		<path class="st7" d="M115.05,40.78c0,0,10.07-17.41,12.2-18.3c4.07-1.69,17.39,2.26,20.11,5.53c2.71,3.28-1.69,11.63-1.92,12.09
			S134.25,54.1,134.25,54.1L115.05,40.78z"/>
		<path class="st7" d="M133.29,24.48c1.77,2.85,1.65,3.25,1.31,5.75c-0.24,1.73-1.99,4.83-3.05,6.6c-0.48,0.79-1.47,1.09-2.31,0.69
			c-0.74-0.35-1.58-0.82-2.1-1.31c-1.08-1.03,1.03-6.49,1.03-6.49l-1.08-1.59"/>
		<path class="st16" d="M139.05,25.9c1.37,2.73,1.37,4.21,1.14,5.35c-0.23,1.14-3.25,8.54-3.99,8.71c-0.74,0.17-4.78-0.57-3.93-4.16
			"/>
		<path class="st7" d="M129.02,42.65c0,0,3.14-4.14,10.42-1.87c0,0-0.68-1.47-0.79-4.29c-0.11-2.82,2.48-2.03,2.48-2.03
			s8.92,5.42,4.63,11.75c-4.29,6.33-23.16,4.74-23.16,4.74"/>
		<path class="st16" d="M129.02,42.65c0,0,3.14-4.14,10.42-1.87c0,0-0.68-1.47-0.79-4.29c-0.11-2.82,2.48-2.03,2.48-2.03
			s8.92,5.42,4.63,11.75c-4.29,6.33-23.16,4.74-23.16,4.74"/>
		<path class="st2" d="M110.48,43.75l5.96-7.77c2.32,2.69,5.98,7.87,10.21,10.99c4.1,3.02,7.55,3.13,10.74,4.54
			c-1.87,3.19-3.73,6.38-5.6,9.57C131.79,61.08,115.18,56.39,110.48,43.75z"/>
		<g>
			<path class="st42" d="M140.04,83.1l-15.58-4.45l11.65-21.13c-2.35-0.14-9.14-0.83-15.46-6c-5.72-4.67-7.87-10.38-8.6-12.69
				c-8.66,11.55-17.33,23.1-25.99,34.66c-7.61,10.14-3.95,24.72,7.55,30.06l13.63,6.33l0.07-0.14
				c17.18,8.02,35.68,16.45,35.87,15.67C143.55,123.98,140.04,83.1,140.04,83.1z"/>
			<line class="st42" x1="124.46" y1="78.65" x2="116.21" y2="93.53"/>
		</g>
		<path class="st14" d="M161.57,373.14l-1.53,15.64l-3.19,12.07c-1.61,3.8,10.1,10.1,16.1,10.68c7.56,0.73,25.46-6.79,23.82-10.18
			l-3.66-14.54l-1.44-11.51L161.57,373.14z"/>
		<path class="st42" d="M172.91,174.99l-55.77,25.64l-41.69,168.4l43.95,1.05c7.2-15.38,14.38-32.77,20.87-52.08
			c8.64-25.69,14.33-49.56,18.1-70.61c0.05,42.61,0.09,85.22,0.14,127.83l20.95,5.66l16.7-3.96l10.72-154.93L172.91,174.99z"/>
		<path class="st42" d="M201.95,189.27l6.15,33.32c0,0-30.99,13.08-42.86-35.6c0,0,0,0-0.01,0.02c-0.48,0.52-19.85,36.02-56.05,21.9
			c2.82-12.43,27.07-51.14,27.48-68.66c0.48-20.83,3.39-57.15,3.39-57.15s64.65,0.24,84.28,36.08l-18.49,40.57
			C201.63,168.98,200.27,179.26,201.95,189.27z"/>
		<path class="st65" d="M208.09,222.59c0,0-30.99,13.08-42.86-35.6c0,0,0,0-0.01,0.02c-0.48,0.52-19.85,36.02-56.05,21.9"/>
		<path class="st14" d="M188.88,38.9c-7.42-1.35-20.22,7.82-14.02,25.08l1.75,0.67l20.13-16.08L188.88,38.9z"/>
		<polygon class="st7" points="177.01,80.14 170.55,94.53 194.43,102.45 197.15,85.98 		"/>
		<g>
			
				<ellipse transform="matrix(0.2465 -0.9691 0.9691 0.2465 66.7777 221.6985)" class="st7" cx="175.96" cy="67.9" rx="4.44" ry="3.84"/>
			
				<ellipse transform="matrix(0.2465 -0.9691 0.9691 0.2465 81.9638 256.4689)" class="st7" cx="205.92" cy="75.52" rx="4.44" ry="3.84"/>
		</g>
		<path class="st7" d="M186.69,90.61c-8.34-1.96-13.52-10.32-11.55-18.66l3.73-15.85c3.66-6.16,10.95-9.22,17.87-7.53
			c6.81,1.67,11.82,7.6,12.34,14.63c-1.24,5.28-2.49,10.57-3.73,15.85C203.39,87.4,195.04,92.57,186.69,90.61z"/>
		<path class="st16" d="M191.87,71.15c-1.97,0.83-2.83,1.76-2.65,2.62c0.18,0.86,1.8,1.39,1.8,1.39"/>
		<g>
			<path class="st62" d="M182.88,65.76c0,0,2.08-0.32,3.77,1.22"/>
			<path class="st62" d="M197.93,70.61c0,0,2.08-0.32,3.77,1.22"/>
		</g>
		<path class="st2" d="M184.46,75.82l9.92,4.08c0,0-3.06,3.76-6.37,2.73C182.95,81.06,184.46,75.82,184.46,75.82z"/>
		<path class="st14" d="M188.69,47.65c0,0,9.78,14.62,16.48,15.58c0.19,2.49,1.28,7.08,2.93,8.29s6.06-3,6.06-3l0.14-0.02
			c1.25-0.15,2.01-1.46,1.51-2.61c-0.58-1.34-1.14-2.92-1.01-3.75c0.26-1.59,5.5-22.03-15.36-26.59c0,0-6.12-0.51-10.58,2.23
			C184.38,40.53,188.69,47.65,188.69,47.65z"/>
		<path class="st14" d="M191.8,47.74c0,3.39-14.66,11.82-14.74,11.69c-0.05-0.08-1.01-2.39-1.73-4.11c-0.45-1.09-0.08-2.34,0.89-3
			c3.04-2.08,9.22-6.27,9.61-6.27C186.33,46.04,191.8,47.74,191.8,47.74z"/>
		<path class="st2" d="M170.09,92.71c-4.78,8.95-6.02,46.44-2.01,57.09c0,0,23.91-32.86,26.54-48.45L170.09,92.71z"/>
		<path class="st14" d="M86.68,369.72l-11.86,17.26l-24.96,11.4c0,0,9.5,5.67,25.86,5.31c16.36-0.36,32.36-14.38,32.36-14.38
			l8.27-0.72l-0.18-18.34L86.68,369.72z"/>
		<path class="st57" d="M162.55,370.93"/>
		<path class="st57" d="M162.37,376.32"/>
		<path class="st31" d="M187.42,102.76l-4.92,5.57l-0.91,21.09c-6.74,11.06-13.51,20.38-13.51,20.38
			c-1.34-3.53-2.09-10.02-2.33-17.43l10.25-25.39l0.38-7.06l3.36-3.8l1.47-1.66l3.3,1.4l0.96,2.27L187.42,102.76z"/>
		<path class="st2" d="M197.06,92.64c-0.46,0.19-12.54,3.21-12.54,3.21l-0.02,12.96l15.32-7.76L197.06,92.64z"/>
		<polygon class="st14" points="94.25,394.54 98.01,399.74 114.29,399.94 116.34,388.6 104.46,385.41 		"/>
		<g>
			<g>
				<path class="st66" d="M168.17,393.29c0,0,8.38-3.53,18.23,0.57"/>
				<line class="st66" x1="177.13" y1="382.28" x2="176.88" y2="391.56"/>
			</g>
			<path class="st66" d="M66.68,392.9c0,0,3.99,3.47,8.79,4.09"/>
			<line class="st66" x1="91.72" y1="371.34" x2="81.6" y2="385.85"/>
		</g>
		<g>
			<line class="st65" x1="182.35" y1="234.94" x2="179.46" y2="380.88"/>
			<polyline class="st65" points="153.64,219.46 158.89,230.57 158.37,247.38 			"/>
			<line class="st65" x1="139.45" y1="233.2" x2="102.46" y2="369.27"/>
			<g>
				<g>
					<polyline class="st65" points="169.29,87.57 158.23,94.31 163,99.87 					"/>
					<path class="st65" d="M165.76,99.67c-0.87,0.35-11.67,2.99-11.67,2.99s-2.1,32.7,9.44,50.18"/>
					<path class="st65" d="M168.09,149.79c0,0-7.82,10.86-2.87,37.21"/>
					<path class="st65" d="M168.84,157.14c0,0,28.87-29.25,34.57-42.93l-8.93-8.4"/>
					<polyline class="st65" points="197.1,108.28 204.04,106.08 199.46,96.8 					"/>
					<circle class="st65" cx="168.33" cy="163.95" r="1.65"/>
					<circle class="st65" cx="168.33" cy="175.65" r="1.65"/>
				</g>
				<polygon class="st65" points="128.37,171.43 144.19,177.2 141.19,183.19 124.52,177.42 				"/>
				<polygon class="st65" points="200.1,186.09 183.65,187.69 185.04,193.99 201.71,192.39 				"/>
			</g>
		</g>
		<path class="st16" d="M144.06,27.44c0,0,1.14,1.37,1.14,3.47s-1.59,5.52-1.59,5.52"/>
		<path class="st2" d="M174.79,83.38c0.22,0.45,6.81,11.83,6.81,11.83l-8.59,9.71l-5.47-17.33L174.79,83.38z"/>
		<line class="st67" x1="184.5" y1="108.81" x2="199.81" y2="101.05"/>
		<line class="st67" x1="173.01" y1="104.91" x2="167.54" y2="87.57"/>
		<path class="st62" d="M183.85,61.08c0,0,3.64-0.46,5.07,1.11"/>
		<path class="st62" d="M203.64,66.51c0,0-2.99-2.12-5-1.41"/>
	</g>
</g>
</svg>
