<?xml version="1.0" encoding="utf-8"?>
<!-- Generator: Adobe Illustrator 26.5.0, SVG Export Plug-In . SVG Version: 6.00 Build 0)  -->
<svg version="1.1" id="Layer_1" xmlns="http://www.w3.org/2000/svg" xmlns:xlink="http://www.w3.org/1999/xlink" x="0px" y="0px"
	 viewBox="0 0 842.62 445.38" style="enable-background:new 0 0 842.62 445.38;" xml:space="preserve">
<style type="text/css">
	.st0{fill:#E8EDED;}
	.st1{fill:#B6B8B6;}
	.st2{fill:#CFCDC2;}
	.st3{fill:#DEDED7;}
	.st4{fill:#CDCDCA;}
	.st5{opacity:0.55;fill:#CDCDCA;}
	.st6{fill:#6A9500;}
	.st7{fill:#538100;}
	.st8{fill:#79A200;}
	.st9{fill:#689200;}
	.st10{fill:#588300;}
	.st11{fill:#4E6D00;}
	.st12{fill:#77A400;}
	.st13{fill:#88AE00;}
	.st14{fill:#BB9000;}
	.st15{fill:#DCA200;}
	.st16{fill:#B17E00;}
	.st17{fill:#EBB300;}
	.st18{fill:#BD9700;}
	.st19{opacity:0.26;fill:#CDCDCA;}
	.st20{fill:#BDC2C0;}
	.st21{fill:url(#SVGID_1_);}
	.st22{fill:url(#SVGID_00000119811155809048176690000002701874841692267668_);}
	.st23{fill:url(#SVGID_00000057861669412144790650000013688863858063638669_);}
	.st24{fill:url(#SVGID_00000160881911337084862350000013720867754371692432_);}
	.st25{fill:url(#SVGID_00000165943312768567248770000010086781216346473382_);}
	.st26{fill:url(#SVGID_00000108991613867815704530000014525854593647534258_);}
	.st27{fill:url(#SVGID_00000131348675943651182300000006644290487317167527_);}
	.st28{fill:url(#SVGID_00000008835436308975879200000013039798351441612673_);}
	.st29{fill:#FFFFFF;}
	.st30{fill:url(#SVGID_00000000216247662363599930000002515664921851716774_);}
	.st31{fill:#A2A7B1;}
	.st32{fill:#BDC0CA;}
	.st33{fill:#868686;}
	.st34{fill:#B12800;}
	.st35{fill:#DE3200;}
</style>
<g>
	<path class="st0" d="M325.02,314.32c-12.01-18.38-33.61-27.84-54.07-33.35c-11.95-3.21-31.15-3.73-40.21,6.04L80.27,171.65
		c-15.19-2.17-15.92,14.47-15.92,14.47l162.1,108.79c-0.35,1.32-0.59,2.73-0.7,4.26c-0.87,12.68,8.77,25.38,17.25,33.86
		c16.84,16.84,47.2,31.17,71.59,22.05C333.72,347.92,335.05,329.68,325.02,314.32z"/>
	<path class="st0" d="M9.44,218.63c4.02,4.03,10.39,7.2,13.53,9.34c11.69,7.99,23.37,15.97,35.06,23.96
		c15.97,10.91,31.94,21.83,47.9,32.74c17.38,11.88,34.76,23.76,52.14,35.64c15.93,10.88,31.85,21.77,47.78,32.65
		c9.1,6.22,18.19,12.45,27.3,18.65c4.72,3.22,9.45,6.43,14.19,9.62c4.06,2.74,8.48,7.33,13.79,6c3.04-0.76,7.78-5.9,9.91-8.12
		c3.85-4.03,4.24-6.61,0.03-10.2L45.54,194.08c-0.6-2.01-5.67-5.55-7.78-5.42c-3.21,0.21-6.31,2.65-9.16,4.04
		c-4.09,1.99-7.82,4.23-11.61,6.69c-3.52,2.28-8.58,5.15-10.41,9.13C4.84,212.3,6.51,215.69,9.44,218.63z"/>
	<g>
		<path class="st0" d="M830.26,191.45c0,36.37-64.03,65.85-143.02,65.85c-78.99,0-143.02-29.48-143.02-65.85
			c0-36.36,64.03-65.84,143.02-65.84C766.23,125.6,830.26,155.08,830.26,191.45z"/>
		<g>
			<path class="st1" d="M690.95,196.62v-0.54l-4.45,0.27l-4.45-0.27v0.54l-43.31,2.6c8.44,8.85,19.8,12.8,34.87,14.08
				c6.1,0.52,16.93,0.75,24.94,0.12c13.56-1.05,27.05-5.09,35.73-14.21L690.95,196.62z"/>
			<path class="st2" d="M699.89,108v-3.06l-13.39,1.53l-13.39-1.53V108l-130.33,14.9c25.39,50.67,75.8,71.32,104.92,80.61
				c17.97,5.73,51.28,7.24,75.03,0.72c29.2-8.02,81.35-29.16,107.47-81.32L699.89,108z"/>
			<path class="st3" d="M837.94,114.8c0,46.23-67.47,83.71-150.7,83.71c-83.23,0-150.71-37.47-150.71-83.71
				c0-46.22,67.48-83.7,150.71-83.7C770.47,31.11,837.94,68.58,837.94,114.8z"/>
			<path class="st4" d="M585.76,61.55c-25.87,13.95-40.12,32.1-40.12,51.1c0,19,14.25,37.15,40.12,51.1
				c27.01,14.57,63.04,22.59,101.48,22.59c38.43,0,74.47-8.03,101.48-22.59c25.86-13.95,40.11-32.1,40.11-51.1
				c0-19-14.25-37.15-40.11-51.1c-27.01-14.57-63.05-22.59-101.48-22.59C648.8,38.95,612.77,46.98,585.76,61.55z"/>
			<path class="st5" d="M608.7,85.91c-20.02,10.8-31.05,24.85-31.05,39.55c0,14.71,11.02,28.75,31.05,39.55
				c20.9,11.27,48.79,17.48,78.54,17.48c29.74,0,57.63-6.21,78.54-17.48c20.02-10.8,31.05-24.84,31.05-39.55
				c0-14.71-11.03-28.75-31.05-39.55c-20.91-11.27-48.8-17.49-78.54-17.49C657.49,68.42,629.6,74.63,608.7,85.91z"/>
		</g>
		<g>
			<path class="st6" d="M619.53,102.61c28.76-0.03,58.44-3.69,84.97-15.34c18.42-8.09,62.63-33.8,38.82-57.28
				c-8.88-8.75-18.9-7.45-29.55-2.93c-11.4,4.84-22.09,10.73-32.96,16.49c-24.27,12.87-50.75,24.14-77.76,30.25
				c-9.71,2.2-18.87,4.26-28.81,4.4c-6.6,0.09-20-2.86-11.85,7.43C573.83,100.08,602.5,102.63,619.53,102.61z"/>
			<path class="st7" d="M755.45,42.76c0.22-5.51-1.56-12.31-6.11-15.75c-6.1-4.6-12.67-5.85-20.16-4.8
				c-1.91,0.27-3.81,0.53-5.74,0.74c-0.98,0.11-2.18-0.13-1.96,1.05c0.34,1.77,15.28,7.18,16.21,5.39
				c-2.07,4.02-5.54,6.79-8.53,10.05c2.09,3.09,13.15-0.11,15.82-1.02c0.14,2.49-0.37,4.92-0.88,7.29c-0.21,0.96-3.56,7.38-3.06,7.8
				c0.47,0.4,2.34-0.86,2.78-1.14c1.94-1.22,3.55-3.01,5.32-4.38c0.4,2.28-4.3,8.06-2.92,9.39c2.51-1.39,4.27-2.91,5.92-5.24
				C754.06,49.45,755.32,46.01,755.45,42.76z"/>
			<path class="st7" d="M746.23,30.05c6.05-3.11,9.76-11.76,11.52-17.92c0.49-1.72,0-4.89,2.16-5.37c3.1-0.69,4.53,2.83,3.9,5.21
				c-2.3,8.73-7.66,16.73-13.75,23.13"/>
		</g>
		<g>
			<path class="st8" d="M642.65,126c8.8,3.15,17.97,5.13,27.5,5.57c19.35,0.9,39.27-0.39,58.06-5.35
				c19.45-5.13,67.12-23.65,47.25-50.54c-10.97-14.85-30.89-7.33-45.29-2.42c-8.15,2.78-15.32,7.28-22.76,11.42
				c-11.47,6.38-22.82,13.07-35.46,16.26c-11.22,2.83-26.49,3.33-37.75,0.27c-7.07-1.92-14.33-5.11-21.14-7.84
				c-5.85-2.35-12.3-7.37-18.49-8.4c-8.09-1.34-1.76,7.74,1.1,10.65c7.12,7.26,15.31,13.9,24.08,19.26
				C627.08,119.36,634.71,123.15,642.65,126z"/>
			<path class="st9" d="M785.46,90.18c1.08-5.41,0.37-12.41-3.59-16.51c-5.32-5.5-11.6-7.75-19.17-7.88
				c-1.93-0.03-3.84-0.07-5.79-0.16c-0.98-0.05-2.13-0.47-2.1,0.73c0.06,1.8,13.98,9.47,15.17,7.85c-2.66,3.65-6.53,5.85-9.98,8.6
				c1.58,3.38,13,1.94,15.79,1.45c-0.25,2.48-1.13,4.81-2,7.06c-0.35,0.91-4.66,6.73-4.23,7.23c0.41,0.47,2.45-0.49,2.93-0.69
				c2.11-0.9,3.97-2.42,5.94-3.5c0.03,2.31-5.5,7.29-4.35,8.83c2.69-0.98,4.67-2.21,6.66-4.25
				C783.05,96.57,784.83,93.37,785.46,90.18z"/>
			<path class="st9" d="M778.33,76.19c6.46-2.13,11.47-10.1,14.17-15.91c0.75-1.62,0.77-4.83,2.97-4.97c3.17-0.2,4.04,3.5,3.04,5.75
				c-3.63,8.26-10.17,15.33-17.18,20.71"/>
		</g>
		<g>
			<path class="st10" d="M640.31,164.24c7.53,1.91,15.26,3.06,22.83,3.78c24.39,2.34,53.03,0.01,75.56-10.05
				c14.29-6.39,35.63-16.84,39.73-33.63c1.69-6.92-0.97-13.48-5.53-18.7c-8.62-9.87-19.53-7.61-30.6-3.5
				c-7.08,2.63-13.85,6.73-20.77,9.94c-14.72,6.83-30.04,12-45,18.02c-13.03,5.25-25.91,7.28-39.79,7.97
				c-14.48,0.73-26.11-4.28-38.99-9.75c-9.96-4.23-3.35,6.86-0.01,10.55c5.09,5.64,10.23,9.93,16.54,14.18
				C622.18,158.4,631.09,161.9,640.31,164.24z"/>
			<path class="st11" d="M784.54,119.87c0.66-5.72-0.67-12.94-5.15-16.86c-5.99-5.26-12.73-7.07-20.6-6.56
				c-2.01,0.13-4,0.25-6.03,0.33c-1.03,0.04-2.26-0.3-2.12,0.94c0.22,1.87,15.35,8.66,16.45,6.87c-2.46,4.02-6.29,6.63-9.65,9.79
				c1.93,3.38,13.69,0.91,16.54,0.16c-0.05,2.6-0.77,5.1-1.48,7.51c-0.29,0.98-4.27,7.4-3.78,7.88c0.46,0.45,2.51-0.72,2.99-0.97
				c2.11-1.12,3.92-2.85,5.88-4.14c0.23,2.4-5.1,8.05-3.77,9.55c2.72-1.25,4.67-2.69,6.56-4.99
				C782.56,126.73,784.15,123.24,784.54,119.87z"/>
			<path class="st11" d="M779.94,109.62c5.37-4.65,15.19-4.87,21.84-4.18c1.86,0.2,4.73,1.9,6.04,0c1.88-2.73-0.97-5.49-3.52-5.8
				c-9.34-1.17-19.18,0.91-27.75,4.31"/>
		</g>
		<path class="st12" d="M691.93,51.33c5.82-3.08,11.82-5.8,17.59-8.96c3.07-1.68,13.01-5.78,12.91-10.23
			c-0.12-4.91-10.4-0.93-13.31,0.42c-6.1,2.83-12.3,5.73-18.29,9.05c-13.76,7.63-28.07,13.92-42.48,20.33
			c-6.76,3.01-13.54,6.02-20.59,8.3c-3.44,1.12-6.73,2.13-10.29,3.07c-1.63,0.43-6.32,0.87-7.32,2.21c-1.69,2.26,2.99,2.28,4.64,2.2
			c4.7-0.24,8.96-1.19,13.52-2.23c8.34-1.91,16.35-3.65,24.45-6.77C666.07,63.6,679.4,57.96,691.93,51.33z"/>
		<path class="st13" d="M721.04,89.39c8.79-4.51,17.81-8.53,26.74-12.74c1.67-0.79,7.26-2.23,5.16-4.84
			c-1.02-1.27-4.58-1.17-6.01-1.01c-4.93,0.53-9.84,2.38-14.48,4.06c-8.97,3.25-17.27,8.25-25.87,12.45
			c-17.66,8.62-33.89,18.25-53.98,18.25c-4.16,0-8.73-0.91-12.68-0.68c-2.88,0.17-1.99,1.41,0,2.44c2.19,1.13,4.66,1.15,7.09,1.41
			c14.09,1.5,27.63-0.33,41.06-4.58C699.7,100.48,710.29,94.91,721.04,89.39z"/>
		<path class="st6" d="M727.38,120.94c5.32-2.77,10.4-5.96,15.44-9.21c1.28-0.82,11-7,3.87-7.35c-2.1-0.1-5.06,1.5-6.96,2.28
			c-4.97,2.05-9.6,4.78-14.42,7.14c-12.59,6.16-26.04,10.72-39.19,15.68c-9.59,3.62-19.41,6.88-29.35,8.6
			c-3.52,0.61-6.92,1.49-10.5,1.84c-3.31,0.33-7.36-0.68-10.46,0.34c-0.1,0.25-0.19,0.45-0.31,0.69c3.49,3.54,10.99,2.69,15.58,2.69
			c9.16,0,18.16-1.38,27.16-3.11C696.11,137.08,711.47,129.23,727.38,120.94z"/>
	</g>
	<g>
		<path class="st0" d="M719.24,359.21c0,21.64-38.1,39.19-85.1,39.19c-47,0-85.1-17.55-85.1-39.19c0-21.64,38.1-39.18,85.1-39.18
			C681.14,320.03,719.24,337.57,719.24,359.21z"/>
		<g>
			<path class="st1" d="M636.35,368.86v-0.32l-2.65,0.16l-2.65-0.16v0.32l-25.78,1.55c5.02,5.27,11.79,7.62,20.75,8.38
				c3.63,0.31,10.07,0.45,14.84,0.08c8.07-0.63,16.09-3.03,21.26-8.46L636.35,368.86z"/>
			<path class="st2" d="M640.93,312.97v-1.73l-7.23,0.86l-7.24-0.86v1.73l-70.38,8.42c5.76,24.07,24.22,41.36,45.92,48.48
				c24.24,7.96,45.84,5.4,58.63,1.57c21.05-6.31,42.75-20.55,50.68-50.05L640.93,312.97z"/>
			<path class="st3" d="M723.81,303.41c0,27.51-40.15,49.81-89.67,49.81c-49.53,0-89.67-22.3-89.67-49.81
				c0-27.5,40.15-49.8,89.67-49.8C683.66,253.6,723.81,275.9,723.81,303.41z"/>
			<path class="st4" d="M575.08,272.38c-15.05,8.12-23.35,18.68-23.35,29.74c0,11.06,8.29,21.62,23.35,29.74
				c15.72,8.48,36.69,13.15,59.06,13.15c22.37,0,43.34-4.67,59.06-13.15c15.05-8.12,23.34-18.68,23.34-29.74
				c0-11.06-8.29-21.62-23.34-29.74c-15.72-8.48-36.7-13.15-59.06-13.15C611.77,259.24,590.8,263.91,575.08,272.38z"/>
			<path class="st14" d="M585.45,289.7c-1.68,1.15-3.43,2.2-5.3,3.07c-5.12,2.38-9.59,5.61-12.32,10.88
				c-7.54,14.52,2.13,24.81,14.67,31.58c13.17,7.11,30.76,11.02,49.5,11.02c18.75,0,36.33-3.91,49.5-11.02
				c10.65-5.75,29.72-21.18,17.83-34.52c-4.19-4.7-10.49-7.41-14.9-12.13c-9.21-9.83-20.32-14.66-33.54-15.35
				c-3.29-0.17-6.37,0.65-9.64,0.37c-3.13-0.27-6.09-1.35-9.2-1.81c-6.86-1.02-14.08-0.96-20.78,0.73
				C600.56,275.24,593.96,283.85,585.45,289.7z"/>
		</g>
		<g>
			<g>
				<path class="st15" d="M626,282.34c0,3.05-3.66,5.53-8.17,5.53c-4.51,0-8.17-2.47-8.17-5.53c0-3.05,3.66-5.52,8.17-5.52
					C622.33,276.81,626,279.29,626,282.34z"/>
				<path class="st16" d="M619.65,286.68c0,0.45-0.61,0.81-1.35,0.81c-0.75,0-1.35-0.36-1.35-0.81c0-0.45,0.6-0.81,1.35-0.81
					C619.05,285.87,619.65,286.24,619.65,286.68z"/>
			</g>
			<path class="st17" d="M611.02,284.36c-0.09-5.45,5.98-6.31,10.09-6.38c-1.39-0.95-3.3-0.9-4.76-0.75
				c-2.14,0.22-5.14,1.7-5.92,3.84c-0.22,0.61-0.33,2.85,0.51,3.17C610.94,284.26,611.01,284.35,611.02,284.36z"/>
		</g>
		<g>
			<g>
				<path class="st15" d="M640.11,306.53c-2.79,1.23-6.53-1.11-8.36-5.24c-1.82-4.12-1.04-8.47,1.75-9.71
					c2.79-1.23,6.53,1.11,8.36,5.24C643.68,300.95,642.9,305.29,640.11,306.53z"/>
				<path class="st16" d="M633.57,302.48c-0.41,0.18-0.99-0.22-1.29-0.9c-0.3-0.68-0.21-1.38,0.2-1.56
					c0.41-0.18,0.98,0.22,1.28,0.91C634.07,301.6,633.98,302.3,633.57,302.48z"/>
			</g>
			<path class="st17" d="M632.2,293.65c4.94-2.28,8.19,2.92,9.91,6.65c0.31-1.66-0.51-3.38-1.24-4.66
				c-1.06-1.87-3.63-4.02-5.91-3.86c-0.65,0.05-2.74,0.86-2.69,1.75C632.27,293.54,632.21,293.63,632.2,293.65z"/>
		</g>
		<g>
			<g>
				<path class="st15" d="M611.24,289.79c1.13,2.84-1.35,6.49-5.54,8.16c-4.19,1.67-8.5,0.73-9.64-2.1
					c-1.13-2.83,1.35-6.49,5.54-8.16C605.8,286.02,610.11,286.96,611.24,289.79z"/>
				<path class="st16" d="M606.96,296.18c0.17,0.41-0.26,0.97-0.95,1.25c-0.69,0.28-1.38,0.16-1.55-0.25
					c-0.17-0.41,0.26-0.97,0.95-1.25C606.1,295.65,606.8,295.76,606.96,296.18z"/>
			</g>
			<path class="st17" d="M598.09,297.23c-2.1-5.02,3.21-8.08,7-9.67c-1.64-0.37-3.39,0.39-4.7,1.07c-1.91,0.99-4.15,3.48-4.07,5.76
				c0.02,0.65,0.76,2.77,1.65,2.76C597.98,297.16,598.07,297.21,598.09,297.23z"/>
		</g>
		<g>
			<g>
				<path class="st15" d="M668.24,310.39c1.7-2.54,6.11-2.57,9.87-0.07c3.76,2.5,5.43,6.59,3.74,9.12
					c-1.69,2.54-6.11,2.57-9.86,0.07C668.23,317.02,666.55,312.93,668.24,310.39z"/>
				<path class="st16" d="M675.93,310.3c0.25-0.37,0.95-0.34,1.57,0.07c0.62,0.41,0.92,1.05,0.67,1.42
					c-0.25,0.37-0.95,0.34-1.57-0.07C675.99,311.3,675.68,310.67,675.93,310.3z"/>
			</g>
			<path class="st17" d="M681.83,317.01c-2.95,4.58-8.48,1.94-11.93-0.28c0.63,1.56,2.25,2.57,3.55,3.26
				c1.9,1.01,5.22,1.44,7.06,0.08c0.52-0.38,1.85-2.2,1.33-2.92C681.84,317.14,681.83,317.02,681.83,317.01z"/>
		</g>
		<g>
			<g>
				<path class="st15" d="M599.46,330.13c0.14-3.05,3.91-5.35,8.42-5.15c4.51,0.21,8.05,2.84,7.91,5.89
					c-0.14,3.05-3.91,5.35-8.42,5.15C602.86,335.81,599.32,333.18,599.46,330.13z"/>
				<path class="st16" d="M606,326.08c0.02-0.44,0.64-0.78,1.38-0.74c0.74,0.03,1.33,0.42,1.31,0.87c-0.02,0.45-0.64,0.78-1.39,0.75
					C606.56,326.92,605.98,326.52,606,326.08z"/>
			</g>
			<path class="st17" d="M614.51,328.79c-0.16,5.44-6.26,6.03-10.37,5.91c1.35,1.01,3.25,1.05,4.73,0.96
				c2.15-0.12,5.22-1.46,6.09-3.57c0.25-0.6,0.45-2.83-0.36-3.19C614.58,328.9,614.52,328.81,614.51,328.79z"/>
		</g>
		<path class="st18" d="M572.06,309.04c-1.21,2.85-1.68,6.27-0.97,9.3c0.37,1.6,1.11,3.1,1.84,4.57c0.29,0.59,1.35,3.7,1.86,3.89
			c-3.74-1.42-6.47-6.57-7.06-10.32c-0.53-3.34-0.23-6.88,0.96-10.05c1.31-3.51,3.47-5.57,6.35-7.84
			c5.29-4.18,11.52-6.24,16.67-10.74c2.41-2.1,4.7-4.31,7.01-6.51c1-0.95,2.01-1.9,3.14-2.71c1.95-1.41,5.25-3.64,7.75-3.34
			c-0.48-0.06-2.26,1.57-2.72,1.88c-1,0.67-2,1.33-2.97,2.05c-1.7,1.27-3.4,2.73-4.84,4.27c-3.26,3.48-5.68,7.5-9.74,10.2
			C583.11,297.82,575.15,301.79,572.06,309.04z"/>
		<path class="st18" d="M700.34,313.4c-0.68,2.45-1.8,4.76-3.23,6.86c-0.72,1.06-1.55,2.01-2.39,2.98c-0.26,0.3-1.88,1.61-1.9,1.73
			c0.48-2.06,2.17-4.03,2.93-6.08c0.82-2.22,1.21-4.78,1.02-7.22c-0.45-5.82-4.47-9.91-9.49-12.57c-2.37-1.25-4.81-2.26-6.94-3.89
			c-2.1-1.61-3.8-3.57-5.7-5.35c-4.2-3.92-9.36-7.77-14.56-10.3c-2.19-1.07-4.69-1.79-7.07-2.17c-1.7-0.27-3.43-0.33-5.14-0.57
			c-1.05-0.15-3.12,0.05-3.92-0.54c4.26-1.03,8.5-1.9,12.89-0.88c3.65,0.86,7.22,2.19,10.58,3.83c3.22,1.57,6.48,3.24,8.97,5.8
			c1.77,1.83,3.55,3.73,5.66,5.25C689.62,295.75,703.66,301.5,700.34,313.4z"/>
	</g>
	<g>
		<path class="st0" d="M483.56,214.24c0,34.74-58.77,62.91-131.27,62.91c-72.5,0-131.27-28.17-131.27-62.91
			c0-34.74,58.77-62.9,131.27-62.9C424.79,151.33,483.56,179.5,483.56,214.24z"/>
		<g>
			<path class="st1" d="M408.37,210.32c0,12.48-25.11,23.72-56.09,23.72c-30.98,0-56.09-11.24-56.09-23.72
				c0-12.48,25.11-19.43,56.09-19.43C383.26,190.89,408.37,197.83,408.37,210.32z"/>
			<path class="st4" d="M487.12,103.84c0,59.16-48.05,120.28-134.83,120.28c-88.35,0-134.83-61.12-134.83-120.28
				c0-59.15,60.37-83.01,134.83-83.01C426.75,20.83,487.12,44.69,487.12,103.84z"/>
			<path class="st19" d="M487.12,103.84c0-59.15-60.37-85.37-134.83-85.37c-74.47,0-134.83,26.21-134.83,85.37
				c0,29.96,14.43,65.84,39.4,86.62c19.46-11.36,45.69-13.84,98.84-13.84c43.11,0,64.45,0.23,92.84,12.66
				C472.39,168.64,487.12,133.05,487.12,103.84z"/>
			<path class="st3" d="M488.27,89.2c0,40.81-60.88,73.9-135.98,73.9c-75.09,0-135.97-33.09-135.97-73.9
				c0-40.82,60.88-73.9,135.97-73.9C427.39,15.3,488.27,48.39,488.27,89.2z"/>
			<path class="st20" d="M352.29,38.56c62.79,0,114.62,24.41,122.65,56.04c0.71-2.8,1.12-5.66,1.12-8.57
				c0-35.68-55.41-64.6-123.77-64.6c-68.35,0-123.77,28.92-123.77,64.6c0,2.91,0.41,5.76,1.12,8.57
				C237.67,62.97,289.5,38.56,352.29,38.56z"/>
			<linearGradient id="SVGID_1_" gradientUnits="userSpaceOnUse" x1="350.7694" y1="139.7883" x2="355.4473" y2="0.622">
				<stop  offset="0" style="stop-color:#FFFFFF"/>
				<stop  offset="1" style="stop-color:#E8EDD7"/>
			</linearGradient>
			<path class="st21" d="M467.04,79.01c0.14-0.59,0.23-1.19,0.23-1.83c0-4.44-3.6-8.05-8.05-8.05c-0.13,0-0.25,0.03-0.39,0.04
				c0.41-0.97,0.65-2.04,0.65-3.15c0-4.44-3.6-8.05-8.05-8.05c-0.77,0-1.5,0.14-2.2,0.34c0.07-0.41,0.13-0.83,0.13-1.25
				c0-4.44-3.6-8.05-8.05-8.05c-0.61,0-1.19,0.08-1.76,0.21c0.19-0.69,0.33-1.4,0.33-2.15c0-4.4-3.54-7.97-7.93-8.04
				c0.16-0.63,0.27-1.28,0.27-1.96c0-4.45-3.6-8.05-8.04-8.05c-1.41,0-2.71,0.39-3.86,1.03c0.04-0.3,0.09-0.59,0.09-0.9
				c0-4.44-3.6-8.05-8.05-8.05c-1.46,0-2.82,0.42-4,1.11c-0.85-3.53-4.01-6.17-7.81-6.17c-1.68,0-3.23,0.51-4.52,1.39
				c-0.84-3.55-4-6.19-7.81-6.19c-1.53,0-2.95,0.45-4.17,1.2c-1.15-3.04-4.06-5.22-7.51-5.22c-2.33,0-4.42,1.01-5.89,2.6
				c-1.25-2.83-4.07-4.8-7.35-4.8c-2.68,0-5.05,1.33-6.51,3.35c-1.38-2.45-3.97-4.13-6.99-4.13c-3.21,0-5.95,1.89-7.24,4.6
				c-1.48-1.84-3.71-3.04-6.26-3.04c-3.19,0-5.93,1.88-7.23,4.57c-1.41-1.22-3.22-1.98-5.24-1.98c-3.49,0-6.43,2.24-7.55,5.35
				c-1.36-1.06-3.05-1.71-4.91-1.71c-3.86,0-7.07,2.72-7.86,6.34c-1.2-0.71-2.59-1.15-4.09-1.15c-3.67,0-6.74,2.47-7.7,5.84
				c-1.21-0.72-2.6-1.16-4.11-1.16c-4.45,0-8.05,3.6-8.05,8.05c0,0.3,0.06,0.58,0.09,0.88c-0.95-0.39-1.98-0.62-3.07-0.62
				c-4.45,0-8.05,3.6-8.05,8.05c0,0.3,0.05,0.58,0.08,0.87c-0.29-0.03-0.57-0.09-0.87-0.09c-4.44,0-8.05,3.6-8.05,8.05
				c0,0.58,0.07,1.14,0.19,1.69c-0.87-0.32-1.8-0.52-2.78-0.52c-4.45,0-8.05,3.6-8.05,8.05c0,0.75,0.14,1.47,0.33,2.16
				c-0.29-0.03-0.56-0.09-0.85-0.09c-4.45,0-8.05,3.6-8.05,8.05c0,1.42,0.4,2.74,1.05,3.89c0,0-0.01,0-0.01,0
				c-4.45,0-8.05,3.6-8.05,8.05c0,1.65,0.5,3.18,1.35,4.46c-2.4,3.79-4.17,7.72-5.2,11.79c8.04,31.62,59.86,56.04,122.65,56.04
				c62.79,0,114.62-24.41,122.65-56.04C473.56,89.15,470.85,83.93,467.04,79.01z"/>
			
				<linearGradient id="SVGID_00000077303221050132343270000001615954703875799484_" gradientUnits="userSpaceOnUse" x1="847.5196" y1="2119.4595" x2="840.5692" y2="2118.4175" gradientTransform="matrix(0.9085 0.4179 -0.4179 0.9085 428.7709 -2166.7195)">
				<stop  offset="0" style="stop-color:#FFFFFF"/>
				<stop  offset="1" style="stop-color:#F0F2D9"/>
			</linearGradient>
			<path style="fill:url(#SVGID_00000077303221050132343270000001615954703875799484_);" d="M307.66,107.91
				c-1.08,2.35-5.55,2.6-9.98,0.56c-4.43-2.04-7.15-5.6-6.07-7.94c1.08-2.35,5.55-2.6,9.98-0.56
				C306.02,102.01,308.74,105.56,307.66,107.91z"/>
			
				<linearGradient id="SVGID_00000032631577080718891430000000262744058625090748_" gradientUnits="userSpaceOnUse" x1="9978.9561" y1="793.9701" x2="9972.0049" y2="792.9279" gradientTransform="matrix(-0.9727 0.2319 -0.2319 -0.9727 10258.1865 -1423.0792)">
				<stop  offset="0" style="stop-color:#FFFFFF"/>
				<stop  offset="1" style="stop-color:#F0F2D9"/>
			</linearGradient>
			<path style="fill:url(#SVGID_00000032631577080718891430000000262744058625090748_);" d="M374.89,119.43
				c-0.6-2.51,2.76-5.46,7.51-6.6c4.75-1.13,9.08-0.01,9.68,2.5c0.6,2.51-2.76,5.47-7.51,6.6
				C379.82,123.07,375.49,121.95,374.89,119.43z"/>
			
				<linearGradient id="SVGID_00000165929581614508226150000002955484257317889190_" gradientUnits="userSpaceOnUse" x1="9926.8105" y1="790.0868" x2="9919.8584" y2="789.0444" gradientTransform="matrix(-0.9727 0.2319 -0.2319 -0.9727 10258.1865 -1423.0792)">
				<stop  offset="0" style="stop-color:#FFFFFF"/>
				<stop  offset="1" style="stop-color:#F0F2D9"/>
			</linearGradient>
			<path style="fill:url(#SVGID_00000165929581614508226150000002955484257317889190_);" d="M426.51,111.12
				c-0.6-2.51,2.76-5.47,7.51-6.6c4.75-1.13,9.08-0.01,9.68,2.5c0.6,2.51-2.76,5.47-7.51,6.6
				C431.45,114.75,427.11,113.63,426.51,111.12z"/>
			
				<linearGradient id="SVGID_00000165227174712580242570000013646351901383431076_" gradientUnits="userSpaceOnUse" x1="8899.0537" y1="3057.3721" x2="8892.1025" y2="3056.3296" gradientTransform="matrix(-0.7275 0.6861 -0.6861 -0.7275 8927.5078 -3767.7034)">
				<stop  offset="0" style="stop-color:#FFFFFF"/>
				<stop  offset="1" style="stop-color:#F0F2D9"/>
			</linearGradient>
			<path style="fill:url(#SVGID_00000165227174712580242570000013646351901383431076_);" d="M362.5,110.62
				c-1.77-1.88-0.33-6.12,3.22-9.46c3.55-3.35,7.87-4.54,9.64-2.66c1.77,1.88,0.33,6.12-3.22,9.46
				C368.59,111.31,364.28,112.51,362.5,110.62z"/>
			
				<linearGradient id="SVGID_00000058548216578072013790000009564233508236552344_" gradientUnits="userSpaceOnUse" x1="9824.8027" y1="1199.076" x2="9817.8516" y2="1198.0337" gradientTransform="matrix(-0.9488 0.316 -0.316 -0.9488 10121.752 -1879.0436)">
				<stop  offset="0" style="stop-color:#FFFFFF"/>
				<stop  offset="1" style="stop-color:#F0F2D9"/>
			</linearGradient>
			<path style="fill:url(#SVGID_00000058548216578072013790000009564233508236552344_);" d="M428.46,87.95
				c-0.81-2.45,2.28-5.69,6.91-7.23c4.63-1.54,9.04-0.81,9.86,1.65c0.82,2.45-2.28,5.69-6.9,7.23
				C433.69,91.14,429.28,90.4,428.46,87.95z"/>
			
				<linearGradient id="SVGID_00000132055470368300186880000007040497981891661990_" gradientUnits="userSpaceOnUse" x1="4180.2856" y1="4701.5337" x2="4173.334" y2="4700.4917" gradientTransform="matrix(0.2676 0.9635 -0.9635 0.2676 3668.1658 -5173.6978)">
				<stop  offset="0" style="stop-color:#FFFFFF"/>
				<stop  offset="1" style="stop-color:#F0F2D9"/>
			</linearGradient>
			<path style="fill:url(#SVGID_00000132055470368300186880000007040497981891661990_);" d="M257.3,104.76
				c-2.49,0.69-5.57-2.56-6.87-7.26c-1.31-4.7-0.35-9.08,2.14-9.77c2.49-0.69,5.57,2.56,6.87,7.26
				C260.75,99.7,259.79,104.07,257.3,104.76z"/>
			
				<linearGradient id="SVGID_00000121254582213229464500000011323757159606816142_" gradientUnits="userSpaceOnUse" x1="4244.5654" y1="4621.5713" x2="4237.6152" y2="4620.5293" gradientTransform="matrix(0.2676 0.9635 -0.9635 0.2676 3668.1658 -5173.6978)">
				<stop  offset="0" style="stop-color:#FFFFFF"/>
				<stop  offset="1" style="stop-color:#F0F2D9"/>
			</linearGradient>
			<path style="fill:url(#SVGID_00000121254582213229464500000011323757159606816142_);" d="M351.54,145.3
				c-2.49,0.69-5.56-2.56-6.87-7.26c-1.31-4.7-0.35-9.07,2.14-9.76c2.49-0.69,5.57,2.56,6.87,7.26
				C354.99,140.24,354.03,144.61,351.54,145.3z"/>
			<path class="st29" d="M309.04,62.69c-0.8-2.46,2.3-5.68,6.94-7.19c4.64-1.52,9.05-0.76,9.85,1.69c0.81,2.45-2.3,5.68-6.94,7.19
				C314.26,65.91,309.85,65.15,309.04,62.69z"/>
			<path class="st29" d="M346.44,46.44c-0.8-2.46,2.3-5.68,6.95-7.2c4.63-1.52,9.05-0.76,9.85,1.7c0.81,2.45-2.3,5.68-6.94,7.19
				C351.66,49.66,347.25,48.9,346.44,46.44z"/>
			<path class="st29" d="M316.13,28.12c0.61-2.51,4.94-3.62,9.69-2.48c4.74,1.14,8.1,4.1,7.5,6.62c-0.6,2.51-4.94,3.62-9.69,2.48
				C318.89,33.6,315.53,30.64,316.13,28.12z"/>
			<path class="st29" d="M364.33,18.51c0.99-2.39,5.44-2.81,9.95-0.94c4.51,1.86,7.36,5.31,6.38,7.7c-0.98,2.39-5.45,2.81-9.95,0.95
				C366.2,24.34,363.34,20.9,364.33,18.51z"/>
			
				<linearGradient id="SVGID_00000120528219536178474520000012940439679352814518_" gradientUnits="userSpaceOnUse" x1="9875.1475" y1="1158.1915" x2="9868.1963" y2="1157.1493" gradientTransform="matrix(-0.9503 0.3113 -0.3113 -0.9503 10033.9414 -1854.1396)">
				<stop  offset="0" style="stop-color:#FFFFFF"/>
				<stop  offset="1" style="stop-color:#F0F2D9"/>
			</linearGradient>
			<path style="fill:url(#SVGID_00000120528219536178474520000012940439679352814518_);" d="M296.43,119.44
				c-0.81-2.46,2.3-5.68,6.94-7.2c4.64-1.52,9.05-0.76,9.85,1.7c0.81,2.45-2.3,5.68-6.94,7.19
				C301.64,122.66,297.23,121.9,296.43,119.44z"/>
		</g>
	</g>
	<g>
		<path class="st31" d="M68.89,174.21c1.94-4.29,7.72-4.94,12.03-4.24c1.66,0.27,2.93,0.9,4.29,1.77
			c0.23,0.14,139.51,89.22,161.15,103.06c13.51-9.47,39.97-6.48,58.76,3.22c22.17,11.44,31.01,33.6,22.58,50.83
			c-8.03,16.43-34.01,25.43-61.54,11.84c-28.36-14-35.37-42.9-25.73-59.54c-25.18-14.54-166.93-96.41-166.95-96.42
			C69.82,182.62,67.09,178.18,68.89,174.21z"/>
		<path class="st32" d="M69.85,171.3c1.94-4.29,7.72-4.94,12.03-4.24c1.66,0.27,2.93,0.9,4.28,1.77
			c0.23,0.15,139.51,89.22,161.15,103.06c13.51-9.47,39.97-6.48,58.77,3.22c22.17,11.44,32.27,34.2,22.58,50.83
			c-9.7,16.64-35.52,20.85-57.68,9.42c-22.14-11.43-39.22-40.47-29.59-57.12c-25.18-14.54-166.93-96.41-166.95-96.42
			C70.77,179.71,68.05,175.27,69.85,171.3z"/>
		<path class="st31" d="M245.41,280.58c-8.84,15.17,7.24,40.63,27.44,51.05c20.21,10.43,43.26,7.65,52.1-7.52
			c8.84-15.17-0.38-35.92-20.58-46.35C284.17,267.34,254.25,265.41,245.41,280.58z"/>
	</g>
	<g>
		<polygon class="st31" points="30.79,190.27 38.94,191.4 272.07,371.55 267.95,374.49 31.87,197.88 		"/>
		<polygon class="st32" points="40.83,186.23 272.56,368.17 268.42,371.08 30.79,190.27 		"/>
		<polygon class="st33" points="272.56,368.17 268.42,371.08 267.95,374.49 272.29,371.5 		"/>
		<polygon class="st31" points="13.33,208.05 21.53,208.83 262.1,378.91 258.11,382.03 14.74,215.6 		"/>
		<polygon class="st32" points="23.19,203.58 262.44,375.51 258.43,378.6 13.33,208.05 		"/>
		<polygon class="st33" points="262.44,375.51 258.43,378.6 258.11,382.03 262.32,378.85 		"/>
	</g>
	<g>
		<path class="st0" d="M547.08,399.18c0,23.55-41.47,42.65-92.63,42.65c-51.15,0-92.62-19.1-92.62-42.65
			c0-23.55,41.47-42.64,92.62-42.64C505.61,356.54,547.08,375.63,547.08,399.18z"/>
		<g>
			<path class="st1" d="M456.86,409.69v-0.35l-2.88,0.17l-2.89-0.17v0.35l-28.06,1.69c5.46,5.73,12.83,8.29,22.59,9.12
				c3.95,0.34,10.96,0.49,16.15,0.08c8.78-0.68,17.52-3.3,23.14-9.2L456.86,409.69z"/>
			<path class="st2" d="M461.85,348.85v-1.89l-7.87,0.94l-7.87-0.94v1.89l-76.6,9.17c6.27,26.2,26.36,45.02,49.98,52.77
				c26.39,8.66,49.89,5.88,63.81,1.71c22.91-6.87,46.53-22.37,55.16-54.47L461.85,348.85z"/>
			<path class="st3" d="M552.06,338.45c0,29.94-43.7,54.21-97.61,54.21c-53.9,0-97.6-24.27-97.6-54.21c0-29.93,43.7-54.2,97.6-54.2
				C508.35,284.24,552.06,308.51,552.06,338.45z"/>
			<path class="st4" d="M390.18,304.68c-16.39,8.84-25.42,20.33-25.42,32.37s9.03,23.53,25.42,32.37
				c17.11,9.23,39.93,14.31,64.27,14.31c24.35,0,47.18-5.08,64.29-14.31c16.38-8.84,25.41-20.33,25.41-32.37
				s-9.02-23.53-25.41-32.37c-17.11-9.22-39.94-14.31-64.29-14.31C430.11,290.37,407.29,295.46,390.18,304.68z"/>
			<path class="st34" d="M400.98,322.7c-8.35,4.29-15.38,10.48-19.7,19.49c-6.49,13.52,6.04,25.01,16.97,30.9
				c14.34,7.74,33.47,12,53.87,12c20.41,0,39.54-4.26,53.88-12c9.52-5.13,22.73-14.23,21.55-26.44
				c-1.33-13.83-16.68-20.99-27.88-25.77c-6.68-2.85-11.01-5-15.26-11.1c-3.8-5.45-9.22-9.18-16-8.83
				c0.31,8.91-9.75,10.96-16.71,11.39C435.93,313.31,416.23,314.85,400.98,322.7z"/>
		</g>
		<path class="st35" d="M392.03,344.41c-1.96,2.52-5.03,4.73-5.93,7.92c-3.85-5.93,1.82-15.2,5.97-19.41
			c4.92-5.01,11.5-8.13,18.08-10.34c13.26-4.45,27.45-5.52,41.32-6.29c7.18-0.4,13.12-2.01,17.27-8.3
			c1.08,4.89-4.59,9.12-7.95,11.38c-6.47,4.34-13.97,6.19-21.59,7.71C423.52,330.21,402.88,330.43,392.03,344.41z"/>
		<path class="st35" d="M496.98,373.34c9.67,0.35,19.57-9.12,24.18-16.66c2.31-3.77,4.15-8.85,2.86-13.26
			c-1.22-4.17-6.16-8.83-10.7-8.65c6.36,3.68,2.48,15.62,0,20.41c-1.94,3.76-4.53,7.19-7.4,10.29
			C504.46,367.07,499.25,373.43,496.98,373.34z"/>
	</g>
</g>
</svg>
