<?xml version="1.0" encoding="utf-8"?>
<!-- Generator: Adobe Illustrator 26.5.0, SVG Export Plug-In . SVG Version: 6.00 Build 0)  -->
<svg version="1.1" id="Layer_1" xmlns="http://www.w3.org/2000/svg" xmlns:xlink="http://www.w3.org/1999/xlink" x="0px" y="0px"
	 viewBox="0 0 442.7 350.58" style="enable-background:new 0 0 442.7 350.58;" xml:space="preserve">
<style type="text/css">
	.st0{fill:#E8EDED;}
	.st1{fill:#535D4E;}
	.st2{fill:#6A746A;}
	.st3{fill:#C29719;}
	.st4{fill:#A70000;}
	.st5{fill:#E12600;}
	.st6{fill:#688B00;}
	.st7{fill:#869F00;}
	.st8{fill:#F0C57C;}
	.st9{fill:#FFE19A;}
	.st10{fill:#5D7C00;}
	.st11{fill:#889500;}
	.st12{fill:#D9D200;}
	.st13{fill:#BD7C00;}
	.st14{fill:#D7B300;}
	.st15{fill:#C59000;}
	.st16{fill:#CDA919;}
	.st17{fill:#6A6A5D;}
</style>
<g>
	<path class="st0" d="M442.7,241.8c0,60.08-99.1,108.78-221.35,108.78C99.1,350.58,0,301.88,0,241.8
		c0-60.06,99.1-108.76,221.35-108.76C343.6,133.04,442.7,181.74,442.7,241.8z"/>
	<g>
		<path class="st1" d="M378.89,51.79L221.51,76.81L64.14,51.79c-42.59,51.59-39.99,116.6-38.35,142.83
			c4.99,79.4,98.75,102.54,163.8,109.46c28.58,3.04,45.75,2.25,69.01-0.6c25.92-3.18,51.86-8.39,76.43-17.38
			c12.98-4.75,25.72-10.52,37.35-18.07c24.43-15.92,43.03-44.1,44.86-73.43C418.88,168.39,421.47,103.38,378.89,51.79z"/>
		<path class="st1" d="M39.5,97.08c-0.93-0.78-1.99-1.37-3.22-1.73c-3.47-1-7.41,0.1-10.81,0.87c-4.09,0.93-10.7,1.23-14.01,3.86
			c-7.11,5.64-4.05,20.17-2.99,27.59c1.37,9.62,4.89,20.02,12.11,26.86c5.43,5.14,14.64,2.79,21.38,2.66
			c3.58-0.07,7.19,0,10.75,0.38c1.41,0.15,8.77,0.67,9.31,2.34c-2.28-6.9-4.55-13.79-6.82-20.7c-2.8-8.48-5.59-16.96-8.39-25.44
			C45.15,108.71,43.95,100.81,39.5,97.08z"/>
		<path class="st2" d="M40.8,81.07c0,0-3.5,6.73-11.57,8.08c0,0-15.49,4.54-15.61,4.58c-7.92,2.32-6.02,13.41-5.15,19.5
			c1.37,9.62,4.89,20.02,12.11,26.86c5.43,5.14,14.64,2.79,21.38,2.66c3.58-0.07,7.19,0,10.75,0.38c1.41,0.15,8.77,0.67,9.31,2.34
			C62.02,145.46,40.8,81.07,40.8,81.07z"/>
		<path class="st1" d="M404.7,117.12c0,0,2.13-7.28,9.79-10.17c0,0,14.3-7.45,14.43-7.52c5.93-3.07,4.41-12.43,4.2-17.93
			c-0.08-2.18-0.41-3.27-1.82-4.82c-2.1-2.3-3.32-3.14-4.92-6.15c-3.18-5.99-7.5-11.58-13.29-15.24c-6.32-3.99-14.91,0.1-21.5,1.53
			c-3.5,0.76-7.05,1.4-10.62,1.71c-1.41,0.12-8.73,1.04-9.6-0.48C371.39,58.07,404.7,117.12,404.7,117.12z"/>
		<path class="st2" d="M404.7,105.42c0,0,2.13-7.28,9.79-10.17c0,0,14.32-7.46,14.43-7.52c7.32-3.81,3.3-14.32,1.27-20.13
			c-3.21-9.17-8.69-18.69-17.09-23.99c-6.32-3.99-14.91,0.1-21.5,1.53c-3.5,0.77-7.05,1.4-10.62,1.71c-1.41,0.12-8.73,1.04-9.6-0.48
			C371.39,46.38,404.7,105.42,404.7,105.42z"/>
		<path class="st2" d="M406.06,102.5c0,56.61-82.63,102.5-184.55,102.5c-101.92,0-184.55-45.89-184.55-102.5
			C36.97,45.89,119.59,0,221.51,0C323.43,0,406.06,45.89,406.06,102.5z"/>
		<g>
			<path class="st1" d="M100.18,71.77c32.3-17.41,75.38-27.01,121.33-27.01c45.96,0,89.05,9.6,121.34,27.01
				c23.33,12.58,38.75,28.02,44.92,44.6c2.01-5.4,3.05-10.93,3.05-16.51c0-22.72-17.04-44.42-47.96-61.1
				c-32.29-17.42-75.38-27.01-121.34-27.01c-45.95,0-89.04,9.59-121.33,27.01c-30.93,16.68-47.97,38.38-47.97,61.1
				c0,5.59,1.03,11.11,3.05,16.51C61.43,99.79,76.85,84.35,100.18,71.77z"/>
			<path class="st3" d="M100.18,160.96c32.3,17.42,75.38,27.01,121.33,27.01c45.96,0,89.05-9.6,121.34-27.01
				c23.33-12.58,38.75-28.02,44.92-44.59c-6.17-16.58-21.59-32.01-44.92-44.6c-32.29-17.41-75.38-27.01-121.34-27.01
				c-45.95,0-89.04,9.6-121.33,27.01c-23.33,12.58-38.75,28.02-44.92,44.6C61.43,132.94,76.85,148.38,100.18,160.96z"/>
		</g>
		<g>
			<path class="st4" d="M257.43,108.75c1.86-0.05,3.88-0.2,5.68-0.69c1.11-0.3,3.12-0.75,3.78-1.74c0.66,0.65,0.81,1.74,1.15,2.56
				c0.47,1.15,1.06,2.29,1.63,3.39c2.82,5.47-4.48,5.95-8.09,5.75c-3.66-0.21-7.04-1.14-10.58-2.03c-4.87-1.23-10.74-3.3-14.15-7.08
				c-2.03-2.24-5.42-8.17-2.39-10.6c2.42-1.94,2.28,2.95,3.25,4.31c1.8,2.53,6.22,4.08,9,5.05
				C250.16,108.88,253.84,108.85,257.43,108.75z"/>
			<path class="st4" d="M235.75,98.09c1.8-1.9,6.01-1.2,8.33-1.25c3.5-0.08,6.98,0.33,10.34,1.34c3.42,1.03,8.41,2.73,10.26,6.04
				c2.27,4.08-3.31,4.85-5.98,5.24c1.83-2.43-7.3-4.9-8.8-5.2c-1.63-0.32-10.1-2.54-10.69,0.1C236.57,104,233.5,100.46,235.75,98.09
				z"/>
			<g>
				<path class="st5" d="M247.31,109.74c3.01,0.96,15.92,3.44,19.24-0.25c0.75-0.83,1-1.98,0.56-3.52
					c-1.64-5.63-8.38-8.04-13.5-9.22c-5.66-1.3-13.37-2.96-18.63,0.09C226.87,101.53,243.77,108.61,247.31,109.74z M238.32,98.4
					c0.63-0.35,1.33-0.6,2.08-0.79c3.99-0.99,8.13-0.05,12.02,0.91c3.29,0.81,6.69,1.85,9.35,4.04c2.5,2.06,1.71,4.36-1.42,4.84
					c-5.64,0.88-12.49-0.96-17.77-2.84C240.64,103.88,234.43,100.51,238.32,98.4z"/>
			</g>
		</g>
		<g>
			<path class="st6" d="M223.32,98.72c2,0.08,4.19,0.07,6.16-0.32c1.22-0.24,3.42-0.58,4.2-1.59c0.66,0.75,0.73,1.93,1.03,2.84
				c0.43,1.27,0.97,2.54,1.5,3.77c2.63,6.08-5.25,6.07-9.12,5.58c-3.93-0.5-7.49-1.74-11.23-2.96c-5.14-1.68-11.3-4.35-14.69-8.66
				c-2.01-2.56-5.23-9.19-1.78-11.58c2.74-1.9,2.23,3.34,3.17,4.88c1.74,2.85,6.39,4.85,9.31,6.1
				C215.48,98.33,219.45,98.57,223.32,98.72z"/>
			<path class="st6" d="M200.8,85.65c2.08-1.91,6.56-0.84,9.05-0.72c3.77,0.17,7.49,0.88,11.02,2.21c3.6,1.36,8.84,3.56,10.58,7.26
				c2.15,4.56-3.91,4.97-6.82,5.19c2.15-2.48-7.48-5.81-9.08-6.24c-1.73-0.46-10.68-3.48-11.51-0.68
				C201.24,92.06,198.19,88.04,200.8,85.65z"/>
			<g>
				<g>
					<path class="st6" d="M212.36,99.04c3.17,1.26,16.88,4.88,20.71,1.16c0.87-0.84,1.23-2.05,0.86-3.74
						c-1.33-6.17-8.42-9.27-13.83-10.91c-5.99-1.82-14.17-4.17-20.05-1.29C190.99,88.69,208.64,97.56,212.36,99.04z M203.53,86.17
						c0.7-0.32,1.48-0.55,2.3-0.69c4.36-0.77,8.75,0.55,12.86,1.87c3.49,1.12,7.06,2.49,9.76,5.05c2.54,2.4,1.51,4.81-1.89,5.1
						c-6.13,0.53-13.36-1.96-18.91-4.37C205.62,92.24,199.19,88.16,203.53,86.17z"/>
				</g>
				<g>
					<path class="st7" d="M212.36,99.04c3.17,1.26,16.88,4.88,20.71,1.16c0.87-0.84,1.23-2.05,0.86-3.74
						c-1.33-6.17-8.42-9.27-13.83-10.91c-5.99-1.82-14.17-4.17-20.05-1.29C190.99,88.69,208.64,97.56,212.36,99.04z M203.53,86.17
						c0.7-0.32,1.48-0.55,2.3-0.69c4.36-0.77,8.75,0.55,12.86,1.87c3.49,1.12,7.06,2.49,9.76,5.05c2.54,2.4,1.51,4.81-1.89,5.1
						c-6.13,0.53-13.36-1.96-18.91-4.37C205.62,92.24,199.19,88.16,203.53,86.17z"/>
				</g>
			</g>
		</g>
		<g>
			<path class="st6" d="M213.71,121.57c-2.13-0.26-4.44-0.65-6.45-1.41c-1.24-0.47-3.51-1.2-4.15-2.41
				c-0.82,0.68-1.11,1.91-1.59,2.82c-0.67,1.27-1.46,2.51-2.24,3.73c-3.84,5.97,4.49,7.32,8.66,7.47c4.23,0.16,8.21-0.54,12.38-1.18
				c5.72-0.88,12.68-2.63,17.01-6.6c2.56-2.35,7.11-8.8,3.89-11.91c-2.57-2.48-2.94,3.13-4.2,4.59c-2.33,2.71-7.59,4.01-10.89,4.83
				C222.06,122.52,217.83,122.08,213.71,121.57z"/>
			<path class="st6" d="M239.77,111.68c-1.87-2.38-6.78-2.02-9.43-2.34c-4-0.47-8.06-0.37-12.02,0.42
				c-4.04,0.81-9.96,2.22-12.43,5.83c-3.06,4.44,3.27,5.93,6.3,6.66c-1.84-2.99,8.91-4.84,10.67-5.01
				c1.92-0.19,11.88-1.83,12.27,1.28C238.19,118.38,242.09,114.66,239.77,111.68z"/>
			<g>
				<g>
					<path class="st6" d="M240.79,110.33c-5.7-4.06-14.74-3-21.39-2.11c-6,0.8-14.01,2.84-16.5,9.12c-0.68,1.73-0.51,3.07,0.26,4.1
						c3.4,4.6,18.5,3.15,22.06,2.37C229.42,122.9,249.59,116.59,240.79,110.33z M231.22,118.39c-6.27,1.58-14.34,2.95-20.72,1.33
						c-3.53-0.9-4.2-3.62-1.1-5.72c3.3-2.23,7.31-3.05,11.18-3.63c4.57-0.68,9.43-1.31,13.9,0.26c0.84,0.3,1.62,0.67,2.3,1.13
						C241.03,114.61,233.53,117.81,231.22,118.39z"/>
				</g>
				<g>
					<path class="st7" d="M240.79,110.33c-5.7-4.06-14.74-3-21.39-2.11c-6,0.8-14.01,2.84-16.5,9.12c-0.68,1.73-0.51,3.07,0.26,4.1
						c3.4,4.6,18.5,3.15,22.06,2.37C229.42,122.9,249.59,116.59,240.79,110.33z M231.22,118.39c-6.27,1.58-14.34,2.95-20.72,1.33
						c-3.53-0.9-4.2-3.62-1.1-5.72c3.3-2.23,7.31-3.05,11.18-3.63c4.57-0.68,9.43-1.31,13.9,0.26c0.84,0.3,1.62,0.67,2.3,1.13
						C241.03,114.61,233.53,117.81,231.22,118.39z"/>
				</g>
			</g>
		</g>
		<g>
			<path class="st4" d="M184.68,106.79c-1.9-0.63-3.95-1.41-5.65-2.48c-1.05-0.66-2.99-1.75-3.36-2.97
				c-0.88,0.47-1.37,1.55-1.97,2.29c-0.85,1.04-1.8,2.04-2.74,3c-4.62,4.77,2.77,7.54,6.56,8.45c3.84,0.92,7.62,1.01,11.55,1.19
				c5.41,0.25,12.11-0.08,16.8-2.91c2.79-1.69,8.13-6.76,5.75-10.2c-1.9-2.75-3.27,2.33-4.69,3.44c-2.64,2.05-7.69,2.28-10.87,2.42
				C192.16,109.19,188.37,108.02,184.68,106.79z"/>
			<path class="st4" d="M210.38,102.52c-1.27-2.53-5.84-3.1-8.21-3.88c-3.58-1.17-7.31-1.82-11.09-1.82c-3.85,0-9.53,0.2-12.47,3.05
				c-3.62,3.51,1.91,6.04,4.55,7.26c-1.13-3.07,9.05-2.79,10.7-2.63c1.78,0.18,11.22,0.51,11.01,3.43
				C207.7,108.36,211.97,105.67,210.38,102.52z"/>
			<g>
				<path class="st5" d="M211.56,101.46c-4.48-4.77-12.96-5.46-19.21-5.87c-5.65-0.37-13.36,0.03-16.79,5.33
					c-0.94,1.46-1.03,2.72-0.52,3.81c2.27,4.84,16.37,6.29,19.78,6.23C198.84,110.9,218.48,108.82,211.56,101.46z M201.31,107.09
					c-6.04,0.3-13.68,0.07-19.23-2.59c-3.07-1.47-3.18-4.09,0.04-5.44c3.43-1.44,7.26-1.45,10.91-1.27
					c4.31,0.21,8.88,0.53,12.69,2.79c0.72,0.43,1.36,0.91,1.91,1.46C211,105.43,203.53,106.98,201.31,107.09z"/>
			</g>
		</g>
		<path class="st8" d="M146.55,99.98l13.26-3.71c0,0,4.77-0.53,7.95,4.24l18.04,31.29l-11.67,5.31L146.55,99.98z"/>
		<path class="st9" d="M102.53,124.38l41.9-23.34c0,0,3.71-3.71,9.02,2.65l20.69,33.42C174.13,137.12,120.56,130.22,102.53,124.38z"
			/>
		<path class="st8" d="M297.76,115.72l-10.88-3.04c0,0-3.92-0.44-6.53,3.48l-14.79,25.67l9.57,4.35L297.76,115.72z"/>
		<path class="st9" d="M321.99,135.79l-22.5-19.2c0,0-3.04-3.04-7.39,2.18l-16.98,27.41C275.13,146.18,307.2,140.58,321.99,135.79z"
			/>
		<path class="st8" d="M219.94,147.19c-4.15,3.02-8.5,5.63-13.73,6.33c-8.36,1.12-17.47,0.58-25.95,0.96
			c-5.12,0.23-12.71-0.09-16.94,2.88c4.5,4.85,9.51,9.08,15.23,12.43c5.51,3.23,11.26,4.45,17.33,6.21c3.8,1.1,7.75,2.21,11.75,2.09
			c4.21-0.12,6.32-1.83,8.94-4.92c3.24-3.82,6.48-7.64,9.72-11.46c3.76-4.43,5.04-8.25,6.58-13.8c0.94-3.36,1.58-7.16,1.13-10.64
			c-1.87,0.15-4.87,3.07-6.41,4.16C224.99,143.3,222.52,145.32,219.94,147.19z"/>
		<path class="st9" d="M219.22,138.18c0,0-41.91,8.49-55.69,19.1l39.25,8.49c0,0,6.37,2.65,11.14-4.24l20.69-24.4
			C234.61,137.12,228.77,136.05,219.22,138.18z"/>
		<path class="st8" d="M241.13,86.86c0,0,10.44-11.03,10.44-11.03s5.3-7.29,12.52-6.5c7.96,0.87,15.88,2.62,23.75,4.07
			c4.22,0.78,10.24,0.83,14.09,2.75c4.2,2.1,4.99,7.25,5.44,11.44c0.29,2.68,0.67,4.07-1.62,5.82c-1.95,1.49-4.44,2.14-6.57,3.31
			c-3.95,2.17-6.06,2.43-10.29,1.35c-3.26-0.83-6.74-1.21-10.05-1.89c-6.95-1.42-13.9-2.91-20.8-4.57
			C256.45,91.22,241.75,86.2,241.13,86.86z"/>
		<path class="st9" d="M232.29,85.32l10.44-11.03c0,0,5.3-7.29,12.52-6.5c7.23,0.79,45.68,8.22,45.68,8.22s5.44,1.72,1.31,9.74
			l-9.4,13.29C292.85,99.04,248.24,91.08,232.29,85.32z"/>
		<g>
			<path class="st10" d="M160.37,77.46c1.4-2.52,3.05-5.12,5.59-6.57c2.66-1.52,5.02-3.77,7.59-5.48c0.99-0.66,3.21-1.85,3.83-2.82
				c-1-0.47-2.75-0.02-3.79,0.15c-1.58,0.26-3.17,0.57-4.72,1c-2.05,0.56-3.92,1.44-5.76,2.44c-3.39,1.85-6.89,4.29-9.29,7.34
				c-2.17,2.76-4.26,6.8-3.28,10.4c0.53,1.94,4.04,2.2,5.69,2.06c0.78-0.07,0.79-0.04,1.34-0.8
				C159.24,82.85,158.97,79.97,160.37,77.46z"/>
			<g>
				<path class="st11" d="M172.7,67.01c0,0,12.62-7.01,25.24-0.47c0,0,7.77,3.27,9.22,12.28l3.05-0.45
					c-1.23-10.93-10.61-14.85-10.61-14.85c-14.32-7.43-28.64,0.53-28.64,0.53c-16.44,7.96-14.32,22.28-14.32,22.28l3.37-0.5
					C159.88,82.92,160.42,72.95,172.7,67.01z"/>
				<path class="st12" d="M197.94,66.55c-12.62-6.55-25.24,0.47-25.24,0.47c-12.28,5.94-12.82,15.9-12.69,18.81l47.15-7
					C205.71,69.82,197.94,66.55,197.94,66.55z"/>
			</g>
		</g>
		<g>
			<path class="st10" d="M295.54,148.82c-1.09-2.9-2.44-5.92-4.91-7.86c-2.59-2.03-4.74-4.8-7.2-7.03c-0.95-0.86-3.12-2.47-3.63-3.6
				c1.14-0.34,2.92,0.41,4,0.76c1.64,0.52,3.29,1.11,4.87,1.81c2.09,0.92,3.94,2.15,5.74,3.51c3.32,2.5,6.65,5.64,8.72,9.27
				c1.87,3.27,3.46,7.9,1.85,11.57c-0.87,1.98-4.65,1.7-6.37,1.29c-0.82-0.2-0.83-0.17-1.3-1.06
				C295.9,154.73,296.64,151.71,295.54,148.82z"/>
			<g>
				<path class="st11" d="M284.08,135.77c0,0-12.32-9.44-26.76-4.47c0,0-8.77,2.26-11.73,11.6l-3.17-0.96
					c3.03-11.43,13.61-14.12,13.61-14.12c16.4-5.64,30.37,5.07,30.37,5.07c16.23,11.05,11.72,25.94,11.72,25.94l-3.51-1.07
					C295.2,154.7,296.2,144.02,284.08,135.77z"/>
				<path class="st12" d="M257.32,131.3c14.45-4.97,26.76,4.47,26.76,4.47c12.12,8.25,11.12,18.93,10.53,22l-49.03-14.86
					C248.55,133.56,257.32,131.3,257.32,131.3z"/>
			</g>
		</g>
		<g>
			<g>
				<path class="st13" d="M204.65,42.1c2.31-3.47,8.35-3.51,13.48-0.1c5.13,3.42,7.42,9,5.11,12.47c-2.31,3.47-8.34,3.51-13.47,0.1
					C204.63,51.15,202.34,45.57,204.65,42.1z"/>
				<path class="st14" d="M215.16,41.97c0.34-0.51,1.3-0.47,2.14,0.1c0.85,0.57,1.26,1.43,0.93,1.94c-0.34,0.51-1.3,0.46-2.15-0.1
					C215.23,43.34,214.82,42.48,215.16,41.97z"/>
			</g>
			<path class="st15" d="M223.21,51.14c-4.02,6.26-11.58,2.65-16.3-0.38c0.87,2.13,3.07,3.51,4.85,4.46
				c2.6,1.37,7.14,1.96,9.64,0.11c0.71-0.53,2.53-3,1.83-3.99C223.22,51.32,223.21,51.16,223.21,51.14z"/>
		</g>
		<g>
			<g>
				<path class="st13" d="M249.96,55.06c0.97,4.05-3.11,8.5-9.1,9.93c-6,1.43-11.65-0.69-12.61-4.75c-0.97-4.06,3.11-8.5,9.1-9.93
					C243.35,48.88,248.99,51,249.96,55.06z"/>
				<path class="st14" d="M242.91,62.84c0.14,0.59-0.54,1.27-1.54,1.5c-0.99,0.23-1.91-0.05-2.05-0.65c-0.14-0.6,0.55-1.27,1.54-1.5
					C241.86,61.96,242.77,62.25,242.91,62.84z"/>
			</g>
			<path class="st15" d="M230.71,62.5c-1.84-7.21,5.94-10.29,11.38-11.68c-2.15-0.82-4.66-0.14-6.56,0.52
				c-2.78,0.97-6.3,3.89-6.64,6.99c-0.1,0.88,0.47,3.9,1.68,4.06C230.57,62.39,230.69,62.48,230.71,62.5z"/>
		</g>
		<g>
			<g>
				<path class="st13" d="M76.88,120.67c2.22-3.53,8.25-3.73,13.47-0.45c5.22,3.28,7.66,8.8,5.44,12.33
					c-2.22,3.53-8.25,3.73-13.47,0.46C77.1,129.72,74.67,124.2,76.88,120.67z"/>
				<path class="st14" d="M87.38,120.26c0.32-0.52,1.29-0.5,2.14,0.04c0.86,0.54,1.3,1.4,0.97,1.92c-0.32,0.52-1.29,0.5-2.15-0.04
					C87.49,121.63,87.05,120.77,87.38,120.26z"/>
			</g>
			<path class="st15" d="M95.68,129.21c-3.86,6.36-11.51,2.96-16.31,0.05c0.92,2.11,3.17,3.43,4.97,4.33
				c2.63,1.3,7.19,1.77,9.64-0.15c0.7-0.54,2.45-3.06,1.72-4.04C95.7,129.39,95.68,129.23,95.68,129.21z"/>
		</g>
		<g>
			<g>
				<path class="st13" d="M319.82,88.85c2.22-3.53,8.25-3.73,13.47-0.46c5.22,3.28,7.65,8.8,5.44,12.33
					c-2.22,3.53-8.25,3.73-13.46,0.46C320.04,97.89,317.6,92.38,319.82,88.85z"/>
				<path class="st14" d="M330.32,88.43c0.32-0.52,1.29-0.5,2.15,0.04c0.86,0.54,1.3,1.4,0.97,1.92c-0.32,0.52-1.29,0.5-2.15-0.04
					C330.42,89.8,330,88.95,330.32,88.43z"/>
			</g>
			<path class="st15" d="M338.62,97.38c-3.86,6.36-11.51,2.96-16.31,0.05c0.92,2.11,3.16,3.43,4.97,4.33
				c2.63,1.3,7.19,1.77,9.64-0.15c0.7-0.55,2.45-3.07,1.72-4.04C338.63,97.56,338.62,97.41,338.62,97.38z"/>
		</g>
		<g>
			<g>
				<path class="st13" d="M82.35,105.98c0.96,4.05-3.11,8.5-9.11,9.94c-5.99,1.43-11.64-0.69-12.61-4.75
					c-0.97-4.05,3.11-8.5,9.1-9.93C75.73,99.8,81.38,101.93,82.35,105.98z"/>
				<path class="st14" d="M75.29,113.76c0.14,0.59-0.55,1.27-1.53,1.5c-1,0.24-1.91-0.05-2.05-0.65c-0.14-0.59,0.54-1.27,1.54-1.51
					C74.24,112.88,75.15,113.17,75.29,113.76z"/>
			</g>
			<path class="st15" d="M63.09,113.43c-1.84-7.21,5.94-10.29,11.38-11.68c-2.15-0.82-4.66-0.14-6.57,0.52
				c-2.77,0.97-6.3,3.89-6.64,6.99c-0.1,0.88,0.47,3.9,1.68,4.06C62.95,113.31,63.07,113.41,63.09,113.43z"/>
		</g>
		<g>
			<g>
				<path class="st13" d="M322.63,106.51c0.96,4.06-3.11,8.5-9.1,9.94c-6,1.43-11.64-0.69-12.61-4.75c-0.97-4.06,3.11-8.5,9.1-9.93
					C316.02,100.33,321.66,102.46,322.63,106.51z"/>
				<path class="st14" d="M315.58,114.29c0.14,0.59-0.55,1.27-1.53,1.5c-0.99,0.24-1.91-0.05-2.05-0.65
					c-0.14-0.59,0.54-1.27,1.54-1.51C314.53,113.41,315.44,113.7,315.58,114.29z"/>
			</g>
			<path class="st15" d="M303.38,113.96c-1.85-7.21,5.94-10.29,11.38-11.68c-2.15-0.82-4.66-0.14-6.57,0.52
				c-2.77,0.97-6.3,3.89-6.64,6.99c-0.1,0.88,0.47,3.9,1.68,4.06C303.24,113.84,303.36,113.94,303.38,113.96z"/>
		</g>
		<g>
			<g>
				<path class="st13" d="M170.6,171.09c-0.57,4.13-5.98,6.8-12.08,5.97c-6.11-0.84-10.6-4.86-10.04-8.99
					c0.56-4.13,5.98-6.8,12.08-5.96C166.67,162.93,171.17,166.96,170.6,171.09z"/>
				<path class="st14" d="M161.21,175.79c-0.08,0.6-0.96,0.99-1.97,0.85c-1.01-0.14-1.76-0.74-1.68-1.35
					c0.08-0.6,0.97-0.98,1.98-0.85C160.54,174.58,161.29,175.19,161.21,175.79z"/>
			</g>
			<path class="st15" d="M149.95,171.06c0.89-7.39,9.27-7.44,14.84-6.77c-1.71-1.54-4.3-1.82-6.31-1.89
				c-2.93-0.1-7.27,1.35-8.72,4.11c-0.41,0.78-0.97,3.8,0.1,4.39C149.87,170.9,149.95,171.03,149.95,171.06z"/>
		</g>
		<g>
			<g>
				<path class="st13" d="M365.8,140.32c-0.57,4.13-5.98,6.8-12.09,5.96c-6.1-0.84-10.6-4.86-10.03-8.99
					c0.56-4.13,5.98-6.8,12.08-5.96C361.87,132.17,366.36,136.19,365.8,140.32z"/>
				<path class="st14" d="M356.41,145.02c-0.08,0.6-0.96,0.99-1.97,0.85c-1.01-0.14-1.76-0.74-1.68-1.35
					c0.08-0.61,0.97-0.98,1.97-0.85C355.75,143.82,356.49,144.42,356.41,145.02z"/>
			</g>
			<path class="st15" d="M345.16,140.29c0.89-7.39,9.26-7.44,14.84-6.76c-1.71-1.54-4.3-1.82-6.31-1.9
				c-2.94-0.1-7.28,1.35-8.72,4.11c-0.41,0.78-0.97,3.8,0.1,4.39C345.07,140.13,345.15,140.27,345.16,140.29z"/>
		</g>
		<path class="st16" d="M199.63,48.28c0,0-88.71,4.38-127.3,48.14C72.33,96.42,133.99,58.63,199.63,48.28z"/>
		<path class="st16" d="M355.18,150.53c0,0-72.01,48.14-182.2,31.83C172.98,182.35,263.28,189.51,355.18,150.53z"/>
		<path class="st17" d="M28.5,162.66c0,0-6.16,53.38,22.58,82.12c0,0,30.11,40.38,144.4,56.12c0,0-169.03-26.69-158.77-136.87
			L28.5,162.66z"/>
		<path class="st17" d="M409.68,125.71c0,0,8.22,55.43,3.42,75.28c0,0-4.1,29.43-34.22,58.17c0,0,22.58-33.53,24.64-60.91
			c0,0,1.37-38.32-2.74-60.91l6.84-18.48L409.68,125.71z"/>
	</g>
</g>
</svg>
