<?xml version="1.0" encoding="utf-8"?>
<!-- Generator: Adobe Illustrator 26.5.0, SVG Export Plug-In . SVG Version: 6.00 Build 0)  -->
<svg version="1.1" id="Layer_1" xmlns="http://www.w3.org/2000/svg" xmlns:xlink="http://www.w3.org/1999/xlink" x="0px" y="0px"
	 viewBox="0 0 429.05 203.07" style="enable-background:new 0 0 429.05 203.07;" xml:space="preserve">
<style type="text/css">
	.st0{fill:#E8EDED;}
	.st1{fill:#C2907E;}
	.st2{fill:#D4A99D;}
	.st3{fill:#E6CDC0;}
	.st4{fill:#F2E6DC;}
	.st5{fill:#B37753;}
	.st6{fill:#CF9A53;}
	.st7{fill:#E1B653;}
	.st8{fill:#5B2608;}
	.st9{fill:#E1A753;}
	.st10{fill:#C28D53;}
	.st11{fill:#D7A753;}
	.st12{fill:#F2B653;}
	.st13{fill:#E3B365;}
	.st14{fill:#D9A460;}
</style>
<g>
	<g>
		<path class="st0" d="M429.05,151.16c0,28.67-94.44,51.91-210.93,51.91c-116.5,0-210.93-23.24-210.93-51.91
			c0-28.67,94.43-51.9,210.93-51.9C334.61,99.26,429.05,122.49,429.05,151.16z"/>
		<g>
			<path class="st1" d="M233.77,175.96c52.97-4.76,52.11-16.46,52.11-16.46l-71.77,5.85l-71.77-5.85c0,0-0.9,12.29,56.25,16.8
				C210.29,177.23,222.11,177.01,233.77,175.96z"/>
			<path class="st2" d="M396.32,130.89c-0.01,0-182.2,13.69-182.2,13.69L31.91,130.89c0,0,35.57,18.21,96.15,30.34
				c49.23,9.86,98.83,13.05,148.84,5.42c19.6-2.99,42.36-9.2,61.4-14.58c14.58-4.12,28.97-8.87,42.92-14.51
				C385.21,135.94,391.94,131.22,396.32,130.89z"/>
			<path class="st3" d="M423.03,116.07c0,0-67.97-85.3-68.1-85.46c-6.67-8.37-21.23-3.76-30.7-2.95
				c-13.01,1.12-26.04,2.19-39.06,3.2c-7.68,0.59-15.35,1.34-23.05,1.75c-44.75,2.38-80.14,1.25-119.05-1.75
				c-13.02-1.01-26.05-2.08-39.06-3.2c-9.47-0.81-24.03-5.42-30.7,2.95c-0.13,0.16-68.1,85.46-68.1,85.46
				c-3.82,4.31-8.82,12.55-1.33,15.84c8.07,3.54,19.33,3.87,28.05,5.32c19.62,3.26,39.33,5.99,59.08,8.4
				c14.69,1.79,29.38,3.62,44.13,4.86c58.42,4.92,112.87,4.69,167.32-0.85c12.79-1.3,20.4-2.05,33.17-3.61
				c19.75-2.41,41.05-5.54,60.67-8.81c8.71-1.45,19.98-1.78,28.05-5.32C431.85,128.62,426.84,120.38,423.03,116.07z"/>
			<path class="st4" d="M408.23,110.58c0,0-59.35-73.47-59.47-73.61c-6.2-7.19-19.62-2.78-32.33-2.38
				c-12.12,0.39-24.19,1.88-36.29,2.75c-7.14,0.51-14.27,1.16-21.42,1.51c-41.58,2.04-74.46,1.08-110.62-1.51
				c-12.1-0.86-24.2-1.79-36.29-2.75c-8.81-0.7-25.28-5.51-31.47,1.68C80.22,36.41,20,110.58,20,110.58
				c-3.54,3.71-8.2,10.79-1.23,13.62c7.5,3.04,17.97,3.33,26.06,4.57c18.23,2.8,36.54,5.15,54.89,7.22
				c13.65,1.54,27.3,3.11,41.01,4.18c54.29,4.23,104.87,4.03,155.46-0.73c11.89-1.12,18.97-1.76,30.83-3.1
				c18.35-2.07,38.14-4.76,56.37-7.57c8.1-1.24,18.58-1.53,26.06-4.57C416.43,121.37,411.77,114.28,408.23,110.58z"/>
			<g>
				<path class="st5" d="M139.51,16.02c11.76-8.81,25.64-13.54,40.12-15.69c1.94-0.29,18.55-1.56,12.76,3.83
					c3.87-0.83,7.22-2.05,11.39-2.26c1.98-0.1,10.78,1.32,5.98,4.01c9.58,0.96,23.48,1.32,28.57,12.33"/>
				<path class="st5" d="M332.4,44.96c0.84-1.05,2.73-1.78,4-2.21c1.95-0.66,4.33-1.3,6.33-1.63c4.68-0.79,9.86-1.79,14.57-0.69
					c1.33,0.31,2.57,0.8,3.61,1.63c0.75,0.6,1.67,1.57,1.67,2.61c-0.01,0.87-0.55,1.15-1.21,1.52c1.08,0.22,1.91,1.58,2.04,2.61
					c0.16,1.3-0.76,1.79-1.7,2.34c1.12,0.09,1.79,1.26,1.84,2.26c0.09,1.47-0.48,2.06-1.73,2.7c0.91,0.49,1.39,1.61,1.23,2.62
					c-0.08,0.47-0.29,0.94-0.67,1.25c-0.22,0.18-1.18,0.64-1.42,0.44c0.38,0.3,0.54,0.85,0.59,1.31c0.28,2.46-2.65,3.94-4.6,4.52
					c-2.93,0.87-6.77,0.21-9.64-0.55c-3.65-0.97-7.24-2.45-10.49-4.3c-1.26-0.71-2.63-1.32-3.68-2.34
					c-1.23-1.19-0.91-2.35-1.23-3.85c-0.27-1.27,0.06-2.68,0.1-3.98c0.03-1.01,0.09-2.03,0.09-3.04c0-0.75-0.29-1.63-0.11-2.37
					C332.06,45.51,332.2,45.21,332.4,44.96z"/>
				<path class="st6" d="M332.74,44.56c0,0-9.53,0.86-18.6-1.81c-16.99-5-32.14-15.1-48.69-21.24c-17.02-6.3-35.23-9.28-53.26-10.74
					c-20.63-1.66-42.57-1.88-63.05,1.33c-19.96,3.12-40.04,10.18-55.38,23.71c-3.49,2.38-11.72,7.19-10.5,12.27
					c1.65,6.85,14.32,12.59,20.1,14.42c10.14,3.2,101.92,42.69,205.98-0.53c0,0,16.01-5.87,23.48-3.2
					C332.81,58.76,340.93,52.75,332.74,44.56z"/>
				<path class="st5" d="M114.64,54.63c0,0-21.09-12.59-29.27-5.04l1.26,2.52c0,0,7.24-5.66,27.07,4.41L114.64,54.63z"/>
				<path class="st7" d="M117.16,36.54c0,3.04-2.46,5.51-5.51,5.51c-3.04,0-5.51-2.47-5.51-5.51c0-3.04,2.47-5.51,5.51-5.51
					C114.69,31.03,117.16,33.5,117.16,36.54z"/>
				<path class="st8" d="M114.01,36.22c0,1.43-1.2,2.58-2.67,2.58c-1.48,0-2.67-1.15-2.67-2.58c0-1.42,1.19-2.58,2.67-2.58
					C112.81,33.64,114.01,34.8,114.01,36.22z"/>
				<path class="st5" d="M133.01,30.13c3.41,6.25,9.83,14.41,8.38,21.98c-0.7,3.63-2.93,5.62-4.38,8.77
					c2.96,0.06,5.2-1.64,6.53-4.08c1.6-2.94,1.64-6.38,1.05-9.6C143.62,41.9,140.59,29.09,133.01,30.13z"/>
				<path class="st5" d="M144.24,51.15c0.5-0.33,1.24-0.6,2.28-0.8c4.71-0.93,10.58,1.55,14.95,3.11c2.66,0.95,8.37,2.21,6.77,6.23
					c-2.82,7.07-12.28,1.86-16.58-0.27C148.98,58.09,140.85,53.39,144.24,51.15z"/>
				<path class="st9" d="M163.11,43.62c0,0,7.87-19.51,24.86-26.75C187.97,16.87,172.55,38.9,163.11,43.62z"/>
				<path class="st9" d="M193.64,44.56c0,0,8.18-17.62,24.55-24.55C218.19,20.01,203.08,40.47,193.64,44.56z"/>
				<path class="st9" d="M222.28,43.93c0,0,8.18-15.11,21.72-19.51C243.99,24.42,232.98,38.9,222.28,43.93z"/>
				<path class="st9" d="M250.92,45.82c0,0,5.67-10.7,19.2-14.79C270.11,31.03,260.67,43.62,250.92,45.82z"/>
				<path class="st9" d="M163.74,18.44c0,0,8.18,19.2,20.77,24.86C184.51,43.3,174.44,25.68,163.74,18.44z"/>
				<path class="st9" d="M197.41,23.48c0,0,2.84,12.9,17,18.57C214.41,42.04,206.86,28.83,197.41,23.48z"/>
				<path class="st9" d="M226.37,26.94c0,0,5.99,12.27,17.63,16.36C243.99,43.3,235.18,29.77,226.37,26.94z"/>
				<path class="st9" d="M255.01,33.23c0,0,4.72,8.81,13.85,12.59C268.86,45.82,261.61,35.44,255.01,33.23z"/>
			</g>
			<g>
				<path class="st10" d="M126.93,67.16c13.53-10.13,29.49-15.57,46.13-18.04c2.23-0.33,21.33-1.8,14.68,4.41
					c4.45-0.96,8.3-2.36,13.09-2.6c2.27-0.11,12.39,1.52,6.88,4.62c11.01,1.1,26.99,1.52,32.85,14.18"/>
				<path class="st10" d="M348.73,100.43c0.96-1.2,3.14-2.05,4.59-2.55c2.24-0.76,4.99-1.49,7.28-1.87
					c5.38-0.91,11.34-2.06,16.76-0.79c1.52,0.35,2.95,0.92,4.15,1.88c0.86,0.69,1.93,1.81,1.92,3c-0.01,1-0.63,1.32-1.39,1.75
					c1.23,0.25,2.2,1.82,2.34,3c0.18,1.5-0.88,2.06-1.95,2.69c1.28,0.11,2.05,1.45,2.12,2.6c0.1,1.69-0.55,2.36-1.99,3.1
					c1.05,0.57,1.6,1.85,1.41,3.01c-0.09,0.54-0.34,1.09-0.77,1.44c-0.25,0.2-1.35,0.73-1.64,0.51c0.44,0.34,0.62,0.98,0.68,1.5
					c0.32,2.83-3.04,4.53-5.29,5.2c-3.37,1-7.78,0.24-11.09-0.63c-4.19-1.11-8.32-2.82-12.06-4.94c-1.44-0.82-3.02-1.51-4.23-2.68
					c-1.41-1.37-1.05-2.71-1.41-4.42c-0.31-1.46,0.07-3.08,0.11-4.58c0.04-1.16,0.11-2.33,0.11-3.5c0-0.86-0.34-1.88-0.13-2.72
					C348.35,101.06,348.5,100.73,348.73,100.43z"/>
				<path class="st11" d="M349.13,99.98c0,0-10.96,0.99-21.39-2.08c-19.53-5.75-36.95-17.37-55.99-24.42
					c-19.57-7.25-40.51-10.68-61.24-12.35c-23.71-1.92-48.95-2.16-72.51,1.53c-22.94,3.59-46.04,11.71-63.68,27.26
					c-4.02,2.74-13.48,8.26-12.07,14.1c1.9,7.88,16.46,14.48,23.11,16.58c11.66,3.68,117.2,49.09,236.86-0.61
					c0,0,18.41-6.75,26.99-3.68C349.21,116.3,358.54,109.39,349.13,99.98z"/>
				<path class="st10" d="M98.34,111.56c0,0-24.25-14.48-33.66-5.79l1.44,2.9c0,0,8.33-6.51,31.12,5.07L98.34,111.56z"/>
				<path class="st7" d="M101.23,90.75c0,3.5-2.84,6.33-6.33,6.33c-3.5,0-6.33-2.84-6.33-6.33c0-3.5,2.83-6.33,6.33-6.33
					C98.4,84.42,101.23,87.25,101.23,90.75z"/>
				<path class="st8" d="M97.61,90.39c0,1.64-1.38,2.97-3.07,2.97c-1.7,0-3.08-1.33-3.08-2.97c0-1.64,1.38-2.97,3.08-2.97
					C96.24,87.42,97.61,88.75,97.61,90.39z"/>
				<path class="st10" d="M119.47,83.38c3.91,7.19,11.3,16.57,9.63,25.27c-0.8,4.18-3.36,6.46-5.03,10.09
					c3.4,0.07,5.98-1.88,7.51-4.7c1.84-3.38,1.88-7.33,1.2-11.04C131.66,96.92,128.18,82.19,119.47,83.38z"/>
				<path class="st10" d="M132.37,107.55c0.57-0.38,1.42-0.69,2.62-0.93c5.41-1.06,12.17,1.79,17.19,3.58
					c3.06,1.09,9.62,2.54,7.78,7.17c-3.25,8.13-14.12,2.14-19.06-0.31C137.83,115.54,128.47,110.13,132.37,107.55z"/>
				<path class="st12" d="M154.07,98.89c0,0,9.04-22.44,28.58-30.76C182.66,68.13,164.93,93.46,154.07,98.89z"/>
				<path class="st12" d="M189.17,99.98c0,0,9.41-20.27,28.23-28.23C217.4,71.75,200.03,95.27,189.17,99.98z"/>
				<path class="st12" d="M222.11,99.26c0,0,9.41-17.37,24.97-22.44C247.08,76.82,234.41,93.46,222.11,99.26z"/>
				<path class="st12" d="M255.04,101.43c0,0,6.51-12.3,22.08-17.01C277.11,84.42,266.26,98.89,255.04,101.43z"/>
				<path class="st12" d="M154.8,69.94c0,0,9.41,22.07,23.88,28.59C178.68,98.53,167.1,78.26,154.8,69.94z"/>
				<path class="st12" d="M193.52,75.73c0,0,3.26,14.84,19.54,21.35C213.06,97.08,204.38,81.88,193.52,75.73z"/>
				<path class="st12" d="M226.81,79.71c0,0,6.88,14.12,20.27,18.82C247.08,98.53,236.94,82.97,226.81,79.71z"/>
				<path class="st12" d="M259.75,86.95c0,0,5.43,10.13,15.92,14.48C275.66,101.43,267.34,89.48,259.75,86.95z"/>
			</g>
		</g>
	</g>
	<path class="st13" d="M190.36,139.33c-13.91-0.61-27.25-2.63-40.7-5.21c-11.22-2.15-24.21-4.16-34.06-9.28
		c13.38,1.28,26.53,4.63,39.92,6.34c23.67,3.02,48.63,5.78,72.6,2.94c16.81-1.99,33.31-3.95,49.87-7.27
		c5.91-1.19,11.82-2.57,17.94-2.93c-14.88,7.85-33.19,10.58-49.7,12.91C227.74,139.44,209.01,140.14,190.36,139.33z"/>
	<path class="st14" d="M286.88,67.83c-4.5,1.57-9.19,2.42-13.9,2.5c8.08-3.69,15.75-8.03,24.17-10.93
		c4.73-1.63,9.84-2.75,14.59-3.76c3.94-0.84,10.04-2.47,14.18-1.09c-8.52,1.78-17.22,3.8-25.56,7.78
		C295.95,64.44,291.54,66.21,286.88,67.83z"/>
	<path class="st14" d="M132.46,59.61c7.49-1.01,7.02-10.83,5.18-15.78c-1.2-3.24-2.6-6.51-4.45-9.43c-2.54-4-4.51-3.58-8.42-5.49
		c3.04,1.49,6.95,11.42,7.97,14.48C134.42,48.46,135.31,54.77,132.46,59.61z"/>
	<path class="st13" d="M126.19,101.84c-0.49-3.32-1.9-6.75-3.67-9.6c-0.65-1.05-6.54-6.21-6.54-6.13c0.01,5.59,4.98,9.93,6.01,15.33
		c1.13,5.87-1.08,11.2-1.59,16.95c2.31-1.97,4.17-2.49,5.34-5.41C127.08,109.66,126.7,105.29,126.19,101.84z"/>
</g>
</svg>
